<svg width="795" height="200" viewBox="0 0 795 200" fill="none" xmlns="http://www.w3.org/2000/svg">
<path fill-rule="evenodd" clip-rule="evenodd" d="M103.508 0C160.426 0 206.567 44.7489 206.567 99.9488C206.567 155.149 160.426 199.898 103.508 199.898C46.5902 199.898 0.449219 155.149 0.449219 99.9488C0.449219 44.7489 46.5902 0 103.508 0ZM103.508 27.0583C145.017 27.0583 178.667 59.6925 178.667 99.9488C178.667 140.205 145.017 172.839 103.508 172.839C61.9988 172.839 28.3496 140.205 28.3496 99.9488C28.3496 59.6925 61.9988 27.0583 103.508 27.0583Z" fill="white"/>
<path fill-rule="evenodd" clip-rule="evenodd" d="M103.369 27.0581L35.1074 130.2C40.3426 141.315 48.3733 150.932 58.3282 158.205L103.369 91.7708L148.688 158.205C158.643 150.932 166.674 141.315 171.909 130.2L103.369 27.0581Z" fill="#FEFEFE"/>
<path fill-rule="evenodd" clip-rule="evenodd" d="M238.99 156.578H274.811L289.15 125.675L325.06 125.676L327.487 156.578H362.523L346.819 33.4351H318.587C308.01 33.4351 301.136 37.0289 296.062 47.7991L238.99 156.578ZM301.02 100.092L319.862 59.4864L323.051 100.092H301.02ZM395.104 33.4351H426.394L417.326 73.8774C432.268 64.1071 452.738 62.9963 464.133 74.8781C469.353 80.3215 477.465 91.3766 469 116.778C462.234 137.075 449.39 149.523 431.253 155.129C419.575 158.739 407.609 159.618 397.056 157.684C377.813 154.155 371.646 140.165 377.491 115.432L395.104 33.4351ZM423.7 91.6426C412.734 97.3917 406.5 117.139 407.87 127.871C409.087 137.405 417.882 136.706 424.396 132.589C436.035 125.232 444.135 104.473 438.461 94.8066C435.289 89.4034 428.878 88.9275 423.7 91.6426ZM717.296 33.4351H748.586L739.518 73.8774C754.46 64.1071 774.93 62.9963 786.324 74.8781C791.544 80.3215 799.656 91.3766 791.192 116.778C784.425 137.075 771.581 149.523 753.444 155.129C741.766 158.739 729.801 159.618 719.247 157.684C700.004 154.155 693.838 140.165 699.682 115.432L717.296 33.4351ZM745.892 91.6426C734.926 97.3917 728.692 117.139 730.062 127.871C731.278 137.405 740.074 136.706 746.587 132.589C758.227 125.232 766.326 104.473 760.652 94.8066C757.48 89.4034 751.07 88.9275 745.892 91.6426ZM492.125 70.8384H521.212L503.635 156.578H474.11L492.125 70.8384ZM551.724 53.352C554.905 36.6781 572.341 37.3912 584.037 38.2502L577.314 70.6869H596.911L592.591 90.5849H573.189L566.865 121.097C563.47 136.735 576.938 134.716 581.445 133.262C579.888 140.685 578.33 148.108 576.772 155.531C555.45 161.542 529.78 157.261 535.46 130.829L543.908 90.5849H530.277L534.599 70.6869H548.085L551.724 53.352ZM595.021 133.969C600.226 159.3 631.829 167.918 653.765 141.815C653.765 146.736 653.765 151.657 653.765 156.578C662.273 156.578 670.781 156.578 679.289 156.578C679.851 126.767 686.549 99.8722 693.814 71.4734C654.463 61.5118 619.601 68.9487 603.427 96.0296C597.146 106.547 592.516 121.774 595.021 133.969ZM625.589 124.591C624.043 109.516 637.502 84.0462 659.748 88.2984C656.755 105.652 652.452 123.555 644.519 131.171C637.14 138.255 626.73 135.723 625.589 124.591Z" fill="white"/>
<path fill-rule="evenodd" clip-rule="evenodd" d="M509.648 23.3545C520.06 23.3545 528.5 31.8046 528.5 42.2274C528.5 52.6502 520.06 61.1003 509.648 61.1003C499.237 61.1003 490.797 52.6502 490.797 42.2274C490.797 31.8046 499.237 23.3545 509.648 23.3545Z" fill="white"/>
</svg>
