<svg width="485" height="201" viewBox="0 0 485 201" fill="none" xmlns="http://www.w3.org/2000/svg">
<path fill-rule="evenodd" clip-rule="evenodd" d="M483.407 19.437C461.243 21.5967 455.626 34.0241 455.736 42.8813V199.298H484.999V19.2856L483.407 19.437Z" fill="white"/>
<path fill-rule="evenodd" clip-rule="evenodd" d="M291.856 19.337L290.443 19.2925C290.29 19.2925 290.164 19.2856 290.049 19.2856C285.419 19.3019 278.767 21.0564 273.034 24.8522C267.312 28.6057 262.504 34.577 262.394 42.83V54.949H242.41V76.7509H262.394V165.463C262.394 167.604 262.835 170.519 263.649 174.185C264.464 178.138 267.018 181.924 270.717 185.726C274.579 189.541 280.201 192.662 287.448 195.28C294.72 197.823 304.725 199.15 317.388 199.163H318.828V176.342H316.464C310.894 176.348 306.485 175.822 303.248 174.671C299.959 173.498 297.452 172.123 295.823 170.586C293.974 168.928 292.96 167.343 292.629 165.782C292.119 163.937 291.856 162.327 291.856 160.961V76.7509H318.828V54.949H291.856V19.337Z" fill="white"/>
<path fill-rule="evenodd" clip-rule="evenodd" d="M230.737 68.0631C226.9 64.2547 221.373 61.1148 214.259 58.5054C206.899 55.9629 196.848 54.6294 184.287 54.6294C171.617 54.6294 161.595 55.9629 154.345 58.4923C147.114 61.1148 141.471 64.2547 137.663 68.0631C133.963 71.7171 131.364 75.448 130.547 79.5491C129.735 83.1419 129.289 85.999 129.289 88.3257V198.844L130.747 198.827C144.228 198.696 157.034 190.652 158.731 174.621L158.753 174.541V92.1017C158.753 90.765 159.012 89.4053 159.59 87.5257C160.117 85.999 161.155 84.4979 163.046 82.978C164.875 81.6057 167.545 80.2979 171.071 79.112C174.419 77.968 179.136 77.4439 184.931 77.4439C190.37 77.4439 194.889 77.968 198.018 79.102C201.347 80.2979 203.858 81.5895 205.6 83.1325C207.317 84.7361 208.376 86.288 208.791 87.7791C209.168 89.5373 209.456 91.1572 209.434 92.6227V198.827H238.983V88.3257C238.983 86.0309 238.431 83.2225 237.612 79.6005C236.842 75.6925 234.483 71.7778 230.737 68.0631Z" fill="white"/>
<path fill-rule="evenodd" clip-rule="evenodd" d="M358.521 96.8939C358.521 90.2252 360.439 85.1409 364.275 81.5513C368.195 77.9648 375.441 76.1648 386.287 76.1648C396.817 76.1648 404.047 77.8648 407.993 81.3361C411.803 84.7393 413.474 88.8723 413.474 95.9552C413.474 99.4584 413.101 102.29 411.383 105.555C410.085 108.049 408.74 109.797 406.843 111.285C404.378 112.975 401.641 114.402 398.63 115.061C393.002 116.308 369.808 117.401 366.634 118.358C365.131 118.773 363.455 119.136 361.658 120.187C359.845 121.132 358.962 122.228 358.521 124.03V96.8939ZM343.167 191.622C352.252 197.921 365.909 200.99 384.4 201C393.937 201 400.942 200.28 407.904 198.49C414.714 196.72 420.342 194.399 424.945 191.32C429.437 188.241 432.806 184.581 434.876 180.551C437.062 176.456 438.029 171.89 438.029 167.298V159.427H410.573V160.844C410.558 165.735 408.855 170.71 405.503 174.062C402.444 177.279 394.752 179.201 384.4 179.178C379.35 179.178 375.147 178.667 371.768 177.784C368.531 176.826 365.825 175.55 364.059 174.159C362.121 172.61 360.733 171.009 360.024 169.482C359.299 167.802 358.926 166.05 358.926 164.524V158.116C358.947 156.129 359.425 152.597 360.187 150.808C360.796 149.217 361.632 146.771 362.783 145.62C364.191 144.332 365.032 143.625 366.198 142.985C368.111 141.97 368.71 141.799 370.27 141.218C371.878 140.591 372.714 140.321 376.529 139.752C379.902 139.229 410.862 135.414 414.604 134.276C422.365 131.975 428.534 127.791 432.743 122.08C437.036 116.337 439.106 107.958 439.106 100.911V88.3257C439.106 84.9513 438.454 81.3167 437.036 77.3088C435.517 73.0988 432.627 69.4998 428.576 66.1411C424.456 62.7861 418.839 60.064 411.808 57.8656C404.688 55.6614 395.619 54.6294 384.4 54.6294C373.181 54.6294 364.191 55.6614 357.076 57.8656C350.066 60.064 344.449 62.7861 340.309 66.1317C336.273 69.4998 333.383 73.0988 331.843 77.2769C330.346 81.3036 329.684 84.9513 329.684 88.3257V167.298C329.657 176.971 334.224 185.291 343.167 191.622Z" fill="white"/>
<path fill-rule="evenodd" clip-rule="evenodd" d="M80.5613 158.736C80.5613 165.401 78.645 170.476 74.8117 174.072C70.865 177.659 63.6346 179.459 52.7974 179.459C42.2603 179.459 35.0337 177.768 31.0901 174.284C27.2763 170.894 25.6053 166.764 25.6053 159.662C25.6053 156.178 25.9768 153.34 27.7029 150.065C29.0218 147.565 30.3434 145.82 32.2571 144.342C34.7005 142.642 37.435 141.214 40.457 140.543C46.0941 139.306 69.2781 138.213 72.475 137.255C73.9452 136.837 75.623 136.497 77.4522 135.443C79.2592 134.504 80.1415 133.389 80.5613 131.59V158.736ZM95.9174 64.0007C86.8611 57.6891 73.1791 54.6393 54.6944 54.6294C45.1498 54.6294 38.1397 55.3493 31.1999 57.1268C24.3673 58.9038 18.7496 61.2017 14.1696 64.2934C9.65434 67.3945 6.27666 71.0291 4.20476 75.0753C2.02304 79.1664 1.05672 83.7236 1.05672 88.3257V96.196H28.5337V94.7855C28.5337 89.8907 30.211 84.9126 33.5597 81.5513C36.6432 78.3502 44.3354 76.4125 54.6944 76.4543C59.753 76.4413 63.9677 76.946 67.316 77.836C70.5355 78.8036 73.2926 80.1015 75.0313 81.4644C76.9671 83.0167 78.357 84.6073 79.0648 86.1566C79.7694 87.821 80.1641 89.5823 80.1641 91.1053V97.5075C80.1641 99.484 79.6565 103.022 78.9261 104.799C78.2729 106.39 77.4748 108.852 76.2888 110.009C74.8732 111.291 74.0845 112.001 72.9143 112.628C70.9748 113.644 70.4257 113.823 68.8351 114.402C67.2287 115.032 66.3691 115.292 62.581 115.877C59.1839 116.382 28.2231 120.209 24.4997 121.34C16.746 123.661 10.5823 127.836 6.34813 133.537C2.05247 139.296 0 147.667 0 154.703V167.297C0 170.659 0.636872 174.3 2.02304 178.317C3.61362 182.524 6.48054 186.117 10.5077 189.485C14.6546 192.834 20.2461 195.556 27.2763 197.757C34.4 199.959 43.4726 200.99 54.6944 200.997C65.9104 200.99 74.899 199.959 82.0127 197.757C89.0428 195.556 94.6411 192.834 98.7618 189.495C102.815 186.117 105.698 182.524 107.227 178.343C108.72 174.313 109.399 170.659 109.399 167.297V88.3257C109.425 78.6523 104.845 70.3223 95.9174 64.0007Z" fill="white"/>
<path fill-rule="evenodd" clip-rule="evenodd" d="M106.77 56.4598C110.735 38.0062 151.241 46.0246 163.756 31.0584C166.884 27.3238 169.373 16.1785 164.128 8.48797C161.325 4.35508 157.825 1.88049 150.468 0.890629C142.091 -0.224572 133.454 -0.324156 125.041 0.771725C113.467 2.24039 106.656 9.11782 106.656 22.7923C106.656 25.2735 106.75 56.5174 106.77 56.4598Z" fill="white"/>
</svg>
