<svg width="596" height="300" viewBox="0 0 596 300" fill="none" xmlns="http://www.w3.org/2000/svg">
<path fill-rule="evenodd" clip-rule="evenodd" d="M313.855 182.365C309.818 198.249 305.78 214.135 301.732 230.019C309.482 230.075 317.243 230.122 324.992 230.177C329.049 214.236 333.115 198.306 337.172 182.364C329.403 182.365 321.626 182.365 313.855 182.365Z" fill="white"/>
<path fill-rule="evenodd" clip-rule="evenodd" d="M348.42 169.501C343.331 189.672 338.242 209.846 333.152 230.018C340.885 230.074 348.625 230.121 356.358 230.176C361.502 209.948 366.658 189.727 371.802 169.499C364.015 169.501 356.217 169.501 348.42 169.501Z" fill="white"/>
<path fill-rule="evenodd" clip-rule="evenodd" d="M383.948 153.766C377.444 179.233 370.932 204.701 364.428 230.168C372.095 230.168 379.762 230.168 387.427 230.168C393.894 204.701 400.36 179.233 406.818 153.766C399.188 153.766 391.568 153.766 383.948 153.766Z" fill="white"/>
<path fill-rule="evenodd" clip-rule="evenodd" d="M75.4381 0C112.524 0.120315 172.108 0.372213 186.698 0.372213C215.113 0.372213 234.363 24.4975 235.888 41.6966C236.456 48.0534 234.622 56.0432 234.288 57.2739C231.319 68.0316 224.826 75.4142 218.545 85.9953C222.36 88.0642 226.64 90.7025 231.096 94.0866C236.316 98.0384 240.539 102.058 243.861 105.647C252.895 70.5589 261.929 35.471 270.963 0.383481C295.118 0.383481 304.561 0.383481 314.405 0.383481C329.589 0.383481 337.005 0.383485 350.72 0.26317C354.944 0.225385 359.493 0.291339 366.184 0.383481C380.028 0.578703 379.544 0.420935 385.396 0.383481C396.18 0.317523 403.166 0.988372 410.6 4.95147C412.09 5.74429 416.398 8.29808 420.882 12.9224C425.608 17.8079 428.725 23.7176 430.494 30.0181C433.918 24.873 442.227 13.9088 457.253 6.71377C468.977 1.0825 479.333 0.317525 487.073 0H567.768L556.221 44.3442C556.221 44.3442 519.906 44.25 501.978 44.3442C489.566 44.3442 480.196 56.2855 486.477 63.2774C495.929 73.8492 526.41 85.4166 553.197 106.746C564.334 115.611 568.94 130.73 568.595 143.707C568.224 157.764 559.375 168.233 549.596 177.108C540.041 185.787 517.655 199.173 496.284 199.051L403.037 199.218L415.141 152.05C415.141 152.05 462.433 152.069 485.937 152.05C494.05 152.125 503.958 148.143 507.141 143.38C510.315 138.541 506.723 131.392 501.353 128.344C475.256 113.531 449.307 97.8992 427.795 76.2243C426.242 80.3544 424.194 84.6331 421.514 88.8835C405.706 113.96 381.384 123.729 366.637 123.729C343.293 123.729 297.089 123.729 297.089 123.729C297.089 123.729 304.354 95.9768 307.983 81.5665C325.662 81.7147 343.042 81.5195 360.72 81.6603C369.186 81.5851 380.538 74.2118 381.384 62.1594C381.877 54.4122 377.01 44.3647 364.664 44.3647C346.706 44.4211 328.76 44.4774 310.802 44.5225C297.618 95.9244 284.435 147.324 271.25 198.735C254.279 198.754 237.308 198.782 220.338 198.801C222.581 190.086 224.822 181.36 227.066 172.645L226.786 172.569C219.547 179.766 207.433 189.778 190.165 195.25C178.331 199.006 168.738 199.138 160.188 199.201C132.759 199.388 107.712 199.378 83.8104 199.201C87.8857 183.624 91.9613 168.058 96.0274 152.48C119.771 152.499 143.507 152.527 167.251 152.546C178.676 152.099 188.976 141.08 188.976 132.149C188.976 123.218 181.924 115.025 166.619 115.174V115.098C146.26 115.108 125.913 115.117 105.555 115.136C109.266 100.472 112.97 85.8094 116.682 71.1545C134.64 71.1638 152.605 71.1734 170.563 71.1827C177.337 69.6908 180.863 63.2117 180.722 56.8171C180.584 49.5923 175.782 44.4569 167.958 44.4569H116.963C103.835 96.0448 90.7066 147.623 77.5782 199.211C59.9841 199.211 42.3808 199.211 24.7871 199.211C41.6831 132.801 58.5606 66.4006 75.4381 0Z" fill="white"/>
<path d="M30.861 267.949C30.3493 270.084 29.558 271.884 28.5073 273.355C27.4553 274.828 25.8743 275.908 23.772 276.607C25.2329 276.869 26.3021 277.474 26.9902 278.424C27.6693 279.385 27.9955 280.672 27.9674 282.284C27.9485 283.31 27.7726 284.513 27.4364 285.873C27.101 287.234 26.8138 288.278 26.5813 289.015C26.3491 289.752 25.7526 290.992 24.7866 292.734C23.819 294.477 22.4047 295.932 20.5257 297.088C18.6556 298.243 16.3393 298.822 13.5846 298.822L0 298.824L10.244 257.462H22.684C24.777 257.462 26.4612 257.648 27.7365 258.012C29.0121 258.375 29.9609 259.14 30.5838 260.295C31.2061 261.451 31.5045 262.71 31.4763 264.07C31.4671 265.124 31.2626 266.412 30.861 267.949ZM19.3722 286.593C19.6891 285.306 19.8558 284.263 19.8654 283.451C19.8843 282.314 19.5578 281.493 18.8882 280.999C18.2186 280.505 17.0181 280.253 15.2969 280.253L12.3278 280.255L9.19201 292.775L10.8388 292.773H12.654C13.3143 292.773 13.8357 292.755 14.2257 292.717C14.6065 292.679 15.1933 292.493 15.9661 292.166C16.7389 291.839 17.4177 291.169 17.9861 290.18C18.5524 289.184 19.0175 287.991 19.3722 286.593ZM23.0462 268.285C23.2784 267.438 23.4008 266.71 23.4174 266.075C23.4362 265.228 23.1851 264.593 22.6823 264.174C22.1702 263.755 21.2965 263.541 20.049 263.541H16.4686L13.8072 274.185H15.2403H15.9568C17.204 274.185 18.2186 274.101 18.9894 273.934C19.7619 273.766 20.4318 273.402 20.9905 272.835C21.5496 272.265 21.9677 271.669 22.238 271.043C22.4987 270.42 22.7667 269.497 23.0462 268.285ZM56.8478 274.075L51.8797 294.042C51.7599 294.479 51.6378 295.04 51.5181 295.72C51.3977 296.4 51.3322 296.941 51.3229 297.351C51.3133 297.863 51.3977 298.367 51.574 298.843H44.1939C44.1565 298.694 44.1469 298.442 44.1565 298.068C44.1661 297.741 44.2034 297.351 44.2858 296.913C44.3702 296.475 44.4436 296.101 44.528 295.813C43.4403 297.174 42.1742 298.209 40.7319 298.927C39.2899 299.645 37.8852 300 36.5269 300C34.8053 300 33.3726 299.44 32.2379 298.322C31.1032 297.204 30.5537 295.646 30.5818 293.662C30.6007 292.85 30.8521 291.433 31.345 289.412C31.8386 287.388 32.9637 285.683 34.7137 284.283C36.4634 282.886 38.8171 281.617 41.7653 280.48C44.7248 279.344 46.6042 278.44 47.4312 277.776C48.251 277.115 48.7985 276.527 49.0873 276.014C49.3757 275.501 49.5147 275.016 49.5243 274.578C49.5335 273.916 49.2636 273.385 48.6952 272.975C48.1362 272.575 47.4292 272.37 46.5837 272.37C45.4112 272.37 44.3685 272.752 43.4571 273.526C42.5457 274.3 41.9867 275.493 41.773 277.115L34.845 277.113C35.1993 273.691 36.6397 271.091 39.1622 269.311C41.683 267.53 44.5485 266.635 47.7408 266.635C50.4208 266.635 52.662 267.167 54.4865 268.238C56.3003 269.302 57.1949 270.737 57.1668 272.536C57.1462 272.936 57.045 273.449 56.8478 274.075ZM47.283 282.79L41.2814 286.266C40.3137 286.779 39.5783 287.516 39.0666 288.476C38.5545 289.436 38.2842 290.424 38.2749 291.45C38.2564 292.662 38.5075 293.455 39.0292 293.818C39.5505 294.181 40.0904 294.368 40.6475 294.368C41.634 294.368 42.6109 293.987 43.56 293.213C44.5091 292.439 45.1787 291.283 45.5707 289.736L47.283 282.79ZM84.6313 274.95L78.7144 298.833H71.7825L77.0487 277.541C77.2813 276.88 77.4033 276.273 77.4106 275.724C77.4295 274.877 77.1969 274.213 76.7318 273.738C76.2667 273.263 75.6609 273.02 74.9275 273.02C74.0442 273.02 73.1871 273.338 72.3505 273.953C71.5142 274.576 70.843 275.482 70.3494 276.657L64.8413 298.824H57.9094L65.6684 267.558H72.6002L71.7166 271.034C72.9919 269.599 74.3218 268.544 75.7079 267.864C77.094 267.184 78.4348 266.848 79.7177 266.848C81.2987 266.848 82.5928 267.342 83.5978 268.34C84.6125 269.328 85.0964 270.67 85.0683 272.366C85.0495 273.206 84.9016 274.075 84.6313 274.95ZM109.826 276.05L109.23 278.549H102.075L103.015 275.044C103.015 274.858 103.024 274.616 103.024 274.317C103.043 273.02 102.421 272.368 101.136 272.368C99.9259 272.368 99.0145 272.947 98.4088 274.112C97.805 275.277 97.2178 277.011 96.6683 279.332L94.8905 286.687C94.2302 288.97 93.8852 290.704 93.866 291.878C93.8571 292.615 93.9957 293.166 94.3033 293.51C94.6107 293.865 95.0946 294.07 95.7546 294.143C96.927 294.143 97.6809 293.788 98.0075 293.07C98.3336 292.352 98.7802 291.187 99.3651 289.566L100.072 286.694L107.231 286.696L106.524 289.567C105.695 292.951 104.309 295.477 102.374 297.146C100.438 298.814 97.7223 299.652 94.2415 299.652C91.7114 299.652 89.7943 299.102 88.4913 297.993C87.1875 296.894 86.5557 295.159 86.6026 292.801C86.6304 291.366 86.8914 289.763 87.4032 287.991L89.8883 277.885C90.8748 273.83 92.4372 270.978 94.5772 269.328C96.717 267.669 99.3036 266.838 102.355 266.838C105.108 266.838 107.118 267.443 108.375 268.665C109.641 269.886 110.254 271.47 110.217 273.428C110.179 274.289 110.059 275.164 109.826 276.05ZM134.966 282.79C133.887 287.786 132.464 291.86 130.676 295.001C128.898 298.143 125.309 299.718 119.911 299.718C116.533 299.718 114.189 299.038 112.878 297.677C111.567 296.317 110.924 294.444 110.97 292.057C110.999 290.659 111.128 289.41 111.361 288.31C111.603 287.211 112.253 284.693 113.334 280.779C114.412 276.863 115.772 273.535 117.419 270.796C119.065 268.054 122.34 266.684 127.263 266.684C130.641 266.684 132.985 267.299 134.305 268.529C135.626 269.76 136.26 271.737 136.213 274.458C136.185 276.404 135.767 279.182 134.966 282.79ZM129.011 277.104C129.244 276.329 129.365 275.668 129.373 275.117C129.392 274.157 129.15 273.449 128.638 272.964C128.135 272.489 127.494 272.246 126.721 272.246C125.586 272.246 124.515 272.675 123.503 273.543C122.497 274.409 121.875 275.593 121.624 277.104L118.488 289.735C118.33 290.21 118.255 290.732 118.236 291.283C118.218 292.243 118.488 292.98 119.056 293.521C119.615 294.052 120.35 294.323 121.271 294.323C122.295 294.323 123.263 293.932 124.155 293.14C125.048 292.346 125.617 291.219 125.868 289.746L129.011 277.104ZM184.724 257.638L174.48 298.831L167.102 298.833L167.753 296.242C166.924 297.454 165.949 298.376 164.812 299C163.677 299.624 162.477 299.942 161.192 299.942C159.574 299.942 158.224 299.344 157.127 298.151C156.029 296.958 155.499 295.205 155.536 292.884C155.555 291.961 155.675 290.917 155.917 289.742L159.351 275.843C160.393 272.943 161.817 270.79 163.64 269.392C165.463 267.994 167.288 267.295 169.12 267.295C170.405 267.295 171.512 267.612 172.46 268.227C173.4 268.851 173.94 269.644 174.069 270.595L177.325 257.636L184.724 257.638ZM172.126 278.426C172.341 277.579 172.453 276.878 172.462 276.329C172.5 274.27 171.765 273.244 170.247 273.244C169.364 273.244 168.479 273.691 167.605 274.595C166.721 275.499 166.069 276.767 165.632 278.426L162.933 289.286C162.738 290.133 162.625 290.851 162.616 291.439C162.597 292.399 162.801 293.154 163.238 293.705C163.666 294.256 164.235 294.536 164.932 294.536C165.816 294.536 166.682 294.089 167.546 293.185C168.402 292.281 169.055 290.984 169.482 289.297L172.126 278.426ZM205.604 284.496H191.2L189.767 290.173C189.767 290.434 189.758 290.815 189.748 291.328C189.73 292.25 189.99 292.959 190.512 293.453C191.033 293.947 191.721 294.199 192.558 294.199C193.768 294.199 194.846 293.705 195.805 292.707C196.754 291.709 197.247 290.283 197.284 288.41H204.664C204.608 291.681 203.259 294.338 200.617 296.381C197.974 298.422 195.043 299.438 191.815 299.438C189.285 299.438 187.172 298.739 185.499 297.341C183.814 295.943 182.997 293.881 183.042 291.161C183.051 290.537 183.079 290.043 183.126 289.669C183.173 289.306 183.284 288.727 183.488 287.962L186.206 277.104C187.331 273.319 189.081 270.709 191.434 269.274C193.788 267.838 196.785 267.12 200.413 267.12C202.691 267.12 204.497 267.596 205.836 268.556C207.176 269.516 207.828 271.427 207.772 274.289C207.725 276.871 206.999 280.264 205.604 284.496ZM200.812 275.835C200.932 275.435 200.988 275.08 200.998 274.79C201.007 274.091 200.737 273.55 200.169 273.159C199.61 272.778 198.921 272.581 198.113 272.581C197.089 272.581 196.103 272.87 195.182 273.438C194.251 274.007 193.674 274.807 193.432 275.834L192.603 279.31L199.983 279.313L200.812 275.835ZM252.321 257.638C254.925 257.638 256.87 258.375 258.146 259.839C259.421 261.303 260.043 263.195 259.996 265.506C259.931 269.281 258.425 272.889 255.484 276.32C252.544 279.751 248.943 281.465 244.691 281.465L238.633 281.467L234.316 298.843H226.063L236.307 257.649L252.321 257.648V257.638ZM247.315 263.708H243.025L240.012 275.835H244.745C246.505 275.835 248.067 274.978 249.443 273.254C250.811 271.538 251.518 269.721 251.546 267.819C251.564 266.616 251.238 265.628 250.55 264.854C249.854 264.089 248.785 263.708 247.315 263.708ZM278.622 267.175L276.492 275.666C276.231 275.666 275.951 275.657 275.636 275.638C275.319 275.619 275.115 275.61 275.004 275.61C273.245 275.61 271.777 276.001 270.603 276.793C269.43 277.587 268.592 278.938 268.082 280.849L263.644 298.831L256.488 298.833L264.183 267.725H271.058L269.701 273.244C271.171 271.147 272.454 269.711 273.571 268.946C274.688 268.172 275.618 267.688 276.371 267.483C277.142 267.278 277.887 267.175 278.622 267.175ZM298.739 284.496H284.335L282.902 290.173C282.902 290.434 282.892 290.815 282.883 291.328C282.864 292.25 283.125 292.959 283.647 293.453C284.168 293.947 284.856 294.199 285.693 294.199C286.903 294.199 287.981 293.705 288.939 292.707C289.888 291.709 290.381 290.283 290.419 288.41H297.799C297.743 291.681 296.394 294.338 293.752 296.381C291.109 298.422 288.178 299.438 284.95 299.438C282.42 299.438 280.307 298.739 278.634 297.341C276.949 295.943 276.132 293.881 276.177 291.161C276.186 290.537 276.214 290.043 276.261 289.669C276.308 289.306 276.418 288.727 276.623 287.962L279.341 277.104C280.466 273.319 282.216 270.709 284.569 269.274C286.923 267.838 289.92 267.12 293.547 267.12C295.817 267.12 297.632 267.596 298.971 268.556C300.31 269.516 300.963 271.427 300.907 274.289C300.86 276.871 300.134 280.264 298.739 284.496ZM293.947 275.835C294.067 275.435 294.123 275.08 294.132 274.79C294.142 274.091 293.872 273.55 293.303 273.159C292.744 272.778 292.056 272.581 291.248 272.581C290.214 272.581 289.237 272.87 288.316 273.438C287.386 274.007 286.809 274.807 286.567 275.834L285.738 279.31L293.118 279.313L293.947 275.835ZM330.521 267.567L315.83 298.833H306.749L307.13 267.567H314.946L312.964 292.773L322.705 267.567H330.521ZM341.641 267.567L333.882 298.833H326.948L334.707 267.567H341.641ZM344.309 256.697L342.587 263.642H335.657L337.379 256.697H344.309ZM365.142 277.104H358.21C358.48 276.367 358.619 275.706 358.628 275.117C358.647 274.27 358.405 273.635 357.922 273.216C357.438 272.796 356.824 272.582 356.089 272.582C355.206 272.582 354.414 272.844 353.707 273.357C353 273.869 352.636 274.531 352.629 275.343C352.61 276.341 353.197 277.366 354.388 278.428C356.166 279.789 357.951 281.132 359.765 282.455C361.747 284.328 362.725 286.444 362.687 288.793C362.659 290.229 362.25 291.841 361.449 293.651C360.648 295.449 359.133 296.913 356.918 298.033C354.694 299.151 352.396 299.711 350.005 299.711C347.586 299.711 345.568 299.106 343.957 297.894C342.347 296.681 341.556 294.883 341.602 292.487C341.622 291.238 341.882 289.878 342.394 288.404L349.324 288.402C348.784 289.69 348.514 290.77 348.495 291.655C348.476 292.503 348.681 293.119 349.099 293.5C349.517 293.881 350.067 294.079 350.765 294.079C351.76 294.079 352.709 293.724 353.621 293.006C354.532 292.289 354.997 291.45 355.016 290.499C355.026 290.099 354.941 289.716 354.765 289.372C354.589 289.026 354.375 288.701 354.123 288.402C351.518 286.305 349.426 284.432 347.833 282.782C346.252 281.132 345.414 279.93 345.339 279.193C345.264 278.457 345.226 277.962 345.226 277.701C345.226 277.44 345.236 277.263 345.236 277.15C345.292 273.99 346.547 271.483 349.003 269.619C351.46 267.765 354.223 266.832 357.312 266.832C359.731 266.832 361.749 267.438 363.36 268.65C364.969 269.862 365.761 271.624 365.714 273.945C365.682 274.884 365.497 275.929 365.142 277.104ZM380.772 267.567L373.014 298.833H366.081L373.84 267.567H380.772ZM383.443 256.697L381.721 263.642H374.789L376.511 256.697H383.443ZM405.885 282.79C404.807 287.786 403.383 291.86 401.596 295.001C399.818 298.143 396.228 299.718 390.84 299.718C387.462 299.718 385.118 299.038 383.807 297.677C382.496 296.317 381.852 294.444 381.899 292.057C381.928 290.659 382.057 289.41 382.299 288.31C382.541 287.211 383.191 284.693 384.272 280.779C385.35 276.863 386.71 273.535 388.357 270.796C390.003 268.054 393.278 266.684 398.201 266.684C401.579 266.684 403.923 267.299 405.244 268.529C406.564 269.76 407.198 271.737 407.151 274.458C407.094 276.404 406.686 279.182 405.885 282.79ZM399.93 277.104C400.163 276.329 400.285 275.668 400.292 275.117C400.311 274.157 400.06 273.449 399.557 272.964C399.054 272.489 398.413 272.246 397.64 272.246C396.506 272.246 395.425 272.675 394.422 273.543C393.417 274.409 392.794 275.593 392.543 277.104L389.407 289.735C389.249 290.21 389.165 290.732 389.156 291.283C389.137 292.243 389.407 292.98 389.975 293.521C390.534 294.052 391.279 294.323 392.19 294.323C393.214 294.323 394.182 293.932 395.075 293.14C395.968 292.346 396.536 291.219 396.787 289.746L399.93 277.104ZM410.909 256.81L400.637 265.077H395.028L402.22 256.81H410.909ZM434.98 274.95L429.062 298.833H422.131L427.397 277.541C427.629 276.88 427.752 276.273 427.759 275.724C427.778 274.877 427.545 274.213 427.08 273.738C426.615 273.263 426.009 273.02 425.275 273.02C424.392 273.02 423.535 273.338 422.699 273.953C421.862 274.576 421.191 275.482 420.698 276.657L415.19 298.824H408.257L416.016 267.558H422.948L422.065 271.034C423.34 269.599 424.67 268.544 426.056 267.864C427.442 267.184 428.783 266.848 430.066 266.848C431.647 266.848 432.941 267.342 433.946 268.34C434.951 269.328 435.445 270.67 435.417 272.366C435.388 273.206 435.249 274.075 434.98 274.95ZM482.998 270.596H475.619C475.974 269.274 476.159 268.154 476.178 267.231C476.206 265.833 475.908 264.826 475.295 264.202C474.682 263.578 473.881 263.261 472.885 263.261C471.564 263.261 470.308 263.745 469.117 264.724C467.926 265.694 467.322 266.83 467.294 268.118C467.285 268.706 467.414 269.274 467.675 269.824C467.945 270.375 468.363 270.923 468.941 271.474C471.332 273.385 473.714 275.277 476.105 277.15C478.813 279.65 480.143 282.538 480.086 285.811C480.012 289.97 478.318 293.342 475.015 295.936C471.703 298.527 468.065 299.823 464.102 299.823C461.161 299.823 458.742 299.04 456.827 297.484C454.91 295.918 453.98 293.615 454.027 290.567C454.055 288.805 454.473 286.783 455.293 284.498L463.106 284.496C462.726 285.456 462.455 286.322 462.287 287.115C462.129 287.908 462.044 288.636 462.026 289.297C461.997 290.77 462.343 291.851 463.04 292.549C463.747 293.248 464.668 293.594 465.803 293.594C467.236 293.594 468.584 293.081 469.85 292.046C471.116 291.02 471.758 289.772 471.786 288.299C471.804 287.451 471.591 286.621 471.172 285.792C470.745 284.962 469.73 283.872 468.121 282.512C466.512 281.151 464.623 279.537 462.455 277.654C460.149 275.305 459.012 272.835 459.059 270.262C459.078 269.339 459.421 267.772 460.102 265.545C460.78 263.317 462.549 261.257 465.415 259.337C468.271 257.426 471.276 256.466 474.439 256.466C477.23 256.466 479.52 257.24 481.306 258.787C483.093 260.335 483.967 262.571 483.911 265.517C483.881 267.036 483.575 268.723 482.998 270.596ZM508.435 282.79C507.356 287.786 505.933 291.86 504.145 295.001C502.367 298.143 498.777 299.718 493.39 299.718C490.012 299.718 487.667 299.038 486.356 297.677C485.046 296.317 484.402 294.444 484.449 292.057C484.477 290.659 484.607 289.41 484.849 288.31C485.091 287.211 485.741 284.693 486.821 280.779C487.9 276.863 489.26 273.535 490.906 270.796C492.553 268.054 495.828 266.684 500.751 266.684C504.129 266.684 506.473 267.299 507.793 268.529C509.113 269.76 509.747 271.737 509.701 274.458C509.644 276.404 509.226 279.182 508.435 282.79ZM502.47 277.104C502.703 276.329 502.825 275.668 502.833 275.117C502.851 274.157 502.6 273.449 502.097 272.964C501.595 272.489 500.954 272.246 500.181 272.246C499.046 272.246 497.966 272.675 496.962 273.543C495.957 274.409 495.334 275.593 495.083 277.104L491.947 289.735C491.79 290.21 491.705 290.732 491.696 291.283C491.677 292.243 491.947 292.98 492.515 293.521C493.074 294.052 493.819 294.323 494.731 294.323C495.754 294.323 496.722 293.932 497.615 293.14C498.508 292.346 499.076 291.219 499.327 289.746L502.47 277.104ZM535.138 276.05L534.541 278.549H527.388L528.328 275.044C528.328 274.858 528.337 274.616 528.337 274.317C528.356 273.02 527.733 272.368 526.449 272.368C525.239 272.368 524.327 272.947 523.722 274.112C523.117 275.277 522.531 277.011 521.981 279.332L520.203 286.687C519.543 288.97 519.198 290.704 519.179 291.878C519.17 292.615 519.308 293.166 519.616 293.51C519.924 293.865 520.408 294.07 521.068 294.143C522.24 294.143 522.994 293.788 523.32 293.07C523.647 292.352 524.093 291.187 524.678 289.566L525.386 286.694L532.542 286.696L531.835 289.567C531.006 292.951 529.62 295.477 527.685 297.146C525.749 298.814 523.033 299.652 519.553 299.652C517.023 299.652 515.105 299.102 513.802 297.993C512.499 296.885 511.867 295.159 511.914 292.801C511.942 291.366 512.202 289.763 512.714 287.991L515.199 277.885C516.186 273.83 517.748 270.978 519.888 269.328C522.028 267.669 524.614 266.838 527.666 266.838C530.419 266.838 532.42 267.443 533.686 268.665C534.952 269.886 535.565 271.47 535.528 273.428C535.492 274.289 535.37 275.164 535.138 276.05ZM550.202 267.567L542.443 298.833H535.511L543.27 267.567H550.202ZM552.863 256.697L551.141 263.642H544.209L545.931 256.697H552.863ZM576.616 274.075L571.648 294.042C571.528 294.479 571.406 295.04 571.286 295.72C571.166 296.4 571.1 296.941 571.091 297.351C571.081 297.863 571.166 298.367 571.342 298.843H563.962C563.924 298.694 563.915 298.442 563.924 298.068C563.934 297.741 563.971 297.351 564.054 296.913C564.138 296.475 564.212 296.101 564.296 295.813C563.208 297.174 561.942 298.209 560.5 298.927C559.058 299.645 557.653 300 556.295 300C554.574 300 553.141 299.44 552.006 298.322C550.871 297.204 550.322 295.646 550.35 293.662C550.369 292.85 550.62 291.433 551.113 289.412C551.607 287.388 552.732 285.683 554.482 284.283C556.231 282.886 558.585 281.617 561.533 280.48C564.493 279.344 566.372 278.44 567.19 277.776C568.009 277.115 568.557 276.527 568.846 276.014C569.135 275.501 569.274 275.016 569.283 274.578C569.292 273.916 569.022 273.385 568.454 272.975C567.886 272.575 567.188 272.37 566.342 272.37C565.17 272.37 564.127 272.752 563.215 273.526C562.304 274.3 561.736 275.493 561.531 277.115L554.603 277.113C554.958 273.691 556.398 271.091 558.921 269.311C561.441 267.53 564.307 266.635 567.499 266.635C570.179 266.635 572.42 267.167 574.246 268.238C576.059 269.302 576.953 270.737 576.925 272.536C576.905 272.936 576.811 273.449 576.616 274.075ZM567.051 282.79L561.049 286.266C560.082 286.779 559.346 287.516 558.835 288.476C558.322 289.436 558.052 290.424 558.043 291.45C558.024 292.662 558.275 293.455 558.797 293.818C559.318 294.181 559.858 294.368 560.406 294.368C561.402 294.368 562.37 293.987 563.319 293.213C564.268 292.439 564.937 291.283 565.339 289.736L567.051 282.79ZM595.466 256.697L585.046 298.831L577.668 298.833L588.088 256.699L595.466 256.697Z" fill="white"/>
</svg>
