<svg width="805" height="201" viewBox="0 0 805 201" fill="none" xmlns="http://www.w3.org/2000/svg">
<path d="M591.146 175.331C591.146 174.343 591.603 173.558 592.568 173.044C593.478 172.55 595.081 172.258 597.322 172.258C598.492 172.258 599.337 172.326 599.905 172.438V177.258C598.467 178.065 596.794 178.493 594.874 178.493C593.869 178.493 592.98 178.246 592.266 177.729C591.512 177.237 591.146 176.451 591.146 175.331ZM582.221 175.845C582.221 177.326 582.497 178.65 583.095 179.794C583.663 180.96 584.442 181.879 585.382 182.551C586.341 183.246 587.418 183.763 588.542 184.099C589.683 184.435 590.849 184.591 592.105 184.591C595.518 184.591 598.442 183.381 600.87 181.003C601.096 181.721 601.392 182.327 601.783 182.821C602.171 183.313 602.653 183.672 603.2 183.875C603.707 184.122 604.231 184.234 604.733 184.323C605.236 184.412 605.808 184.458 606.446 184.458C607.437 184.458 608.577 184.367 609.859 184.143C611.141 183.941 612.234 183.694 613.129 183.359V178.179C612.234 178.291 611.507 178.358 610.863 178.358C610.064 178.358 609.471 178.088 609.105 177.573C608.738 177.057 608.552 176.115 608.552 174.77C608.552 174.658 608.552 173.044 608.577 170.014C608.598 166.987 608.598 165.06 608.598 164.23C608.598 161.067 607.963 158.781 606.632 157.299C605.808 156.403 604.573 155.685 602.995 155.125C601.441 154.61 599.085 154.34 595.995 154.34C594.602 154.34 593.18 154.498 591.603 154.788C590.05 155.081 588.724 155.438 587.647 155.865C585.589 156.739 584.539 158.198 584.539 160.194C584.539 161.651 584.719 163.4 585.131 165.441H590.301C590.392 163.423 590.828 162.121 591.558 161.607C592.357 161.023 593.613 160.731 595.311 160.731C597.09 160.731 598.331 161.067 598.968 161.719C599.607 162.414 599.933 163.646 599.933 165.419V167.078C599.472 166.987 598.577 166.966 597.277 166.966C593.613 166.966 590.643 167.325 588.401 168.021C586.16 168.716 584.557 169.701 583.623 170.979C582.683 172.303 582.221 173.895 582.221 175.845ZM551.986 170.284C551.986 174.77 553.338 178.291 556.077 180.891C558.804 183.516 562.303 184.815 566.578 184.815C568.819 184.815 571.06 184.458 573.327 183.672C575.569 182.91 577.532 181.902 579.205 180.533L576.623 175.532C573.785 177.057 571.105 177.819 568.574 177.819C563.628 177.819 561.157 175.084 561.157 169.635C561.157 166.719 561.775 164.543 563.03 163.132C564.293 161.742 565.845 161.044 567.768 161.044C569.301 161.044 570.378 161.291 570.946 161.742C571.725 162.346 572.186 163.603 572.347 165.508H577.699C578.041 163.535 578.225 161.472 578.225 159.318C578.225 158.175 577.925 157.299 577.306 156.718C576.689 156.112 575.709 155.596 574.402 155.214C572.503 154.676 570.311 154.407 567.86 154.407C563.146 154.407 559.302 155.82 556.403 158.623C553.473 161.426 551.986 165.307 551.986 170.284ZM524.877 183.987C526.751 183.898 529.796 183.875 534.006 183.875C536.654 183.875 539.816 183.898 543.493 183.987V179.053C540.87 178.918 539.383 178.627 538.971 178.2C538.509 177.706 538.257 176.451 538.257 174.569V162.839C539.267 161.965 540.387 161.538 541.554 161.538C542.216 161.538 542.744 161.762 543.086 162.167C543.428 162.593 543.685 163.377 543.865 164.543H549.152C549.583 161.495 549.785 159.43 549.785 158.31C549.785 155.753 548.413 154.475 545.645 154.475C544.298 154.475 542.906 154.857 541.535 155.618C540.161 156.403 539.017 157.368 538.143 158.534C537.987 157.054 537.529 156.067 536.821 155.484C536.107 154.923 535.172 154.633 534.116 154.633C531.077 154.633 527.961 155.395 524.877 156.92V161.742C525.223 161.719 525.745 161.673 526.453 161.673C527.781 161.673 528.605 161.92 528.95 162.414C529.292 162.929 529.478 164.14 529.478 165.979V174.681C529.478 176.519 529.319 177.617 528.971 177.999C528.721 178.246 528.333 178.426 527.805 178.559C527.304 178.717 526.297 178.829 524.901 178.987V183.987H524.877ZM502.117 165.844C502.278 164.095 502.872 162.794 503.993 161.986C505.093 161.179 506.485 160.777 508.133 160.777C509.712 160.777 510.927 161.157 511.77 161.92C512.594 162.704 513.007 163.736 513.007 164.97V165.599L502.117 165.844ZM493.059 170.218C493.059 174.658 494.408 178.156 497.154 180.825C499.876 183.47 503.444 184.794 507.907 184.794C510.671 184.794 513.324 184.367 515.797 183.539C518.289 182.73 520.395 181.563 522.178 180.173L519.525 175.106C515.931 176.878 512.615 177.752 509.504 177.752C507.172 177.752 505.364 177.191 504.037 176.003C502.713 174.837 502.025 173.447 502.025 171.786V171.295H517.354C518.862 171.295 519.937 170.979 520.508 170.353C521.103 169.724 521.379 168.512 521.379 166.74C521.379 164.97 521.128 163.377 520.645 161.897C520.188 160.462 519.434 159.16 518.474 158.017C517.464 156.874 516.138 155.955 514.469 155.326C512.775 154.722 510.832 154.386 508.635 154.386C503.993 154.386 500.242 155.776 497.359 158.534C494.501 161.337 493.059 165.217 493.059 170.218ZM463.071 170.284C463.071 174.77 464.419 178.291 467.164 180.891C469.887 183.516 473.387 184.815 477.664 184.815C479.907 184.815 482.148 184.458 484.412 183.672C486.653 182.91 488.621 181.902 490.292 180.533L487.705 175.532C484.87 177.057 482.194 177.819 479.655 177.819C474.713 177.819 472.242 175.084 472.242 169.635C472.242 166.719 472.861 164.543 474.119 163.132C475.378 161.742 476.931 161.044 478.853 161.044C480.386 161.044 481.461 161.291 482.033 161.742C482.811 162.346 483.269 163.603 483.428 165.508H488.782C489.124 163.535 489.308 161.472 489.308 159.318C489.308 158.175 489.01 157.299 488.393 156.718C487.776 156.112 486.792 155.596 485.487 155.214C483.588 154.676 481.393 154.407 478.944 154.407C474.233 154.407 470.39 155.82 467.485 158.623C464.556 161.426 463.071 165.307 463.071 170.284ZM425.601 165.844C425.761 164.095 426.355 162.794 427.476 161.986C428.576 161.179 429.97 160.777 431.618 160.777C433.196 160.777 434.408 161.157 435.253 161.92C436.077 162.704 436.49 163.736 436.49 164.97V165.599L425.601 165.844ZM416.542 170.218C416.542 174.658 417.892 178.156 420.637 180.825C423.359 183.47 426.929 184.794 431.388 184.794C434.155 184.794 436.81 184.367 439.281 183.539C441.773 182.73 443.878 181.563 445.663 180.173L443.01 175.106C439.418 176.878 436.1 177.752 432.989 177.752C430.657 177.752 428.849 177.191 427.523 176.003C426.196 174.837 425.51 173.447 425.51 171.786V171.295H440.835C442.345 171.295 443.42 170.979 443.993 170.353C444.588 169.724 444.861 168.512 444.861 166.74C444.861 164.97 444.61 163.377 444.13 161.897C443.672 160.462 442.916 159.16 441.955 158.017C440.949 156.874 439.623 155.955 437.954 155.326C436.26 154.722 434.317 154.386 432.121 154.386C427.476 154.386 423.725 155.776 420.844 158.534C417.983 161.337 416.542 165.217 416.542 170.218ZM389.436 183.987C391.311 183.898 394.354 183.875 398.562 183.875C401.216 183.875 404.374 183.898 408.056 183.987V179.053C405.424 178.918 403.939 178.627 403.527 178.2C403.069 177.706 402.819 176.451 402.819 174.569V162.839C403.825 161.965 404.946 161.538 406.111 161.538C406.774 161.538 407.3 161.762 407.644 162.167C407.988 162.593 408.239 163.377 408.421 164.543H413.707C414.142 161.495 414.347 159.43 414.347 158.31C414.347 155.753 412.974 154.475 410.206 154.475C408.856 154.475 407.462 154.857 406.089 155.618C404.716 156.403 403.573 157.368 402.702 158.534C402.543 157.054 402.085 156.067 401.377 155.484C400.667 154.923 399.729 154.633 398.678 154.633C395.636 154.633 392.525 155.395 389.436 156.92V161.742C389.779 161.719 390.304 161.673 391.015 161.673C392.341 161.673 393.165 161.92 393.508 162.414C393.85 162.929 394.034 164.14 394.034 165.979V174.681C394.034 176.519 393.873 177.617 393.531 177.999C393.279 178.246 392.889 178.426 392.364 178.559C391.86 178.717 390.853 178.829 389.459 178.987V183.987H389.436ZM364.686 163.198C365.509 162.704 366.447 162.279 367.453 161.943C368.46 161.651 369.444 161.495 370.404 161.495C374.522 161.495 376.581 164.184 376.581 169.566C376.581 172.011 375.985 173.963 374.864 175.376C373.698 176.789 371.937 177.505 369.649 177.505C367.636 177.505 366.012 177.281 364.709 176.901V163.198H364.686ZM351.35 200.088C356.267 199.997 359.494 199.954 361.025 199.954C362.719 199.954 365.943 199.997 370.769 200.088V195.221C368.895 195.088 367.613 194.976 366.904 194.841C366.194 194.683 365.736 194.436 365.486 194.167C365.21 193.808 364.982 193.316 364.891 192.754C364.8 192.15 364.755 191.162 364.755 189.795V184.054C366.996 184.323 368.505 184.479 369.259 184.479C374.705 184.479 378.845 183.022 381.728 180.152C384.609 177.258 386.05 173.447 386.05 168.716C386.05 166.628 385.823 164.746 385.433 163.018C384.998 161.337 384.358 159.812 383.465 158.488C382.573 157.188 381.384 156.179 379.897 155.461C378.387 154.766 376.627 154.407 374.636 154.407C372.691 154.407 370.862 154.788 369.145 155.618C367.385 156.426 365.875 157.434 364.593 158.669C364.502 157.144 364.067 156.067 363.359 155.529C362.65 154.99 361.712 154.722 360.5 154.722C357.481 154.722 354.415 155.484 351.304 157.009V161.831C351.692 161.808 352.195 161.762 352.883 161.762C353.796 161.762 354.484 161.897 354.941 162.19C355.536 162.638 355.832 163.939 355.832 166.068V190.602V192.351C355.832 192.664 355.764 193.046 355.673 193.494C355.559 193.943 355.422 194.212 355.306 194.301C355.169 194.391 354.919 194.548 354.506 194.729C354.117 194.908 353.705 195.02 353.27 195.065C352.814 195.088 352.149 195.154 351.304 195.243V200.088H351.35ZM295.099 183.987C296.976 183.898 300.086 183.875 304.341 183.875C305.691 183.875 308.253 183.898 312.027 183.987V179.053C311.089 178.964 310.426 178.875 310.036 178.762C309.649 178.65 309.328 178.47 309.077 178.223C308.688 177.841 308.483 176.654 308.483 174.702V163.109C310.38 162.302 312.118 161.874 313.651 161.874C315.459 161.874 316.602 162.211 317.128 162.885C317.631 163.58 317.861 164.993 317.861 167.101V174.635C317.861 176.654 317.7 177.798 317.426 178.065C317.196 178.335 316.9 178.515 316.465 178.671C316.03 178.829 315.299 178.941 314.292 179.053V183.987C317.975 183.898 320.904 183.875 323.076 183.875C324.472 183.875 326.918 183.898 330.442 183.987V179.053C329.275 178.941 328.451 178.783 327.994 178.605C327.537 178.424 327.194 178.179 327.032 177.887C326.804 177.505 326.736 176.451 326.736 174.747V164.925C326.736 164.499 326.713 163.916 326.599 163.086C328.567 162.279 330.305 161.854 331.815 161.854C333.598 161.854 334.764 162.211 335.29 162.929C335.818 163.669 336.092 165.06 336.092 167.078V174.612C336.092 176.451 335.908 177.594 335.543 178.045C335.085 178.559 334.101 178.895 332.637 179.03V183.964C336.319 183.875 339.203 183.852 341.307 183.852C343.206 183.852 345.973 183.875 349.565 183.964V179.03C348.009 178.852 346.957 178.671 346.385 178.493C345.791 178.335 345.424 178.111 345.265 177.798C345.012 177.416 344.899 176.384 344.899 174.725V164.813C344.899 160.709 344.19 157.974 342.748 156.56C341.398 155.237 339.409 154.587 336.732 154.587C334.925 154.587 333.049 155.013 331.081 155.843C329.068 156.695 327.422 157.793 326.051 159.206C325.09 156.112 322.664 154.565 318.752 154.565C316.946 154.565 315.069 154.946 313.195 155.73C311.296 156.538 309.695 157.592 308.435 158.937C308.299 157.345 307.886 156.224 307.178 155.596C306.468 154.969 305.532 154.654 304.364 154.654C301.321 154.654 298.21 155.417 295.124 156.942V161.762C295.466 161.742 295.992 161.696 296.702 161.696C298.028 161.696 298.852 161.943 299.194 162.435C299.538 162.951 299.722 164.163 299.722 166.002V174.702C299.722 176.542 299.561 177.64 299.217 178.022C298.966 178.268 298.577 178.447 298.05 178.582C297.547 178.74 296.541 178.852 295.145 179.007V183.987H295.099ZM272.339 165.844C272.498 164.095 273.095 162.794 274.215 161.986C275.313 161.179 276.709 160.777 278.356 160.777C279.934 160.777 281.146 161.157 281.993 161.92C282.815 162.704 283.227 163.736 283.227 164.97V165.599L272.339 165.844ZM263.282 170.218C263.282 174.658 264.63 178.156 267.376 180.825C270.098 183.47 273.666 184.794 278.126 184.794C280.895 184.794 283.548 184.367 286.019 183.539C288.511 182.73 290.617 181.563 292.4 180.173L289.747 175.106C286.156 176.878 282.84 177.752 279.729 177.752C277.395 177.752 275.588 177.191 274.261 176.003C272.933 174.837 272.248 173.447 272.248 171.786V171.295H287.575C289.084 171.295 290.159 170.979 290.731 170.353C291.325 169.724 291.601 168.512 291.601 166.74C291.601 164.97 291.348 163.377 290.868 161.897C290.41 160.462 289.656 159.16 288.695 158.017C287.689 156.874 286.363 155.955 284.691 155.326C283 154.722 281.055 154.386 278.859 154.386C274.215 154.386 270.465 155.776 267.581 158.534C264.723 161.337 263.282 165.217 263.282 170.218ZM245.027 144.63C245.027 146.043 245.484 147.232 246.4 148.218C247.29 149.205 248.481 149.699 249.991 149.699C251.615 149.699 252.895 149.205 253.856 148.218C254.817 147.232 255.274 145.997 255.274 144.518C255.274 143.038 254.885 141.827 254.04 140.93C253.193 140.034 251.913 139.585 250.151 139.585C248.641 139.585 247.384 140.055 246.445 140.997C245.507 141.939 245.027 143.15 245.027 144.63ZM242.007 183.987C243.883 183.898 246.926 183.875 251.134 183.875C253.398 183.875 256.35 183.898 259.964 183.987V179.053C257.654 178.875 256.327 178.582 256.008 178.133C255.618 177.685 255.412 176.542 255.412 174.702C255.412 172.953 255.436 170.33 255.55 166.831C255.641 163.377 255.664 160.932 255.664 159.565C255.664 157.727 255.297 156.426 254.543 155.753C253.765 155.058 252.736 154.699 251.41 154.699C248.274 154.699 245.142 155.461 242.029 156.986V161.808C242.373 161.785 242.9 161.742 243.608 161.742C244.935 161.742 245.76 161.986 246.101 162.481C246.445 162.997 246.627 164.207 246.627 166.047V174.747C246.627 176.586 246.468 177.685 246.124 178.065C245.873 178.312 245.484 178.493 244.958 178.627C244.455 178.783 243.448 178.895 242.052 179.053V183.987H242.007ZM213.253 177.999C213.253 179.366 213.551 180.555 214.145 181.563C214.717 182.551 215.769 183.292 217.327 183.807C219.27 184.479 221.809 184.794 225.011 184.794C228.946 184.794 232.171 184.01 234.687 182.394C237.204 180.802 238.461 178.515 238.461 175.532C238.461 173.424 237.935 171.72 236.86 170.465C235.785 169.209 233.704 168.021 230.593 166.921L224.76 164.813C223.89 164.499 223.296 164.207 222.952 163.871C222.61 163.58 222.449 163.153 222.449 162.638C222.449 161.248 223.617 160.553 225.949 160.553C228.031 160.553 229.495 160.821 230.365 161.404C230.82 161.696 231.164 162.099 231.439 162.57C231.691 163.063 231.897 163.871 232.057 164.97H236.723C237.067 163.086 237.226 161.269 237.226 159.499C237.226 157.727 236.516 156.449 235.077 155.73C233.2 154.834 230.593 154.363 227.208 154.363C222.884 154.363 219.545 155.237 217.256 156.963C214.924 158.691 213.756 160.889 213.756 163.512C213.756 164.522 213.849 165.395 214.054 166.136C214.238 166.875 214.603 167.616 215.152 168.356C215.678 169.118 216.48 169.77 217.554 170.419C218.584 171.048 219.955 171.674 221.603 172.28L227.39 174.389C228.215 174.658 228.786 174.972 229.106 175.264C229.426 175.6 229.563 176.003 229.563 176.586C229.563 177.932 228.215 178.627 225.491 178.627C223.066 178.627 221.283 178.133 220.139 177.146C219.133 176.339 218.493 174.972 218.194 173.021H213.46C213.346 174.007 213.253 175.667 213.253 177.999ZM355.673 121.376V110.074C358.141 109.827 360.567 109.669 362.946 109.31C366.308 108.839 367.453 107.607 367.544 104.152C367.681 99.0847 367.658 94.016 367.658 88.9262C367.658 74.0799 367.658 59.2336 367.567 44.3668C367.544 39.051 366.331 37.9303 361.002 37.6172C359.241 37.5051 357.502 37.3474 355.673 37.2125V26.1571C356.199 26.1115 356.747 25.9789 357.296 25.9994C372.416 26.1343 387.56 25.9994 402.657 26.5618C409.657 26.8293 416.793 27.8397 423.565 29.6554C436.9 33.243 445.066 42.4372 448.109 56.0051C451.129 69.4382 450.992 82.8712 445.754 95.7651C441.133 107.179 432.349 114.199 420.796 117.743C412.47 120.299 403.892 121.173 395.267 121.284C382.573 121.442 369.899 121.353 357.205 121.353C356.77 121.376 356.335 121.376 355.673 121.376ZM389.23 42.1924C389.161 42.6842 389.07 42.954 389.07 43.2461C389.07 62.1718 389.047 81.1221 389.093 100.048C389.093 103.637 390.373 105.229 394.078 105.565C398.013 105.924 402.04 106.059 405.95 105.611C414.964 104.602 421.643 100.004 424.549 91.0778C428.07 80.2028 428.141 69.0795 425.121 58.0696C422.971 50.2203 417.731 45.4209 409.863 43.5824C403.115 42.0119 396.276 41.9892 389.23 42.1924ZM208.406 122.272V111.014C210.51 110.767 212.546 110.543 214.582 110.298C219.408 109.692 220.301 108.816 220.324 103.951C220.392 87.2432 220.369 70.5151 220.369 53.808C220.369 50.6018 220.369 47.3943 220.278 44.1863C220.187 41.2276 219.385 40.1507 216.527 39.5446C213.872 38.9845 211.173 38.6481 208.406 38.1773V27.1447C209.069 27.1219 209.64 27.0535 210.212 27.0535C231.533 27.0535 252.851 27.0326 274.172 27.0991C276.276 27.0991 278.449 27.4127 280.462 28.0411C283.527 28.9831 285.058 31.1807 284.899 34.4548C284.6 40.688 284.097 46.9458 283.664 53.4716C279.775 53.4716 276.092 53.5154 272.432 53.4033C271.997 53.3823 271.403 52.5524 271.219 51.9695C270.649 50.0627 270.305 48.0665 269.711 46.1387C269.023 43.9188 267.583 42.2813 265.158 42.1696C257.449 41.8333 249.74 41.6301 241.895 41.383V67.1061C245.967 66.8363 249.923 66.7698 253.835 66.299C256.625 65.9626 257.632 63.5413 258.41 61.1177C259.736 56.8806 259.759 56.8806 264.243 56.8806H269.87V90.8098C266.782 90.8098 263.762 90.8536 260.765 90.7414C260.376 90.7187 259.804 89.9571 259.69 89.4635C257.816 81.5249 257.014 80.8295 248.962 80.7634C246.698 80.7406 244.411 80.7634 242.008 80.7634C241.916 81.3235 241.802 81.7487 241.802 82.1762C241.802 88.7457 241.733 95.3167 241.826 101.865C241.895 106.484 242.854 107.831 247.292 107.943C253.904 108.121 260.56 108.009 267.146 107.561C272.202 107.225 275.771 104.467 277.281 99.309C277.83 97.4705 278.15 95.0035 279.431 94.1053C280.735 93.1861 283.138 93.8373 285.035 93.8145C286.638 93.7917 288.262 93.8145 290.273 93.8145C289.886 99.0392 289.565 104.063 289.062 109.063C288.834 111.352 288.306 113.616 287.895 115.882C287.415 118.392 285.86 120.096 283.548 120.793C281.034 121.554 278.402 122.361 275.817 122.361C253.674 122.496 231.553 122.451 209.413 122.451C209.137 122.384 208.862 122.339 208.406 122.272ZM703.279 57.8226C702.941 51.2512 702.755 45.0846 702.228 38.9617C702.002 36.4947 700.309 35.3513 697.747 35.1498C696.284 35.0377 694.816 35.127 693.008 35.127C693.008 31.8302 692.941 28.5124 693.078 25.1923C693.103 24.7215 693.921 24.1176 694.499 23.825C700.51 20.9552 706.851 19.4741 713.483 19.341C719.384 19.2288 722.469 22.188 722.725 28.2198C722.841 30.9793 722.771 33.737 722.746 36.4947C722.654 57.5966 722.584 78.7217 722.493 99.8235C722.493 100.498 722.493 101.17 722.493 101.842C722.52 108.526 724.141 110.028 730.709 109.445C731.277 109.4 731.85 109.445 732.65 109.445C732.65 113.056 732.699 116.531 732.604 120.007C732.583 120.5 731.985 121.241 731.533 121.376C726.202 122.922 720.78 123.976 715.198 123.505C710.329 123.102 706.87 120.836 705.862 116.307C702.002 118.438 698.388 121.264 694.313 122.519C678.505 127.431 657.787 120.793 654.972 97.0658C654.194 90.4511 654.743 83.9691 656.596 77.601C660.254 65.0644 670.159 56.9927 683.058 55.6027C689.76 54.9282 696.284 55.2873 703.279 57.8226ZM702.982 89.0379V79.6409C702.982 71.7041 703.007 71.5464 695.112 70.65C685.531 69.573 677.66 73.25 675.605 83.8798C674.435 89.9571 674.64 95.9893 677.911 101.417C682.49 109.018 693.973 110.97 701.564 105.542C702.299 105.028 702.91 103.793 702.941 102.897C703.053 98.2776 702.982 93.6568 702.982 89.0379ZM651.632 109.377C651.632 113.145 651.677 116.712 651.58 120.254C651.58 120.658 651.013 121.307 650.576 121.419C645.245 123.013 639.822 123.999 634.244 123.505C629.506 123.08 625.983 120.928 624.572 115.836C623.286 116.867 622.209 117.855 621.018 118.662C612.512 124.538 603.453 125.636 593.979 121.442C586.593 118.168 582.82 111.261 583.302 102.583C583.739 94.3974 587.668 89.3077 595.677 86.5044C603.34 83.836 611.3 83.7239 619.26 83.7904C620.2 83.7904 621.159 83.7904 622.095 83.7904C623.833 75.7625 621.571 70.9175 615.532 69.7079C606.497 67.9132 602.402 70.7831 600.913 80.0907H589.659C588.88 75.4038 587.9 70.6937 588.627 65.8505C589.207 62.0825 591.674 59.7276 594.99 58.4493C605.834 54.3471 616.994 53.561 628.23 56.387C636.782 58.5386 641.083 64.033 641.38 73.1834C641.676 82.1306 641.45 91.0778 641.496 100.027C641.496 101.797 641.587 103.614 641.883 105.364C642.411 108.549 644.059 109.804 647.279 109.646C648.652 109.623 650.029 109.491 651.632 109.377ZM622.392 96.101C617.385 95.6302 612.698 95.4288 608.1 96.7755C604.552 97.8068 602.814 100.048 603.02 103.098C603.246 106.731 605.422 109.31 608.989 109.758C613.22 110.298 617.36 109.623 621.201 107.696C621.727 107.426 622.351 106.665 622.351 106.125C622.441 102.874 622.392 99.5997 622.392 96.101ZM488.461 123.438C482.65 123.26 477 122.474 471.648 120.096C463.663 116.577 458.38 110.588 455.795 102.247C452.866 92.8497 452.775 83.3862 456.505 74.2376C461.422 62.128 471.008 56.0944 483.451 54.2787C490.017 53.3139 496.558 53.7186 502.918 55.646C513.233 58.7856 519.756 65.6929 522.409 76.2337C524.398 84.1951 524.398 92.223 522.041 100.071C518.127 113.168 509.028 120.366 495.94 122.721C493.47 123.148 490.953 123.214 488.461 123.438ZM503.741 89.3742C503.421 86.2123 503.283 83.5206 502.848 80.8983C501.659 73.5859 497.314 69.573 490.267 69.0567C482.88 68.5399 477.641 71.8595 475.444 78.7217C473.431 85.0004 473.706 91.3931 475.353 97.6947C477.184 104.735 481.484 108.009 488.644 108.055C495.986 108.1 500.47 104.938 502.392 97.9395C503.169 95.0473 503.351 91.9533 503.741 89.3742ZM769.658 124.447C763.784 124.291 758.065 123.461 752.648 121.061C745.001 117.654 739.789 111.935 737.136 103.973C734.046 94.7338 733.841 85.3158 737.273 76.1426C741.987 63.5413 751.684 57.1941 764.492 55.2873C771.06 54.3015 777.578 54.704 783.959 56.6336C794.371 59.7732 800.913 66.7242 803.567 77.3768C805.506 85.2702 805.506 93.2088 803.2 101.013C799.31 114.11 790.226 121.353 777.141 123.729C774.674 124.156 772.155 124.223 769.658 124.447ZM784.875 90.4949C784.527 87.1998 784.392 84.5082 783.959 81.8608C782.768 74.64 778.537 70.671 771.563 70.0876C764.177 69.4609 758.749 72.8471 756.557 79.7986C754.542 86.1457 754.84 92.6027 756.557 98.9726C758.361 105.745 762.639 108.974 769.593 109.063C776.888 109.175 781.467 106.105 783.387 99.3527C784.256 96.3252 784.462 93.0739 784.875 90.4949ZM334.857 111.395V122.339H295.627V111.352C297.8 110.993 299.904 110.678 301.988 110.252C304.046 109.827 305.167 108.526 305.235 106.351C305.258 105.453 305.327 104.556 305.327 103.658C305.304 83.8798 305.281 64.1242 305.235 44.344C305.235 43.2233 305.098 42.1008 304.937 41.0034C304.206 36.0691 302.878 34.9716 297.936 35.0833C297.205 35.1043 296.474 35.1726 295.422 35.2164C295.422 31.8758 295.377 28.5579 295.468 25.2151C295.491 24.7671 296.176 24.1609 296.679 23.9372C302.742 21.2688 308.986 19.4303 315.666 19.341C321.933 19.2498 324.907 22.0303 325.113 28.423C325.251 32.6601 325.16 36.9217 325.16 41.182C325.135 61.0288 325.113 80.875 325.135 100.722C325.135 102.874 325.365 105.028 325.638 107.156C325.868 108.885 326.92 109.982 328.635 110.319C330.649 110.7 332.684 111.014 334.857 111.395ZM557.684 64.1452C561.408 59.7276 565.643 56.5652 571.06 55.5343C572.849 55.198 574.75 55.1087 576.552 55.3329C580.744 55.8474 583.281 58.5614 583.232 62.8668C583.165 67.8904 582.567 72.9137 582.206 77.9829H570.311C570.082 77.0409 569.899 76.1882 569.648 75.3355C568.549 71.6358 566.654 70.5588 562.986 71.5236C562.483 71.6585 562.006 71.8162 561.524 71.9944C558.096 73.3183 557.769 73.7663 557.794 77.4661C557.866 86.5709 557.845 95.653 558.066 104.735C558.181 109.198 559.423 110.23 563.839 110.746C565.598 110.947 567.358 111.126 569.258 111.329V122.295H528.242V111.352C530.047 111.037 531.921 110.79 533.774 110.41C537.212 109.715 538.031 108.839 538.128 105.318C538.262 98.9726 538.262 92.6483 538.243 86.3011C538.243 83.0271 538.308 79.732 537.917 76.4803C537.484 72.8243 536.338 71.9716 532.699 71.7479C531.237 71.6585 529.775 71.7251 528.062 71.7251C528.062 68.2263 528.012 64.9085 528.126 61.5661C528.147 61.0743 528.886 60.4016 529.454 60.1323C535.378 57.3062 541.575 55.6232 548.191 55.5571C553.61 55.5115 556.147 57.5756 557.271 62.9561C557.338 63.2715 557.479 63.5185 557.684 64.1452Z" fill="white"/>
<path fill-rule="evenodd" clip-rule="evenodd" d="M140.215 82.6908C140.925 86.3696 140.376 93.1196 138.545 96.6617C137.744 98.12 135.457 102.067 134.2 103.054C130.654 105.858 126.787 108.57 122.647 110.207L116.678 112.562C115.077 112.987 113.018 113.728 111.37 113.952C108.327 114.4 105.514 114.805 102.54 114.871C99.1331 114.871 96.6622 114.356 93.4372 113.213C91.2396 111.732 89.3882 110.611 88.4042 108.144C87.8785 106.8 87.7168 105.789 87.3751 104.332C87.3067 103.279 87.5118 102 87.7869 101.081C88.0607 100.295 88.3341 99.5333 88.7008 98.8611C89.181 98.0079 89.7982 97.1552 90.784 96.7528C91.8341 96.3253 92.9794 95.9229 94.1001 96.1471L94.9698 96.2816C96.9811 96.6845 97.3934 99.0393 97.8056 99.2863C115.487 109.333 138.705 79.8876 114.412 74.7085C109.06 73.5427 98.6753 75.2918 93.5967 78.23C91.538 79.4168 89.2721 80.6058 87.4206 82.1991C70.8118 96.3026 56.1728 122.675 88.8165 129.694C94.3962 130.547 100.071 130.996 105.56 130.076C110.821 129.224 114.71 126.511 119.17 123.708C120.841 122.631 122.67 121.376 124.18 120.366C128.869 117.07 133.376 112.921 137.63 109.221C139.827 107.314 141.335 105.654 143.12 103.345C143.555 102.874 143.968 102.135 144.378 101.484C146.254 98.6806 147.078 94.352 150.189 93.0968C152.178 92.2897 153.94 91.7291 155.792 92.132C156.389 92.2669 157.074 92.2441 157.577 92.58C158.126 92.9391 158.814 93.0968 159.178 93.6132C159.636 94.2859 160.276 94.8688 160.552 95.6093C161.1 97.2673 161.306 99.9813 160.23 101.685C158.882 103.793 157.554 105.924 156.159 108.078C154.97 110.207 152.385 113.886 152.134 116.284C152.111 116.51 152.093 116.738 152.077 116.968C161.849 118.559 173.043 128.207 180.406 131.601C182.052 132.363 183.471 133.417 185.027 134.292L187.725 135.749C190.654 137.139 193.56 138.754 193.011 142.702C192.872 143.688 192.096 144.607 191.294 145.124C189.488 146.201 186.056 145.931 184.318 145.146C171.772 139.342 157.412 140.174 145.73 132.278C143.571 134.807 141.445 137.255 138.73 139.181C136.87 140.518 135.043 141.908 133.184 143.253C133.237 143.45 133.287 143.648 133.33 143.845C134.246 147.746 134.772 151.716 135.48 155.664C135.869 157.951 136.646 160.237 137.197 162.593C137.744 165.732 138.065 168.737 138.5 171.944C138.568 172.594 138.065 173.177 137.814 173.783C137.104 175.845 136.99 175.689 137.814 178.426C138.889 181.968 139.711 183.336 139.026 187.058C138.591 189.594 137.676 189.301 134.658 190.243C132.759 190.849 130.654 189.84 129.121 188.919C128.413 188.471 127.908 187.776 127.291 187.17C125.53 185.489 125.576 182.528 124.728 180.219C124.41 179.323 123.38 178.964 122.717 178.335L122.166 177.933L121.137 176.81L119.536 174.165C118.393 172.28 118.211 169.994 117.568 167.909C116.425 164.365 116.289 160.553 115.692 156.92C115.44 155.336 115.43 153.723 115.482 152.109C111.696 153.11 108.266 153.722 104.141 153.915C102.417 153.987 100.698 154.073 98.9808 154.145C98.8843 154.346 98.7834 154.546 98.6999 154.745C98.1965 156.135 97.6252 157.525 97.1446 158.916C96.5956 160.462 95.6576 161.808 94.9014 163.244C94.1247 164.767 94.0108 165.172 93.1411 166.719C90.4423 171.407 82.8928 183.829 82.116 189.235C81.1325 196.119 72.3256 206.502 66.4229 197.487C63.7469 193.451 67.4069 184.277 69.5339 181.003C70.2651 179.86 70.7475 178.246 71.2942 176.766C71.8449 175.376 71.8449 173.918 72.1643 172.482C73.3779 166.944 74.7036 161.36 76.1678 155.866C76.635 153.938 77.7025 152.326 78.8134 150.808C76.9807 149.934 75.0435 149.195 73.2372 148.329C70.7435 147.165 67.908 146.222 65.8493 144.406L62.372 141.289C62.0755 142.702 62.1438 144.472 61.8231 145.124C61.1147 146.448 60.4746 147.725 59.6277 148.78C58.1631 150.506 55.6238 152.21 53.6107 153.152C50.5229 154.699 46.4966 158.198 43.9346 159.14C39.1539 160.844 36.1116 163.4 30.7597 164.611C26.7334 165.553 17.6969 167.302 14.8159 170.284C13.1919 171.921 8.20438 173.76 6.35116 172.863C5.02545 172.214 3.49249 171.72 2.96677 170.419C2.02832 167.93 0.129096 164.365 1.41103 161.874C2.09666 160.553 2.55449 159.588 3.67518 158.579C4.93433 157.457 6.42128 156.403 7.90645 155.753C9.18838 155.148 10.5842 154.498 11.591 153.936C12.8251 153.241 13.8091 152.882 14.656 151.851C15.6155 150.664 16.6901 149.362 17.4691 148.106C21.5409 141.536 27.6259 139.001 33.8703 134.45C35.5171 133.35 37.8514 132.431 39.794 131.533C41.4882 130.771 43.0207 130.188 44.622 129.359C45.6283 128.821 48.9444 127.856 50.1106 128.057L52.536 128.485C52.0326 127.049 51.4153 125.703 51.1174 124.246C49.8145 118.123 50.6368 111.441 52.8795 105.499C46.6579 106.418 20.8325 110.14 14.9298 108.009C13.8319 107.584 12.2994 107.291 11.2698 106.8C6.99302 104.735 4.29202 99.1286 5.32159 94.2403C5.48284 93.5015 5.66553 92.8498 5.94067 92.2004C6.42129 91.19 7.03858 90.227 7.76977 89.3515C8.50275 88.59 9.3934 88.1853 10.4002 87.9387C12.734 87.4237 16.0956 86.7725 17.3776 86.5483C18.7966 86.3013 20.9009 86.1458 21.6548 86.1458C23.0507 86.123 24.4693 86.123 25.8633 86.0775C28.5393 86.0337 31.7888 85.7639 34.0757 85.876C39.9784 86.1003 44.6675 86.2807 50.9119 85.8305C52.3082 85.7411 57.9809 85.7184 59.2154 86.4589C59.4888 86.6376 59.81 86.7287 60.0168 86.9739L61.2058 88.2081C61.0919 85.7867 63.1961 82.0642 64.5218 80.2257C64.8886 79.7531 65.4826 79.0143 66.0771 78.4765L69.0287 75.6943C69.7389 75.0448 71.133 73.9451 71.9571 73.0942C72.9183 72.2188 74.0157 71.2995 75.0453 70.5152C75.5259 70.1788 76.555 69.5276 77.1495 69.3489L78.8648 68.8326C78.1563 68.2037 77.0357 68.0027 76.4394 67.1956C75.8221 66.3884 75.4348 67.4193 74.6103 67.6663C73.6495 68.0027 72.6655 68.272 71.6819 68.4069C70.9507 68.4962 69.6004 68.3841 68.9604 67.9361C66.1227 65.8279 62.0053 64.5499 59.7188 62.5766C58.6209 61.6118 56.8356 60.1552 55.8766 59.2337C52.6727 56.0508 53.6562 52.5069 52.8339 48.4941C51.7365 43.0657 57.7968 39.4326 62.0053 38.7603C73.8773 36.7642 83.1188 65.4236 85.8649 63.7884L87.5345 62.8236C88.3814 62.3523 89.2265 61.7922 90.2105 61.5224C91.354 61.2299 92.4992 60.8046 93.6423 60.5576C97.53 59.7733 101.488 58.406 105.423 57.912C109.678 57.3725 116.083 56.8807 120.338 58.2256C121.321 58.5387 122.098 58.6508 122.831 59.3021C123.241 59.705 123.745 60.7591 124.088 60.3106C124.913 59.0783 125.872 57.665 126.764 56.522C127.336 55.8038 127.931 55.086 128.504 54.5486C129.326 53.7625 130.151 52.9116 130.973 52.1045C132.506 50.6457 134.496 48.9193 136.12 47.5954C139.324 44.8837 142.503 42.2814 145.958 39.9266C147.398 38.9618 148.725 38.0425 150.212 37.0777C154.878 34.1186 153.369 35.5318 158.172 33.7143C162.405 32.1456 166.224 29.969 170.205 28.2655C171.668 27.637 173.91 26.3586 175.946 26.6056C179.902 27.0099 183.334 30.8217 179.308 35.7333C178.713 36.5176 178.096 37.3037 177.295 37.8183C169.793 42.842 171.462 42.1697 165.698 48.8527C160.048 55.3558 145.819 63.674 138.295 67.0379L134.359 68.787C134.908 69.9551 135.457 71.1874 136.052 72.3537C137.425 74.9783 139.643 79.8442 140.215 82.6908ZM112.63 2.13994C113.43 1.57982 113.706 1.35559 115.352 0.816021C116.268 0.525688 116.839 0.345234 117.8 0.212127C118.577 0.0544538 119.264 -0.0576557 119.996 0.0316775C120.567 0.0772375 121.253 0.189348 121.735 0.436354L122.856 0.928134L124.113 1.8036C125.006 3.46386 125.76 5.12189 125.967 6.75892C126.653 12.3883 125.899 19.6546 124.594 25.2379L123.451 29.0954C122.649 32.3922 120.752 35.8682 119.629 38.9846L118.989 40.8458C118.326 43.1551 117.732 44.7488 117.342 46.5873L116.999 48.2471C116.862 48.83 116.404 49.4133 116.106 49.8385C115.787 50.2865 115.466 50.6912 115.284 51.0048C114.917 51.6542 114.735 52.0129 113.865 52.4404C113.476 52.6874 113.088 52.866 112.676 53.0465C112.469 53.1792 111.51 53.4034 111.005 53.4489C110.046 53.5838 109.199 53.7187 108.284 53.4945C107.186 53.2247 106.705 52.3948 106.156 51.6332C105.653 50.961 104.715 49.6599 104.578 48.8072L104.097 45.5331C103.548 42.1697 105.036 39.5902 104.35 36.2934C103.847 33.7827 105.493 26.9871 105.699 24.3415C106.019 19.945 107.964 7.83583 110.914 3.93465C111.371 3.30619 112.036 2.54462 112.63 2.13994Z" fill="white"/>
</svg>
