<svg width="435" height="300" viewBox="0 0 435 300" fill="none" xmlns="http://www.w3.org/2000/svg">
<path d="M60.319 47.8224C60.789 47.2224 61.839 47.5489 61.759 48.2724C61.419 51.3783 61.739 55.6048 61.749 57.1401C61.779 61.8166 62.339 66.5989 64.139 71.0283C69.009 83.0107 81.889 85.7019 94.989 83.0901C138.059 74.5136 158.889 10.1548 201.269 1.57835C243.639 -6.99812 282.539 21.8019 290.879 29.7695C296.569 35.2136 301.299 41.3989 306.759 47.0195C309.219 49.5519 311.789 52.1548 314.849 54.1313C321.199 58.2254 333.399 55.5342 340.429 53.9195C346.309 52.5695 352.439 49.6048 346.069 43.8695C341.639 39.8901 339.559 38.7254 336.409 36.2372C334.359 34.6225 329.009 31.0666 325.279 28.4813C324.239 27.7666 324.829 26.3019 326.139 26.3019C337.199 26.3283 348.519 31.1019 357.239 36.5901C366.679 42.5283 375.509 49.9754 381.819 58.6136C383.519 60.9342 389.929 69.8989 383.959 71.4519C368.119 72.2725 351.479 73.0401 336.519 78.1401C327.329 81.2725 320.639 88.8519 315.829 96.1313C306.179 110.743 304.649 130.587 283.479 139.119C282.729 139.419 282.019 138.67 282.499 138.078C286.959 132.617 296.679 116.54 284.479 90.6872C280.979 83.2842 247.679 59.0107 251.299 77.5754C251.499 78.5989 253.849 91.5872 253.949 92.5577C255.049 103.755 254.429 115.19 251.249 126.105C247.349 139.508 239.289 151.764 227.069 160.57C213.339 170.461 196.109 174.952 178.789 177.122C177.889 177.237 177.519 176.143 178.349 175.799C180.999 174.687 183.539 173.337 186.019 172.084C191.049 169.534 195.679 166.34 199.569 162.537C206.979 155.302 211.189 146.117 212.189 136.437C213.029 128.284 212.729 119.699 208.879 112.12C204.519 103.517 196.179 98.893 186.099 96.4225C175.409 93.8107 163.989 94.3313 153.209 96.193C145.429 97.5342 137.849 99.6695 130.559 102.422C123.279 105.175 115.839 107.637 108.109 109.199C97.579 111.325 86.389 111.696 76.079 108.837C64.669 105.67 53.459 97.5871 50.259 87.0871C47.699 78.6871 49.309 69.6872 52.699 61.6666C54.609 57.1313 57.089 52.0136 60.359 47.8401L60.319 47.8224Z" fill="white"/>
<path d="M9.6 279.248C8.96 279.248 8.384 279.024 7.872 278.576C7.424 278.128 7.2 277.584 7.2 276.944V211.856C7.2 211.152 7.424 210.576 7.872 210.128C8.384 209.616 8.96 209.36 9.6 209.36C10.304 209.36 10.88 209.616 11.328 210.128C11.776 210.576 12 211.152 12 211.856V247.472L46.752 210.32C47.2 209.808 47.744 209.552 48.384 209.552C49.024 209.488 49.568 209.712 50.016 210.224C50.528 210.672 50.784 211.216 50.784 211.856C50.848 212.496 50.624 213.072 50.112 213.584L27.648 237.776L52.032 275.6C52.416 276.112 52.512 276.72 52.32 277.424C52.192 278.064 51.872 278.544 51.36 278.864C50.784 279.248 50.144 279.344 49.44 279.152C48.8 279.024 48.32 278.704 48 278.192L24.288 241.424L12 254.576V276.944C12 277.584 11.776 278.128 11.328 278.576C10.88 279.024 10.304 279.248 9.6 279.248ZM88.857 279.344C88.217 279.344 87.673 279.12 87.225 278.672C86.777 278.288 86.553 277.776 86.553 277.136V276.368L74.745 278.672C71.801 279.248 69.305 279.408 67.257 279.152C65.209 278.896 63.481 278.256 62.073 277.232C61.049 276.4 60.217 275.376 59.577 274.16C59.001 272.88 58.649 271.44 58.521 269.84C58.137 266.128 58.937 263.088 60.921 260.72C62.969 258.288 66.105 256.72 70.329 256.016L86.553 253.232V250.544C86.553 249.264 86.329 247.92 85.881 246.512C85.497 245.04 84.665 243.952 83.385 243.248C82.361 242.608 81.049 242.288 79.449 242.288C75.481 242.288 70.585 244.08 64.761 247.664C64.185 247.984 63.609 248.08 63.033 247.952C62.457 247.76 62.009 247.408 61.689 246.896C61.305 246.32 61.177 245.744 61.305 245.168C61.497 244.528 61.849 244.08 62.361 243.824C66.137 241.52 69.433 239.952 72.249 239.12C75.065 238.224 77.465 237.776 79.449 237.776C80.793 237.776 81.945 237.936 82.905 238.256C83.929 238.512 84.793 238.832 85.497 239.216C87.353 240.24 88.761 241.744 89.721 243.728C90.681 245.648 91.161 247.92 91.161 250.544V277.136C91.161 277.776 90.937 278.288 90.489 278.672C90.105 279.12 89.561 279.344 88.857 279.344ZM73.977 274.064L86.553 271.76V257.84L71.193 260.432C68.569 260.88 66.649 261.616 65.433 262.64C64.281 263.664 63.577 264.784 63.321 266C63.065 267.152 62.969 268.272 63.033 269.36C63.225 271.344 63.833 272.72 64.857 273.488C66.393 274.64 69.433 274.832 73.977 274.064ZM102.461 279.248C101.821 279.248 101.277 279.024 100.829 278.576C100.445 278.192 100.253 277.68 100.253 277.04V239.792C100.253 239.152 100.445 238.608 100.829 238.16C101.277 237.712 101.821 237.488 102.461 237.488C103.101 237.488 103.645 237.712 104.093 238.16C104.541 238.608 104.765 239.152 104.765 239.792V242.96C106.237 241.296 107.997 239.984 110.045 239.024C112.093 238.064 114.301 237.584 116.669 237.584C121.085 237.584 124.541 239.056 127.037 242C129.597 244.88 130.877 248.816 130.877 253.808V276.848C130.877 277.488 130.653 278.032 130.205 278.48C129.821 278.928 129.309 279.152 128.669 279.152C128.029 279.152 127.485 278.928 127.037 278.48C126.589 278.032 126.365 277.488 126.365 276.848V253.808C126.365 252.336 126.141 250.704 125.693 248.912C125.245 247.12 124.317 245.584 122.909 244.304C121.565 242.96 119.485 242.288 116.669 242.288C112.957 242.288 110.045 243.312 107.933 245.36C105.821 247.408 104.765 250.32 104.765 254.096V277.04C104.765 277.68 104.541 278.192 104.093 278.576C103.645 279.024 103.101 279.248 102.461 279.248ZM158.969 299.312C155.577 299.312 152.633 298.384 150.137 296.528C147.705 294.736 145.977 292.176 144.953 288.848C144.761 288.272 144.793 287.696 145.049 287.12C145.305 286.608 145.753 286.256 146.393 286.064C147.033 285.808 147.609 285.84 148.121 286.16C148.697 286.48 149.081 286.928 149.273 287.504C150.745 292.304 153.977 294.704 158.969 294.704C162.233 294.704 164.793 293.52 166.649 291.152C168.569 288.784 169.529 285.552 169.529 281.456V268.592C166.713 271.6 162.745 273.104 157.625 273.104C152.441 273.104 148.345 271.504 145.337 268.304C142.329 265.104 140.825 260.784 140.825 255.344C140.825 249.904 142.329 245.616 145.337 242.48C148.345 239.28 152.441 237.68 157.625 237.68C162.809 237.68 166.777 239.216 169.529 242.288V239.888C169.529 239.248 169.753 238.704 170.201 238.256C170.649 237.744 171.193 237.488 171.833 237.488C172.473 237.488 172.985 237.744 173.369 238.256C173.817 238.704 174.041 239.248 174.041 239.888V281.456C174.041 286.704 172.665 290.992 169.913 294.32C167.161 297.648 163.513 299.312 158.969 299.312ZM157.625 268.592C161.401 268.592 164.345 267.504 166.457 265.328C168.569 263.088 169.625 259.76 169.625 255.344C169.625 250.992 168.569 247.728 166.457 245.552C164.345 243.376 161.401 242.288 157.625 242.288C153.721 242.288 150.681 243.44 148.505 245.744C146.393 247.984 145.337 251.184 145.337 255.344C145.337 259.568 146.393 262.832 148.505 265.136C150.681 267.44 153.721 268.592 157.625 268.592ZM199.211 279.248C194.795 279.248 191.307 277.808 188.747 274.928C186.251 272.048 185.003 268.08 185.003 263.024V240.08C185.003 239.44 185.195 238.896 185.579 238.448C186.027 238 186.571 237.776 187.211 237.776C187.851 237.776 188.395 238 188.843 238.448C189.291 238.896 189.515 239.44 189.515 240.08V263.024C189.515 264.496 189.739 266.16 190.187 268.016C190.635 269.808 191.531 271.376 192.875 272.72C194.283 274.064 196.395 274.736 199.211 274.736C202.987 274.736 205.899 273.712 207.947 271.664C210.059 269.616 211.115 266.672 211.115 262.832V239.984C211.115 239.344 211.339 238.8 211.787 238.352C212.235 237.84 212.779 237.584 213.419 237.584C214.059 237.584 214.571 237.84 214.955 238.352C215.403 238.8 215.627 239.344 215.627 239.984V277.04C215.627 277.68 215.403 278.192 214.955 278.576C214.571 279.024 214.059 279.248 213.419 279.248C212.779 279.248 212.235 279.024 211.787 278.576C211.339 278.192 211.115 277.68 211.115 277.04V274.064C209.643 275.664 207.883 276.944 205.835 277.904C203.851 278.8 201.643 279.248 199.211 279.248ZM228.839 279.248C228.199 279.248 227.655 279.024 227.207 278.576C226.759 278.128 226.535 277.616 226.535 277.04V239.984C226.535 239.344 226.759 238.8 227.207 238.352C227.655 237.904 228.199 237.68 228.839 237.68C229.479 237.68 229.991 237.904 230.375 238.352C230.823 238.8 231.047 239.344 231.047 239.984V242.384C232.007 241.232 233.351 240.24 235.079 239.408C236.807 238.512 238.471 237.936 240.071 237.68C242.311 237.36 244.583 237.552 246.887 238.256C249.191 238.896 251.239 240.016 253.031 241.616C254.887 243.216 256.167 245.328 256.871 247.952C257.063 248.528 256.999 249.104 256.679 249.68C256.359 250.192 255.911 250.544 255.335 250.736C254.695 250.864 254.087 250.768 253.511 250.448C252.999 250.128 252.679 249.68 252.551 249.104C252.039 247.248 251.143 245.776 249.863 244.688C248.583 243.6 247.111 242.864 245.447 242.48C243.847 242.096 242.279 242.032 240.743 242.288C237.991 242.608 235.687 243.632 233.831 245.36C231.975 247.088 231.047 249.84 231.047 253.616V277.04C231.047 277.616 230.823 278.128 230.375 278.576C229.991 279.024 229.479 279.248 228.839 279.248ZM282.611 279.248C277.171 279.248 272.883 277.392 269.747 273.68C266.611 269.904 265.043 264.816 265.043 258.416C265.043 251.952 266.611 246.864 269.747 243.152C272.883 239.44 277.171 237.584 282.611 237.584C287.987 237.584 292.243 239.44 295.379 243.152C298.579 246.864 300.179 251.952 300.179 258.416C300.179 264.816 298.579 269.904 295.379 273.68C292.243 277.392 287.987 279.248 282.611 279.248ZM282.611 274.64C286.771 274.64 289.971 273.232 292.211 270.416C294.451 267.6 295.571 263.6 295.571 258.416C295.571 253.296 294.451 249.328 292.211 246.512C289.971 243.696 286.771 242.288 282.611 242.288C278.515 242.288 275.315 243.696 273.011 246.512C270.707 249.328 269.555 253.296 269.555 258.416C269.555 263.6 270.707 267.6 273.011 270.416C275.315 273.232 278.515 274.64 282.611 274.64ZM353.219 279.248C349.123 279.248 345.603 278.704 342.659 277.616C339.715 276.528 336.931 274.8 334.307 272.432C333.859 271.92 333.603 271.344 333.539 270.704C333.539 270 333.763 269.424 334.211 268.976C334.659 268.464 335.203 268.208 335.843 268.208C336.547 268.144 337.123 268.368 337.571 268.88C339.811 270.864 342.083 272.304 344.387 273.2C346.755 274.032 349.699 274.448 353.219 274.448C355.779 274.448 358.211 273.872 360.515 272.72C362.819 271.568 364.707 269.84 366.179 267.536C367.715 265.168 368.483 262.16 368.483 258.512C368.483 252.56 366.723 248.112 363.203 245.168C359.683 242.16 354.883 241.2 348.803 242.288C347.651 242.416 346.787 242.032 346.211 241.136C346.019 240.624 345.923 240.208 345.923 239.888C345.923 239.312 346.115 238.8 346.499 238.352C351.299 232.592 355.075 228.048 357.827 224.72C360.643 221.392 362.627 219.024 363.779 217.616C364.995 216.144 365.603 215.408 365.603 215.408H337.955C337.315 215.408 336.739 215.184 336.227 214.736C335.779 214.288 335.555 213.744 335.555 213.104C335.555 212.4 335.779 211.824 336.227 211.376C336.739 210.864 337.315 210.608 337.955 210.608H370.691C371.779 210.608 372.483 211.088 372.803 212.048C372.995 212.304 373.091 212.656 373.091 213.104C373.091 213.616 372.931 214.096 372.611 214.544C368.003 220.048 364.323 224.464 361.571 227.792C358.819 231.12 356.803 233.52 355.523 234.992C354.307 236.464 353.699 237.2 353.699 237.2C358.819 237.328 363.011 238.768 366.275 241.52C370.947 245.424 373.283 251.088 373.283 258.512C373.283 262.544 372.419 266.128 370.691 269.264C369.027 272.4 366.691 274.864 363.683 276.656C360.675 278.384 357.187 279.248 353.219 279.248ZM387.413 278C386.773 278 386.197 277.776 385.685 277.328C385.237 276.816 385.013 276.24 385.013 275.6V213.2C385.013 212.56 385.237 212.016 385.685 211.568C386.197 211.056 386.773 210.8 387.413 210.8H406.997C411.093 210.8 414.805 211.824 418.133 213.872C421.461 215.856 424.117 218.512 426.101 221.84C428.149 225.168 429.173 228.88 429.173 232.976V255.728C429.173 259.824 428.149 263.568 426.101 266.96C424.117 270.288 421.461 272.976 418.133 275.024C414.805 277.008 411.093 278 406.997 278H387.413ZM389.812 273.2H406.997C410.197 273.2 413.109 272.432 415.733 270.896C418.357 269.296 420.437 267.184 421.973 264.56C423.573 261.872 424.373 258.928 424.373 255.728V232.976C424.373 229.776 423.573 226.864 421.973 224.24C420.437 221.616 418.357 219.536 415.733 218C413.109 216.4 410.197 215.6 406.997 215.6H389.812V273.2Z" fill="white"/>
</svg>
