<svg width="301" height="301" viewBox="0 0 301 301" fill="none" xmlns="http://www.w3.org/2000/svg">
<mask id="mask0_386_65" style="mask-type:luminance" maskUnits="userSpaceOnUse" x="0" y="0" width="301" height="301">
<path d="M0 0H300.318V300.318H0V0Z" fill="white"/>
</mask>
<g mask="url(#mask0_386_65)">
<mask id="mask1_386_65" style="mask-type:luminance" maskUnits="userSpaceOnUse" x="0" y="0" width="301" height="301">
<path d="M150.161 0L171.302 16.6823L196.562 7.34896L211.516 29.7448L238.422 28.6771L245.719 54.599L271.641 61.901L270.573 88.8073L292.969 103.76L283.641 129.021L300.318 150.161L283.641 171.302L292.969 196.562L270.573 211.516L271.641 238.422L245.719 245.724L238.422 271.641L211.516 270.573L196.562 292.969L171.302 283.641L150.161 300.318L129.021 283.641L103.76 292.969L88.8073 270.573L61.901 271.641L54.599 245.724L28.6771 238.422L29.7448 211.516L7.34896 196.562L16.6823 171.302L0 150.161L16.6823 129.021L7.34896 103.76L29.7448 88.8073L28.6771 61.901L54.599 54.599L61.901 28.6771L88.8073 29.7448L103.76 7.34896L129.021 16.6823L150.161 0Z" fill="white"/>
<path d="M150.161 0L171.302 16.6823L196.562 7.34896L211.516 29.7448L238.422 28.6771L245.719 54.599L271.641 61.901L270.573 88.8073L292.969 103.76L283.641 129.021L300.318 150.161L283.641 171.302L292.969 196.562L270.573 211.516L271.641 238.422L245.719 245.724L238.422 271.641L211.516 270.573L196.562 292.969L171.302 283.641L150.161 300.318L129.021 283.641L103.76 292.969L88.8073 270.573L61.901 271.641L54.599 245.724L28.6771 238.422L29.7448 211.516L7.34896 196.562L16.6823 171.302L0 150.161L16.6823 129.021L7.34896 103.76L29.7448 88.8073L28.6771 61.901L54.599 54.599L61.901 28.6771L88.8073 29.7448L103.76 7.34896L129.021 16.6823L150.161 0Z" stroke="white"/>
</mask>
<g mask="url(#mask1_386_65)">
<path d="M0 0H300.318V300.318H0V0Z" fill="url(#paint0_linear_386_65)"/>
<path d="M0 0H300.318V300.318H0V0Z" stroke="#27272A"/>
</g>
</g>
<path d="M62.9901 137V99.1818H77.9105C80.7789 99.1818 83.2225 99.7296 85.2415 100.825C87.2604 101.909 88.7992 103.417 89.858 105.349C90.929 107.27 91.4645 109.486 91.4645 111.997C91.4645 114.509 90.9228 116.724 89.8395 118.645C88.7562 120.565 87.1866 122.061 85.1307 123.132C83.0871 124.203 80.6127 124.739 77.7074 124.739H68.1974V118.331H76.4148C77.9536 118.331 79.2216 118.066 80.2188 117.537C81.2282 116.995 81.9792 116.25 82.4716 115.303C82.9763 114.342 83.2287 113.241 83.2287 111.997C83.2287 110.741 82.9763 109.646 82.4716 108.71C81.9792 107.762 81.2282 107.03 80.2188 106.513C79.2093 105.983 77.929 105.719 76.3778 105.719H70.9858V137H62.9901ZM96.5103 137V108.636H104.137V113.585H104.432C104.949 111.825 105.817 110.495 107.036 109.597C108.255 108.686 109.658 108.23 111.246 108.23C111.64 108.23 112.065 108.255 112.52 108.304C112.976 108.353 113.376 108.421 113.721 108.507V115.487C113.351 115.376 112.84 115.278 112.188 115.192C111.535 115.106 110.938 115.062 110.397 115.062C109.239 115.062 108.205 115.315 107.294 115.82C106.396 116.312 105.682 117.001 105.152 117.888C104.635 118.774 104.377 119.796 104.377 120.953V137H96.5103ZM135.977 124.923V108.636H143.843V137H136.29V131.848H135.995C135.355 133.51 134.29 134.846 132.8 135.855C131.323 136.865 129.52 137.369 127.39 137.369C125.494 137.369 123.826 136.938 122.386 136.077C120.945 135.215 119.819 133.99 119.006 132.402C118.206 130.814 117.8 128.912 117.788 126.696V108.636H125.654V125.293C125.666 126.967 126.116 128.29 127.002 129.263C127.888 130.235 129.076 130.722 130.566 130.722C131.514 130.722 132.4 130.506 133.225 130.075C134.05 129.632 134.715 128.98 135.219 128.118C135.737 127.256 135.989 126.191 135.977 124.923ZM163.061 137.554C160.144 137.554 157.632 136.963 155.527 135.781C153.435 134.587 151.822 132.901 150.689 130.722C149.557 128.53 148.99 125.939 148.99 122.947C148.99 120.03 149.557 117.469 150.689 115.266C151.822 113.062 153.416 111.345 155.472 110.114C157.54 108.883 159.965 108.267 162.748 108.267C164.619 108.267 166.361 108.569 167.973 109.172C169.598 109.763 171.014 110.655 172.221 111.849C173.439 113.044 174.387 114.545 175.064 116.355C175.741 118.152 176.08 120.258 176.08 122.67V124.831H152.13V119.956H168.675C168.675 118.823 168.429 117.82 167.936 116.946C167.444 116.072 166.761 115.389 165.887 114.896C165.025 114.392 164.022 114.139 162.877 114.139C161.683 114.139 160.624 114.416 159.701 114.97C158.79 115.512 158.076 116.244 157.559 117.168C157.042 118.079 156.777 119.094 156.765 120.214V124.849C156.765 126.253 157.023 127.465 157.54 128.487C158.069 129.509 158.814 130.297 159.775 130.851C160.735 131.405 161.873 131.682 163.191 131.682C164.065 131.682 164.865 131.559 165.591 131.312C166.318 131.066 166.939 130.697 167.456 130.205C167.973 129.712 168.367 129.109 168.638 128.395L175.914 128.875C175.544 130.623 174.787 132.15 173.642 133.455C172.51 134.747 171.045 135.757 169.248 136.483C167.462 137.197 165.4 137.554 163.061 137.554ZM181.361 137V99.1818H189.228V113.401H189.468C189.812 112.637 190.311 111.862 190.963 111.074C191.628 110.274 192.49 109.609 193.549 109.08C194.62 108.538 195.949 108.267 197.537 108.267C199.605 108.267 201.514 108.809 203.262 109.892C205.01 110.963 206.407 112.582 207.453 114.749C208.5 116.903 209.023 119.605 209.023 122.855C209.023 126.019 208.512 128.69 207.49 130.869C206.481 133.036 205.102 134.679 203.354 135.8C201.618 136.908 199.673 137.462 197.519 137.462C195.992 137.462 194.694 137.209 193.623 136.705C192.564 136.2 191.696 135.566 191.019 134.803C190.342 134.027 189.825 133.245 189.468 132.457H189.117V137H181.361ZM189.061 122.818C189.061 124.505 189.295 125.976 189.763 127.232C190.231 128.487 190.908 129.466 191.794 130.168C192.681 130.857 193.758 131.202 195.026 131.202C196.306 131.202 197.39 130.851 198.276 130.149C199.162 129.435 199.833 128.45 200.289 127.195C200.757 125.927 200.99 124.468 200.99 122.818C200.99 121.181 200.763 119.741 200.307 118.497C199.852 117.254 199.181 116.281 198.294 115.58C197.408 114.878 196.319 114.527 195.026 114.527C193.746 114.527 192.662 114.866 191.776 115.543C190.902 116.22 190.231 117.18 189.763 118.423C189.295 119.667 189.061 121.132 189.061 122.818ZM222.36 137.536C220.55 137.536 218.938 137.222 217.522 136.594C216.106 135.954 214.986 135.012 214.161 133.768C213.349 132.513 212.942 130.949 212.942 129.078C212.942 127.502 213.232 126.179 213.81 125.108C214.389 124.037 215.177 123.175 216.174 122.523C217.171 121.87 218.304 121.378 219.572 121.045C220.852 120.713 222.194 120.479 223.597 120.344C225.247 120.171 226.576 120.011 227.586 119.864C228.595 119.704 229.328 119.47 229.783 119.162C230.239 118.854 230.467 118.399 230.467 117.795V117.685C230.467 116.515 230.097 115.61 229.359 114.97C228.632 114.33 227.598 114.01 226.256 114.01C224.841 114.01 223.714 114.324 222.877 114.952C222.04 115.567 221.486 116.343 221.215 117.278L213.94 116.688C214.309 114.964 215.035 113.474 216.119 112.219C217.202 110.951 218.599 109.978 220.31 109.301C222.034 108.612 224.028 108.267 226.293 108.267C227.869 108.267 229.377 108.452 230.817 108.821C232.27 109.19 233.557 109.763 234.677 110.538C235.809 111.314 236.702 112.311 237.354 113.53C238.007 114.736 238.333 116.183 238.333 117.869V137H230.873V133.067H230.651C230.196 133.953 229.586 134.735 228.823 135.412C228.06 136.077 227.143 136.6 226.072 136.982C225.001 137.351 223.763 137.536 222.36 137.536ZM224.613 132.107C225.77 132.107 226.792 131.879 227.678 131.423C228.565 130.955 229.26 130.328 229.765 129.54C230.27 128.752 230.522 127.859 230.522 126.862V123.852C230.276 124.012 229.937 124.16 229.506 124.295C229.088 124.419 228.614 124.536 228.085 124.646C227.555 124.745 227.026 124.837 226.496 124.923C225.967 124.997 225.487 125.065 225.056 125.126C224.133 125.262 223.326 125.477 222.637 125.773C221.948 126.068 221.412 126.468 221.031 126.973C220.649 127.465 220.458 128.081 220.458 128.82C220.458 129.891 220.846 130.709 221.621 131.276C222.409 131.83 223.406 132.107 224.613 132.107ZM66.0993 211.227C63.551 211.227 61.3658 210.876 59.5439 210.175C57.7342 209.485 56.2939 208.544 55.2228 207.349C54.1518 206.155 53.4563 204.813 53.1362 203.324L60.4118 202.345C60.6333 202.911 60.9842 203.441 61.4643 203.933C61.9444 204.426 62.5784 204.82 63.3663 205.115C64.1665 205.423 65.139 205.577 66.2839 205.577C67.9951 205.577 69.4047 205.158 70.5126 204.321C71.6329 203.496 72.193 202.111 72.193 200.166V194.977H71.8606C71.5159 195.765 70.9989 196.51 70.3095 197.212C69.6201 197.913 68.7337 198.486 67.6504 198.929C66.5671 199.372 65.2744 199.594 63.7726 199.594C61.6428 199.594 59.7039 199.101 57.9558 198.116C56.22 197.119 54.835 195.599 53.801 193.555C52.7792 191.5 52.2683 188.902 52.2683 185.763C52.2683 182.55 52.7915 179.866 53.8379 177.712C54.8843 175.557 56.2754 173.945 58.0112 172.874C59.7593 171.803 61.6736 171.267 63.7541 171.267C65.3422 171.267 66.6717 171.538 67.7427 172.08C68.8137 172.609 69.6755 173.274 70.3279 174.074C70.9927 174.862 71.5036 175.637 71.8606 176.401H72.1561V171.636H79.9672V200.277C79.9672 202.69 79.3762 204.709 78.1944 206.334C77.0126 207.959 75.3753 209.178 73.2825 209.99C71.202 210.815 68.8076 211.227 66.0993 211.227ZM66.2654 193.685C67.5334 193.685 68.6045 193.371 69.4785 192.743C70.3649 192.103 71.042 191.192 71.5098 190.01C71.9899 188.816 72.2299 187.388 72.2299 185.726C72.2299 184.064 71.996 182.624 71.5282 181.405C71.0604 180.174 70.3833 179.22 69.497 178.543C68.6106 177.866 67.5334 177.527 66.2654 177.527C64.9728 177.527 63.8833 177.878 62.997 178.58C62.1106 179.269 61.4397 180.229 60.9842 181.46C60.5287 182.691 60.301 184.113 60.301 185.726C60.301 187.363 60.5287 188.779 60.9842 189.973C61.452 191.155 62.1229 192.072 62.997 192.724C63.8833 193.365 64.9728 193.685 66.2654 193.685ZM86.2271 200V171.636H93.8535V176.585H94.149C94.666 174.825 95.5339 173.495 96.7527 172.597C97.9714 171.686 99.3748 171.23 100.963 171.23C101.357 171.23 101.782 171.255 102.237 171.304C102.693 171.353 103.093 171.421 103.437 171.507V178.487C103.068 178.376 102.557 178.278 101.905 178.192C101.252 178.106 100.655 178.062 100.113 178.062C98.9563 178.062 97.9222 178.315 97.0112 178.82C96.1125 179.312 95.3985 180.001 94.8691 180.888C94.3521 181.774 94.0936 182.796 94.0936 183.953V200H86.2271ZM114.78 200.536C112.97 200.536 111.358 200.222 109.942 199.594C108.526 198.954 107.406 198.012 106.581 196.768C105.769 195.513 105.362 193.949 105.362 192.078C105.362 190.502 105.652 189.179 106.23 188.108C106.809 187.037 107.597 186.175 108.594 185.523C109.591 184.87 110.724 184.378 111.992 184.045C113.272 183.713 114.614 183.479 116.017 183.344C117.667 183.171 118.996 183.011 120.006 182.864C121.015 182.704 121.748 182.47 122.203 182.162C122.659 181.854 122.887 181.399 122.887 180.795V180.685C122.887 179.515 122.517 178.61 121.779 177.97C121.052 177.33 120.018 177.01 118.676 177.01C117.261 177.01 116.134 177.324 115.297 177.952C114.46 178.567 113.906 179.343 113.635 180.278L106.36 179.688C106.729 177.964 107.455 176.474 108.539 175.219C109.622 173.951 111.019 172.978 112.73 172.301C114.454 171.612 116.448 171.267 118.713 171.267C120.289 171.267 121.797 171.452 123.237 171.821C124.69 172.19 125.977 172.763 127.097 173.538C128.229 174.314 129.122 175.311 129.774 176.53C130.427 177.736 130.753 179.183 130.753 180.869V200H123.293V196.067H123.071C122.616 196.953 122.006 197.735 121.243 198.412C120.48 199.077 119.563 199.6 118.492 199.982C117.421 200.351 116.183 200.536 114.78 200.536ZM117.033 195.107C118.19 195.107 119.212 194.879 120.098 194.423C120.985 193.955 121.68 193.328 122.185 192.54C122.69 191.752 122.942 190.859 122.942 189.862V186.852C122.696 187.012 122.357 187.16 121.926 187.295C121.508 187.419 121.034 187.536 120.504 187.646C119.975 187.745 119.446 187.837 118.916 187.923C118.387 187.997 117.907 188.065 117.476 188.126C116.553 188.262 115.746 188.477 115.057 188.773C114.368 189.068 113.832 189.468 113.45 189.973C113.069 190.465 112.878 191.081 112.878 191.82C112.878 192.891 113.266 193.709 114.041 194.276C114.829 194.83 115.826 195.107 117.033 195.107ZM151.943 171.636V177.545H134.862V171.636H151.943ZM138.74 164.841H146.606V191.284C146.606 192.01 146.717 192.577 146.938 192.983C147.16 193.377 147.468 193.654 147.862 193.814C148.268 193.974 148.736 194.054 149.265 194.054C149.634 194.054 150.004 194.023 150.373 193.962C150.742 193.888 151.026 193.832 151.222 193.795L152.46 199.649C152.066 199.772 151.512 199.914 150.798 200.074C150.084 200.246 149.216 200.351 148.194 200.388C146.298 200.462 144.636 200.209 143.208 199.631C141.793 199.052 140.691 198.153 139.903 196.935C139.115 195.716 138.727 194.177 138.74 192.318V164.841ZM175.256 187.923V171.636H183.122V200H175.57V194.848H175.274C174.634 196.51 173.569 197.846 172.08 198.855C170.602 199.865 168.799 200.369 166.669 200.369C164.773 200.369 163.105 199.938 161.665 199.077C160.225 198.215 159.098 196.99 158.286 195.402C157.485 193.814 157.079 191.912 157.067 189.696V171.636H164.933V188.293C164.946 189.967 165.395 191.29 166.281 192.263C167.168 193.235 168.356 193.722 169.845 193.722C170.793 193.722 171.68 193.506 172.504 193.075C173.329 192.632 173.994 191.98 174.499 191.118C175.016 190.256 175.268 189.191 175.256 187.923ZM189.415 200V171.636H197.281V200H189.415ZM193.366 167.98C192.197 167.98 191.193 167.592 190.356 166.817C189.532 166.029 189.119 165.087 189.119 163.991C189.119 162.908 189.532 161.979 190.356 161.203C191.193 160.415 192.197 160.021 193.366 160.021C194.536 160.021 195.533 160.415 196.358 161.203C197.195 161.979 197.613 162.908 197.613 163.991C197.613 165.087 197.195 166.029 196.358 166.817C195.533 167.592 194.536 167.98 193.366 167.98ZM218.669 171.636V177.545H201.588V171.636H218.669ZM205.466 164.841H213.333V191.284C213.333 192.01 213.443 192.577 213.665 192.983C213.887 193.377 214.194 193.654 214.588 193.814C214.994 193.974 215.462 194.054 215.992 194.054C216.361 194.054 216.73 194.023 217.1 193.962C217.469 193.888 217.752 193.832 217.949 193.795L219.186 199.649C218.792 199.772 218.238 199.914 217.524 200.074C216.81 200.246 215.942 200.351 214.921 200.388C213.025 200.462 211.363 200.209 209.935 199.631C208.519 199.052 207.417 198.153 206.629 196.935C205.842 195.716 205.454 194.177 205.466 192.318V164.841ZM231.882 200.536C230.072 200.536 228.459 200.222 227.044 199.594C225.628 198.954 224.508 198.012 223.683 196.768C222.87 195.513 222.464 193.949 222.464 192.078C222.464 190.502 222.753 189.179 223.332 188.108C223.91 187.037 224.698 186.175 225.695 185.523C226.693 184.87 227.825 184.378 229.093 184.045C230.374 183.713 231.715 183.479 233.119 183.344C234.768 183.171 236.098 183.011 237.107 182.864C238.117 182.704 238.849 182.47 239.305 182.162C239.76 181.854 239.988 181.399 239.988 180.795V180.685C239.988 179.515 239.619 178.61 238.88 177.97C238.154 177.33 237.12 177.01 235.778 177.01C234.362 177.01 233.236 177.324 232.399 177.952C231.561 178.567 231.008 179.343 230.737 180.278L223.461 179.688C223.83 177.964 224.557 176.474 225.64 175.219C226.723 173.951 228.121 172.978 229.832 172.301C231.555 171.612 233.55 171.267 235.815 171.267C237.391 171.267 238.899 171.452 240.339 171.821C241.792 172.19 243.078 172.763 244.198 173.538C245.331 174.314 246.223 175.311 246.876 176.53C247.528 177.736 247.855 179.183 247.855 180.869V200H240.394V196.067H240.173C239.717 196.953 239.108 197.735 238.345 198.412C237.581 199.077 236.664 199.6 235.593 199.982C234.522 200.351 233.285 200.536 231.882 200.536ZM234.134 195.107C235.292 195.107 236.313 194.879 237.2 194.423C238.086 193.955 238.782 193.328 239.286 192.54C239.791 191.752 240.044 190.859 240.044 189.862V186.852C239.797 187.012 239.459 187.16 239.028 187.295C238.609 187.419 238.135 187.536 237.606 187.646C237.077 187.745 236.547 187.837 236.018 187.923C235.489 187.997 235.008 188.065 234.578 188.126C233.654 188.262 232.848 188.477 232.159 188.773C231.469 189.068 230.934 189.468 230.552 189.973C230.17 190.465 229.98 191.081 229.98 191.82C229.98 192.891 230.367 193.709 231.143 194.276C231.931 194.83 232.928 195.107 234.134 195.107Z" fill="#27272A"/>
<defs>
<linearGradient id="paint0_linear_386_65" x1="-6.00645" y1="55.0582" x2="374.322" y2="91.4518" gradientUnits="userSpaceOnUse">
<stop stop-color="#DA8207"/>
<stop offset="0.0932979" stop-color="#DD9318"/>
<stop offset="0.230387" stop-color="#FFCB3C"/>
<stop offset="0.678823" stop-color="#FFCB3C"/>
<stop offset="0.799224" stop-color="#E39C1E"/>
<stop offset="0.835628" stop-color="#FBC63A"/>
</linearGradient>
</defs>
</svg>
