<svg width="301" height="301" viewBox="0 0 301 301" fill="none" xmlns="http://www.w3.org/2000/svg">
<mask id="mask0_378_126" style="mask-type:luminance" maskUnits="userSpaceOnUse" x="0" y="0" width="301" height="301">
<path d="M0 0H300.318V300.318H0V0Z" fill="white"/>
</mask>
<g mask="url(#mask0_378_126)">
<mask id="mask1_378_126" style="mask-type:luminance" maskUnits="userSpaceOnUse" x="0" y="0" width="301" height="301">
<path d="M150.161 0L171.302 16.6823L196.563 7.34896L211.516 29.7448L238.422 28.6771L245.719 54.599L271.641 61.901L270.573 88.8073L292.969 103.76L283.641 129.021L300.318 150.161L283.641 171.302L292.969 196.563L270.573 211.516L271.641 238.422L245.719 245.724L238.422 271.641L211.516 270.573L196.563 292.969L171.302 283.641L150.161 300.318L129.021 283.641L103.76 292.969L88.8073 270.573L61.901 271.641L54.599 245.724L28.6771 238.422L29.7448 211.516L7.34896 196.563L16.6823 171.302L0 150.161L16.6823 129.021L7.34896 103.76L29.7448 88.8073L28.6771 61.901L54.599 54.599L61.901 28.6771L88.8073 29.7448L103.76 7.34896L129.021 16.6823L150.161 0Z" fill="white"/>
</mask>
<g mask="url(#mask1_378_126)">
<path d="M0 0H300.318V300.318H0V0Z" fill="#FDB913"/>
</g>
</g>
<path d="M89.6686 98.668V136.001H81.0228V105.605H73.5645V98.668H89.6686Z" fill="#3C3C3B"/>
<path d="M149.769 106.877C153.362 106.877 156.216 107.939 158.331 110.064C160.44 112.179 161.498 115.351 161.498 119.585V136.002H153.185V120.856C153.185 118.58 152.711 116.887 151.769 115.773C150.821 114.648 149.482 114.085 147.748 114.085C145.789 114.085 144.237 114.721 143.102 115.981C141.961 117.247 141.394 119.122 141.394 121.606V136.002H133.081V120.856C133.081 116.346 131.269 114.085 127.644 114.085C125.727 114.085 124.196 114.721 123.06 115.981C121.92 117.247 121.352 119.122 121.352 121.606V136.002H113.019V107.314H120.977V110.606C122.045 109.398 123.352 108.476 124.894 107.835C126.435 107.2 128.128 106.877 129.977 106.877C132.003 106.877 133.836 107.283 135.477 108.085C137.112 108.877 138.435 110.044 139.435 111.585C140.602 110.085 142.081 108.929 143.873 108.106C145.675 107.288 147.644 106.877 149.769 106.877Z" fill="#3C3C3B"/>
<path d="M197.064 121.752C197.064 121.867 197.012 122.617 196.918 124.002H175.21C175.595 125.783 176.522 127.184 177.981 128.21C179.439 129.242 181.252 129.752 183.418 129.752C184.918 129.752 186.241 129.533 187.397 129.085C188.549 128.643 189.627 127.939 190.627 126.981L195.043 131.794C192.345 134.877 188.403 136.419 183.21 136.419C179.97 136.419 177.106 135.794 174.606 134.544C172.116 133.283 170.2 131.533 168.856 129.294C167.507 127.044 166.835 124.497 166.835 121.648C166.835 118.846 167.502 116.314 168.835 114.064C170.168 111.804 171.991 110.038 174.314 108.773C176.647 107.512 179.257 106.877 182.147 106.877C184.95 106.877 187.491 107.481 189.772 108.689C192.049 109.898 193.835 111.637 195.127 113.898C196.418 116.148 197.064 118.768 197.064 121.752ZM182.189 113.169C180.314 113.169 178.731 113.705 177.439 114.773C176.158 115.846 175.382 117.304 175.106 119.148H189.231C188.95 117.33 188.168 115.877 186.877 114.794C185.595 113.71 184.033 113.169 182.189 113.169Z" fill="#3C3C3B"/>
<path d="M212.276 136.419C209.886 136.419 207.552 136.127 205.276 135.544C202.995 134.96 201.183 134.226 199.839 133.335L202.61 127.356C203.886 128.179 205.433 128.846 207.256 129.356C209.073 129.872 210.849 130.127 212.589 130.127C216.099 130.127 217.86 129.262 217.86 127.523C217.86 126.705 217.381 126.122 216.422 125.773C215.464 125.413 213.99 125.106 212.006 124.856C209.657 124.497 207.719 124.085 206.193 123.627C204.662 123.169 203.339 122.356 202.214 121.189C201.089 120.012 200.526 118.335 200.526 116.169C200.526 114.351 201.052 112.742 202.11 111.335C203.162 109.934 204.693 108.846 206.693 108.064C208.703 107.273 211.078 106.877 213.818 106.877C215.844 106.877 217.86 107.101 219.86 107.544C221.87 107.992 223.537 108.606 224.86 109.398L222.089 115.314C219.558 113.887 216.802 113.169 213.818 113.169C212.037 113.169 210.703 113.419 209.818 113.919C208.927 114.419 208.485 115.059 208.485 115.835C208.485 116.726 208.964 117.351 209.922 117.71C210.881 118.075 212.407 118.413 214.506 118.731C216.849 119.122 218.766 119.538 220.256 119.981C221.756 120.429 223.052 121.242 224.151 122.419C225.261 123.585 225.818 125.221 225.818 127.314C225.818 129.096 225.282 130.679 224.214 132.064C223.141 133.439 221.589 134.512 219.547 135.273C217.506 136.033 215.078 136.419 212.276 136.419Z" fill="#3C3C3B"/>
<path d="M76.9746 181.752H84.8704V196.897C82.8392 198.429 80.4954 199.601 77.8288 200.418C75.1621 201.236 72.4798 201.647 69.7871 201.647C65.9121 201.647 62.4225 200.825 59.3288 199.168C56.2298 197.517 53.7975 195.226 52.0371 192.293C50.2871 189.351 49.4121 186.033 49.4121 182.335C49.4121 178.642 50.2871 175.33 52.0371 172.397C53.7975 169.455 56.2454 167.158 59.3704 165.502C62.5059 163.851 66.0267 163.022 69.9329 163.022C73.209 163.022 76.1829 163.58 78.8496 164.689C81.5163 165.788 83.7559 167.387 85.5788 169.481L80.0163 174.606C77.3496 171.804 74.1309 170.397 70.3704 170.397C67.9798 170.397 65.86 170.897 64.0163 171.897C62.1673 172.887 60.7298 174.288 59.7038 176.106C58.6725 177.913 58.1621 179.991 58.1621 182.335C58.1621 184.642 58.6725 186.705 59.7038 188.522C60.7298 190.345 62.1621 191.762 63.9954 192.772C65.8288 193.772 67.9173 194.272 70.2663 194.272C72.7507 194.272 74.985 193.746 76.9746 192.689V181.752Z" fill="#3C3C3B"/>
<path d="M116.653 201.001L109.465 190.605H101.507V201.001H92.8613V163.668H109.028C112.33 163.668 115.2 164.225 117.632 165.335C120.075 166.434 121.95 167.996 123.257 170.022C124.575 172.053 125.236 174.449 125.236 177.21C125.236 179.991 124.57 182.387 123.236 184.397C121.903 186.397 120.012 187.934 117.57 189.001L125.945 201.001H116.653ZM116.507 177.21C116.507 175.116 115.825 173.512 114.465 172.397C113.117 171.272 111.143 170.71 108.549 170.71H101.507V183.73H108.549C111.143 183.73 113.117 183.163 114.465 182.022C115.825 180.887 116.507 179.283 116.507 177.21Z" fill="#3C3C3B"/>
<path d="M156.662 193.001H139.329L136.016 201.001H127.162L143.808 163.668H152.329L169.037 201.001H159.954L156.662 193.001ZM153.933 186.439L148.016 172.147L142.1 186.439H153.933Z" fill="#3C3C3B"/>
<path d="M180.658 170.71H168.699V163.668H201.241V170.71H189.283V201.001H180.658V170.71Z" fill="#3C3C3B"/>
<path d="M205.864 163.668H214.51V201.001H205.864V163.668Z" fill="#3C3C3B"/>
<path d="M235.627 201.647C232.679 201.647 229.825 201.252 227.064 200.46C224.314 199.658 222.106 198.606 220.439 197.314L223.356 190.814C224.965 191.996 226.867 192.939 229.064 193.647C231.273 194.356 233.481 194.71 235.689 194.71C238.132 194.71 239.939 194.351 241.106 193.627C242.283 192.892 242.877 191.918 242.877 190.71C242.877 189.825 242.528 189.085 241.835 188.502C241.153 187.908 240.262 187.434 239.169 187.085C238.085 186.726 236.617 186.335 234.773 185.918C231.939 185.241 229.611 184.564 227.794 183.897C225.971 183.22 224.419 182.137 223.127 180.647C221.835 179.147 221.189 177.147 221.189 174.647C221.189 172.481 221.773 170.522 222.939 168.772C224.106 167.012 225.867 165.616 228.231 164.585C230.606 163.543 233.502 163.022 236.919 163.022C239.294 163.022 241.617 163.309 243.898 163.877C246.174 164.45 248.169 165.267 249.877 166.335L247.21 172.897C243.752 170.939 240.299 169.96 236.856 169.96C234.439 169.96 232.653 170.356 231.502 171.147C230.346 171.929 229.773 172.955 229.773 174.231C229.773 175.512 230.439 176.46 231.773 177.085C233.106 177.71 235.137 178.325 237.877 178.918C240.721 179.601 243.049 180.283 244.856 180.96C246.674 181.627 248.231 182.689 249.523 184.147C250.825 185.606 251.481 187.58 251.481 190.064C251.481 192.205 250.882 194.158 249.689 195.918C248.492 197.668 246.7 199.064 244.314 200.106C241.939 201.132 239.044 201.647 235.627 201.647Z" fill="#3C3C3B"/>
</svg>
