<svg width="588" height="300" viewBox="0 0 588 300" fill="none" xmlns="http://www.w3.org/2000/svg">
<path d="M162.822 28.21L146.932 58.59V77H140.562V58.59L124.602 28.21H131.672L143.712 52.92L155.752 28.21H162.822ZM198.381 66.15H177.101L173.181 77H166.461L184.101 28.49H191.451L209.021 77H202.301L198.381 66.15ZM196.561 60.97L187.741 36.33L178.921 60.97H196.561ZM266.199 28.56V77H259.829V40.88L243.729 77H239.249L223.079 40.81V77H216.709V28.56H223.569L241.489 68.6L259.409 28.56H266.199ZM305.842 66.15H284.562L280.642 77H273.922L291.562 28.49H298.912L316.482 77H309.762L305.842 66.15ZM304.022 60.97L295.202 36.33L286.382 60.97H304.022ZM362.53 77H356.16L330.54 38.15V77H324.17V28.14H330.54L356.16 66.92V28.14H362.53V77ZM388.579 28.21C393.899 28.21 398.496 29.2133 402.369 31.22C406.289 33.18 409.276 36.0033 411.329 39.69C413.429 43.3767 414.479 47.7167 414.479 52.71C414.479 57.7033 413.429 62.0433 411.329 65.73C409.276 69.37 406.289 72.17 402.369 74.13C398.496 76.0433 393.899 77 388.579 77H373.389V28.21H388.579ZM388.579 71.75C394.879 71.75 399.686 70.0933 402.999 66.78C406.312 63.42 407.969 58.73 407.969 52.71C407.969 46.6433 406.289 41.9067 402.929 38.5C399.616 35.0933 394.832 33.39 388.579 33.39H379.759V71.75H388.579ZM429.111 28.21V59.08C429.111 63.42 430.161 66.64 432.261 68.74C434.408 70.84 437.371 71.89 441.151 71.89C444.885 71.89 447.801 70.84 449.901 68.74C452.048 66.64 453.121 63.42 453.121 59.08V28.21H459.491V59.01C459.491 63.07 458.675 66.5 457.041 69.3C455.408 72.0533 453.191 74.1067 450.391 75.46C447.638 76.8133 444.535 77.49 441.081 77.49C437.628 77.49 434.501 76.8133 431.701 75.46C428.948 74.1067 426.755 72.0533 425.121 69.3C423.535 66.5 422.741 63.07 422.741 59.01V28.21H429.111ZM447.941 17.64L433.031 25.62V20.86L447.941 12.11V17.64Z" fill="white"/>
<path d="M176.6 232.05C166.7 232.05 157.6 229.75 149.3 225.15C141.1 220.55 134.55 214.15 129.65 205.95C124.85 197.65 122.45 188.35 122.45 178.05C122.45 167.75 124.85 158.5 129.65 150.3C134.55 142.1 141.1 135.7 149.3 131.1C157.6 126.5 166.7 124.2 176.6 124.2C186.5 124.2 195.55 126.5 203.75 131.1C212.05 135.7 218.55 142.1 223.25 150.3C228.05 158.5 230.45 167.75 230.45 178.05C230.45 188.35 228.05 197.65 223.25 205.95C218.45 214.15 211.95 220.55 203.75 225.15C195.55 229.75 186.5 232.05 176.6 232.05ZM176.6 208.65C185 208.65 191.7 205.85 196.7 200.25C201.8 194.65 204.35 187.25 204.35 178.05C204.35 168.75 201.8 161.35 196.7 155.85C191.7 150.25 185 147.45 176.6 147.45C168.1 147.45 161.3 150.2 156.2 155.7C151.2 161.2 148.7 168.65 148.7 178.05C148.7 187.35 151.2 194.8 156.2 200.4C161.3 205.9 168.1 208.65 176.6 208.65ZM298.42 231L276.52 191.25H270.37V231H244.72V125.7H287.77C296.07 125.7 303.12 127.15 308.92 130.05C314.82 132.95 319.22 136.95 322.12 142.05C325.02 147.05 326.47 152.65 326.47 158.85C326.47 165.85 324.47 172.1 320.47 177.6C316.57 183.1 310.77 187 303.07 189.3L327.37 231H298.42ZM270.37 173.1H286.27C290.97 173.1 294.47 171.95 296.77 169.65C299.17 167.35 300.37 164.1 300.37 159.9C300.37 155.9 299.17 152.75 296.77 150.45C294.47 148.15 290.97 147 286.27 147H270.37V173.1ZM380.671 232.05C372.971 232.05 366.071 230.8 359.971 228.3C353.871 225.8 348.971 222.1 345.271 217.2C341.671 212.3 339.771 206.4 339.571 199.5H366.871C367.271 203.4 368.621 206.4 370.921 208.5C373.221 210.5 376.221 211.5 379.921 211.5C383.721 211.5 386.721 210.65 388.921 208.95C391.121 207.15 392.221 204.7 392.221 201.6C392.221 199 391.321 196.85 389.521 195.15C387.821 193.45 385.671 192.05 383.071 190.95C380.571 189.85 376.971 188.6 372.271 187.2C365.471 185.1 359.921 183 355.621 180.9C351.321 178.8 347.621 175.7 344.521 171.6C341.421 167.5 339.871 162.15 339.871 155.55C339.871 145.75 343.421 138.1 350.521 132.6C357.621 127 366.871 124.2 378.271 124.2C389.871 124.2 399.221 127 406.321 132.6C413.421 138.1 417.221 145.8 417.721 155.7H389.971C389.771 152.3 388.521 149.65 386.221 147.75C383.921 145.75 380.971 144.75 377.371 144.75C374.271 144.75 371.771 145.6 369.871 147.3C367.971 148.9 367.021 151.25 367.021 154.35C367.021 157.75 368.621 160.4 371.821 162.3C375.021 164.2 380.021 166.25 386.821 168.45C393.621 170.75 399.121 172.95 403.321 175.05C407.621 177.15 411.321 180.2 414.421 184.2C417.521 188.2 419.071 193.35 419.071 199.65C419.071 205.65 417.521 211.1 414.421 216C411.421 220.9 407.021 224.8 401.221 227.7C395.421 230.6 388.571 232.05 380.671 232.05ZM460.507 125.7V231H434.857V125.7H460.507Z" fill="white"/>
<path d="M146.376 271.224C146.376 273.08 145.736 274.627 144.456 275.864C143.197 277.08 141.267 277.688 138.664 277.688H134.376V287H131.464V264.696H138.664C141.181 264.696 143.091 265.304 144.392 266.52C145.715 267.736 146.376 269.304 146.376 271.224ZM138.664 275.288C140.285 275.288 141.48 274.936 142.248 274.232C143.016 273.528 143.4 272.525 143.4 271.224C143.4 268.472 141.821 267.096 138.664 267.096H134.376V275.288H138.664ZM178.802 287L173.49 277.88H169.97V287H167.058V264.696H174.258C175.943 264.696 177.362 264.984 178.514 265.56C179.687 266.136 180.562 266.915 181.138 267.896C181.714 268.877 182.002 269.997 182.002 271.256C182.002 272.792 181.554 274.147 180.658 275.32C179.783 276.493 178.46 277.272 176.69 277.656L182.29 287H178.802ZM169.97 275.544H174.258C175.836 275.544 177.02 275.16 177.81 274.392C178.599 273.603 178.994 272.557 178.994 271.256C178.994 269.933 178.599 268.909 177.81 268.184C177.042 267.459 175.858 267.096 174.258 267.096H169.97V275.544ZM206.501 267.064V274.52H214.629V276.92H206.501V284.6H215.589V287H203.589V264.664H215.589V267.064H206.501ZM244.13 287.224C242.658 287.224 241.335 286.968 240.162 286.456C239.01 285.923 238.103 285.197 237.442 284.28C236.78 283.341 236.439 282.264 236.418 281.048H239.522C239.628 282.093 240.055 282.979 240.802 283.704C241.57 284.408 242.679 284.76 244.13 284.76C245.516 284.76 246.604 284.419 247.394 283.736C248.204 283.032 248.61 282.136 248.61 281.048C248.61 280.195 248.375 279.501 247.906 278.968C247.436 278.435 246.85 278.029 246.146 277.752C245.442 277.475 244.492 277.176 243.298 276.856C241.826 276.472 240.642 276.088 239.746 275.704C238.871 275.32 238.114 274.723 237.474 273.912C236.855 273.08 236.546 271.971 236.546 270.584C236.546 269.368 236.855 268.291 237.474 267.352C238.092 266.413 238.956 265.688 240.066 265.176C241.196 264.664 242.487 264.408 243.938 264.408C246.028 264.408 247.735 264.931 249.058 265.976C250.402 267.021 251.159 268.408 251.33 270.136H248.13C248.023 269.283 247.575 268.536 246.786 267.896C245.996 267.235 244.951 266.904 243.65 266.904C242.434 266.904 241.442 267.224 240.674 267.864C239.906 268.483 239.522 269.357 239.522 270.488C239.522 271.299 239.746 271.96 240.194 272.472C240.663 272.984 241.228 273.379 241.89 273.656C242.572 273.912 243.522 274.211 244.738 274.552C246.21 274.957 247.394 275.363 248.29 275.768C249.186 276.152 249.954 276.76 250.594 277.592C251.234 278.403 251.554 279.512 251.554 280.92C251.554 282.008 251.266 283.032 250.69 283.992C250.114 284.952 249.26 285.731 248.13 286.328C246.999 286.925 245.666 287.224 244.13 287.224ZM275.814 264.696V287H272.902V264.696H275.814ZM304.783 264.696C307.215 264.696 309.316 265.155 311.087 266.072C312.879 266.968 314.244 268.259 315.183 269.944C316.143 271.629 316.623 273.613 316.623 275.896C316.623 278.179 316.143 280.163 315.183 281.848C314.244 283.512 312.879 284.792 311.087 285.688C309.316 286.563 307.215 287 304.783 287H297.839V264.696H304.783ZM304.783 284.6C307.663 284.6 309.86 283.843 311.375 282.328C312.89 280.792 313.647 278.648 313.647 275.896C313.647 273.123 312.879 270.957 311.343 269.4C309.828 267.843 307.642 267.064 304.783 267.064H300.751V284.6H304.783ZM340.439 267.064V274.52H348.567V276.92H340.439V284.6H349.527V287H337.527V264.664H349.527V267.064H340.439ZM388.531 287H385.619L373.907 269.24V287H370.995V264.664H373.907L385.619 282.392V264.664H388.531V287ZM424.286 264.696V267.064H418.206V287H415.294V267.064H409.182V264.696H424.286ZM447.845 267.064V274.52H455.973V276.92H447.845V284.6H456.933V287H444.933V264.664H456.933V267.064H447.845Z" fill="white"/>
</svg>
