<svg width="428" height="699" viewBox="0 0 428 699" fill="none" xmlns="http://www.w3.org/2000/svg">
<mask id="mask0_382_83" style="mask-type:luminance" maskUnits="userSpaceOnUse" x="360" y="541" width="68" height="158">
<path d="M360.426 541.334H427.316V698.631H360.426V541.334Z" fill="white"/>
</mask>
<g mask="url(#mask0_382_83)">
<path d="M360.78 564.798C360.78 564.798 364.176 584.584 378.108 599.746C378.108 599.746 387.145 665.022 427.166 698.741V542.548L360.78 564.798Z" fill="black"/>
</g>
<path d="M282.238 443.157C281.28 448.376 280.27 453.324 279.238 458.021C260.16 542.865 225.087 546.558 225.087 546.558L196.363 435.574L203.108 413.423L206.676 401.709L279.53 425.042C279.53 425.042 281.848 440.844 282.238 443.157Z" fill="#F89786"/>
<path d="M282.239 443.157C281.28 448.376 280.27 453.324 279.239 458.021C240.718 449.209 213.395 424.178 203.108 413.423L206.676 401.709L279.53 425.042C279.53 425.042 281.848 440.844 282.239 443.157Z" fill="#EA6060"/>
<path d="M403.265 591.724C402.723 591.724 402.182 591.5 401.812 591.084C389.531 577.693 388.494 561.521 388.447 560.834C388.4 559.75 389.208 558.813 390.317 558.74C391.4 558.693 392.338 559.506 392.411 560.61C392.411 560.782 393.369 575.256 403.781 587.339L410.208 584.464C407.348 579.787 400.583 567.651 399.796 555.933C399.718 554.849 400.531 553.891 401.64 553.818C402.723 553.745 403.682 554.558 403.755 555.662C404.666 569.203 414.661 584.068 414.76 584.214C415.077 584.709 415.176 585.297 415.031 585.865C414.859 586.433 414.463 586.896 413.947 587.12L404.104 591.526C403.807 591.672 403.536 591.724 403.265 591.724Z" fill="white"/>
<mask id="mask1_382_83" style="mask-type:luminance" maskUnits="userSpaceOnUse" x="171" y="0" width="257" height="336">
<path d="M171.093 0H427.317V336H171.093V0Z" fill="white"/>
</mask>
<g mask="url(#mask1_382_83)">
<path d="M254.202 24.0107C254.202 24.0107 200.447 19.6045 177.952 72.8961C155.478 126.157 203.848 184.318 203.848 184.318C203.848 184.318 154.473 276.203 234.145 324.594C313.816 372.985 427.139 244.891 427.139 244.891V156.532C427.139 156.532 413.848 138.073 396.79 139.229C396.79 139.229 403.04 77.3753 373.603 32.5055C344.165 -12.3695 273.895 -3.40597 254.202 24.0107Z" fill="black"/>
</g>
<mask id="mask2_382_83" style="mask-type:luminance" maskUnits="userSpaceOnUse" x="197" y="209" width="231" height="362">
<path d="M197.76 209.334H427.317V570.667H197.76V209.334Z" fill="white"/>
</mask>
<g mask="url(#mask2_382_83)">
<path d="M427.166 210.584C427.166 210.584 404.546 210.115 390.66 232.683C376.78 255.256 366.765 266.579 354.134 273.615C329.473 287.401 310.666 282.11 267.52 292.297C224.374 302.49 205.025 348 198.577 404.042C198.577 404.042 230.848 427.474 274.312 435.625C274.312 435.625 276.259 485.245 348.452 537.719C348.452 537.719 338.285 557.438 353.223 568.24C368.166 579.047 427.166 548.844 427.166 548.844V210.584Z" fill="#F14B00"/>
</g>
<path d="M368.832 315.36C324.551 332.099 299.348 286.542 299.348 286.542C316.181 283.933 325.337 278.021 320.441 267.735C318.249 263.11 315.025 256.953 312.118 251.537C308.551 244.891 305.499 239.407 305.499 239.407L349.337 219.667C349.337 219.667 351.723 225.792 355.66 232.464C358.27 236.917 361.592 241.62 365.311 244.87C374.613 253.016 386.426 239.381 386.426 239.381C386.426 239.381 413.108 298.625 368.832 315.36Z" fill="#F89786"/>
<path d="M355.66 232.49C342.812 246.787 323.785 250.604 312.119 251.537C308.551 244.891 305.499 239.407 305.499 239.407L349.338 219.667C349.338 219.667 351.723 225.818 355.66 232.49Z" fill="#EA6060"/>
<path d="M326.348 239.948C362.65 227.787 376.114 196.922 373.583 169.084C373.583 169.084 397.557 176.271 408.999 155.25C420.447 134.229 396.223 102.578 370.702 123.599C370.702 123.599 306.088 113.089 265.28 68.167C265.28 68.167 258.338 128.594 218.739 162.313C218.739 162.313 190.458 155.964 187.036 179.052C183.614 202.141 211.353 212.256 231.39 201.719C231.39 201.698 259.572 262.297 326.348 239.948Z" fill="#F89786"/>
<path d="M363.905 572.547C357.165 572.547 350.712 570.875 346.848 565.657C342.467 559.75 341.092 552.834 342.837 545.646C343.65 542.349 344.931 539.74 345.816 538.162C339.837 533.339 315.691 513.256 292.624 484.948C291.738 484.016 282.337 473.579 276.556 455.537C273.082 444.657 271.655 433.261 272.322 421.667C273.134 407.589 277.072 393.188 284.009 378.839L275.837 369.485C275.124 368.677 275.202 367.417 276.035 366.704C276.848 365.99 278.103 366.068 278.816 366.901L287.853 377.24C288.368 377.834 288.493 378.693 288.144 379.433C272.17 411.698 275.077 437.985 280.322 454.381C285.978 472.079 295.457 482.24 295.556 482.339C295.582 482.365 295.629 482.412 295.655 482.438C321.816 514.558 349.358 535.974 349.629 536.193C350.467 536.86 350.639 538.063 350.025 538.927C349.999 538.954 347.738 542.125 346.629 546.756C345.202 552.782 346.332 558.37 349.999 563.344C354.478 569.396 364.301 569.177 371.785 567.896C380.249 566.469 387.608 563.417 387.681 563.391C388.691 562.974 389.848 563.443 390.269 564.448C390.686 565.459 390.217 566.615 389.207 567.037C388.4 567.381 375.743 572.547 363.905 572.547Z" fill="black"/>
<path d="M274.291 423.339C274.119 423.339 273.947 423.319 273.796 423.266C234.931 413.152 200.327 388.121 199.983 387.85C199.093 387.209 198.9 385.98 199.535 385.095C200.176 384.204 201.41 384.011 202.296 384.652C202.64 384.897 236.655 409.511 274.78 419.428C275.838 419.699 276.478 420.782 276.187 421.839C275.963 422.751 275.15 423.339 274.291 423.339Z" fill="black"/>
<path d="M393.025 347.927C392.707 347.927 392.384 347.849 392.087 347.677C391.129 347.162 390.785 345.958 391.301 344.995C394.92 338.328 395.238 326.292 395.238 326.167C395.264 325.083 396.176 324.198 397.259 324.245C398.342 324.271 399.202 325.182 399.176 326.266C399.155 326.807 398.832 339.386 394.749 346.891C394.405 347.557 393.712 347.927 393.025 347.927Z" fill="black"/>
<path d="M375.379 356.662C374.884 356.662 374.395 356.469 373.999 356.099C373.213 355.334 373.187 354.078 373.947 353.292C380.989 346.052 379.978 336.381 379.978 336.282C379.858 335.198 380.645 334.214 381.728 334.094C382.812 333.969 383.796 334.756 383.916 335.839C383.968 336.308 385.124 347.485 376.806 356.047C376.411 356.469 375.895 356.662 375.379 356.662Z" fill="black"/>
<path d="M375.572 155.938C375.499 155.938 375.426 155.938 375.353 155.938C374.27 155.818 373.483 154.86 373.603 153.776C373.629 153.526 374.296 147.375 377.889 141.146C381.259 135.292 387.905 128.297 400.431 128.198C400.431 128.198 400.431 128.198 400.457 128.198C401.54 128.198 402.426 129.089 402.426 130.172C402.426 131.25 401.566 132.162 400.457 132.162C391.967 132.214 385.54 135.881 381.384 143.016C378.181 148.506 377.54 154.12 377.54 154.193C377.421 155.177 376.556 155.938 375.572 155.938Z" fill="#EA6060"/>
<path d="M392.978 150.698C392.015 150.698 391.155 149.985 391.03 149.001C391.004 148.928 390.468 145.381 387.78 143.459C386.083 142.23 383.822 141.86 381.062 142.355C379.978 142.553 378.973 141.813 378.775 140.756C378.577 139.693 379.317 138.662 380.374 138.464C384.265 137.777 387.536 138.391 390.145 140.287C394.208 143.24 394.921 148.261 394.947 148.459C395.093 149.542 394.327 150.527 393.249 150.672C393.15 150.672 393.051 150.698 392.978 150.698Z" fill="#EA6060"/>
<path d="M194.863 186.068C194.342 186.068 193.853 185.87 193.457 185.474C192.697 184.714 192.697 183.458 193.457 182.672C199.02 177.109 206.061 175.141 213.811 176.984C219.525 178.339 223.608 181.266 223.78 181.391C224.671 182.031 224.863 183.26 224.223 184.146C223.587 185.031 222.353 185.229 221.467 184.589C221.395 184.542 217.754 181.932 212.806 180.797C206.405 179.323 200.842 180.896 196.264 185.474C195.868 185.87 195.379 186.068 194.863 186.068Z" fill="#EA6060"/>
<path d="M209.926 192.959C209.259 192.959 208.619 192.641 208.249 192.021C208.129 191.849 205.447 187.495 206.603 183.016C207.244 180.506 208.89 178.485 211.525 177.011C212.483 176.469 213.692 176.813 214.207 177.771C214.749 178.735 214.405 179.938 213.447 180.453C211.77 181.391 210.785 182.547 210.416 184C209.702 186.828 211.572 189.907 211.598 189.933C212.192 190.865 211.895 192.073 210.983 192.662C210.64 192.86 210.296 192.959 209.926 192.959Z" fill="#EA6060"/>
<path d="M265.702 149.667C265.874 150.271 266.004 150.875 266.098 151.485C266.186 152.099 266.239 152.703 266.249 153.302C266.254 153.901 266.218 154.485 266.145 155.047C266.067 155.61 265.947 156.141 265.791 156.651C265.634 157.157 265.436 157.62 265.202 158.052C264.968 158.479 264.702 158.86 264.405 159.193C264.103 159.532 263.775 159.813 263.421 160.042C263.067 160.271 262.692 160.443 262.296 160.552C261.9 160.667 261.489 160.724 261.067 160.714C260.645 160.709 260.218 160.646 259.785 160.521C259.353 160.396 258.926 160.214 258.499 159.974C258.072 159.735 257.66 159.443 257.259 159.094C256.858 158.75 256.473 158.36 256.108 157.922C255.749 157.485 255.41 157.011 255.098 156.5C254.785 155.99 254.509 155.448 254.265 154.881C254.015 154.313 253.806 153.729 253.634 153.131C253.462 152.526 253.332 151.922 253.239 151.308C253.145 150.698 253.098 150.094 253.087 149.495C253.082 148.896 253.114 148.313 253.192 147.75C253.27 147.188 253.384 146.651 253.546 146.146C253.702 145.641 253.9 145.177 254.134 144.745C254.364 144.318 254.634 143.938 254.931 143.599C255.233 143.266 255.561 142.985 255.916 142.756C256.27 142.526 256.645 142.354 257.041 142.24C257.436 142.131 257.848 142.073 258.27 142.078C258.692 142.084 259.119 142.151 259.551 142.276C259.983 142.401 260.41 142.584 260.837 142.823C261.259 143.063 261.676 143.354 262.077 143.698C262.478 144.047 262.864 144.438 263.223 144.87C263.587 145.308 263.926 145.782 264.239 146.297C264.546 146.808 264.827 147.349 265.072 147.917C265.317 148.485 265.53 149.068 265.702 149.667Z" fill="black"/>
<path d="M263.139 122.073C262.77 122.417 262.254 122.563 261.759 122.417C250.561 119.12 235.327 131.375 235.176 131.5C234.905 131.719 234.613 131.818 234.29 131.818C233.973 131.818 233.676 131.719 233.405 131.5C232.889 131.078 232.743 130.365 233.035 129.75C238.228 119.438 245.785 116.412 251.228 115.698C257.082 114.912 261.66 116.584 261.858 116.656C262.28 116.802 262.624 117.172 262.723 117.615L263.535 120.667C263.655 121.209 263.509 121.729 263.139 122.073Z" fill="black"/>
<path d="M323.843 139.386C323.963 140.001 324.046 140.615 324.083 141.235C324.124 141.849 324.119 142.459 324.078 143.058C324.031 143.652 323.947 144.23 323.822 144.782C323.697 145.339 323.536 145.86 323.338 146.349C323.135 146.839 322.901 147.287 322.63 147.693C322.359 148.099 322.062 148.459 321.734 148.766C321.406 149.073 321.057 149.329 320.682 149.527C320.312 149.724 319.921 149.86 319.515 149.938C319.114 150.021 318.697 150.037 318.281 149.995C317.859 149.954 317.442 149.855 317.02 149.693C316.598 149.527 316.187 149.313 315.786 149.037C315.385 148.761 314.994 148.433 314.624 148.058C314.255 147.678 313.906 147.256 313.583 146.787C313.255 146.323 312.963 145.823 312.697 145.287C312.432 144.745 312.197 144.188 311.999 143.599C311.807 143.011 311.645 142.412 311.526 141.797C311.406 141.183 311.328 140.568 311.286 139.954C311.249 139.334 311.249 138.73 311.296 138.131C311.338 137.532 311.421 136.959 311.546 136.402C311.671 135.849 311.833 135.323 312.036 134.834C312.239 134.344 312.473 133.896 312.739 133.49C313.01 133.084 313.312 132.724 313.635 132.417C313.963 132.11 314.317 131.86 314.687 131.662C315.062 131.464 315.453 131.323 315.854 131.245C316.26 131.167 316.671 131.146 317.093 131.188C317.51 131.23 317.932 131.334 318.354 131.495C318.77 131.657 319.182 131.876 319.588 132.152C319.989 132.428 320.374 132.751 320.744 133.131C321.119 133.506 321.463 133.928 321.791 134.396C322.114 134.865 322.411 135.365 322.677 135.902C322.942 136.438 323.171 137.001 323.369 137.584C323.567 138.172 323.723 138.771 323.843 139.386Z" fill="black"/>
<path d="M301.239 116.089C301.733 116.24 302.249 116.115 302.645 115.772C311.114 107.745 330.259 111.709 330.457 111.761C330.775 111.834 331.124 111.782 331.395 111.636C331.666 111.49 331.91 111.266 332.03 110.949C332.301 110.334 332.108 109.615 331.567 109.225C322.239 102.407 314.114 103.147 308.968 104.99C303.405 106.959 300.082 110.553 299.936 110.699C299.619 111.048 299.494 111.511 299.593 111.954L300.254 115.058C300.379 115.548 300.749 115.943 301.239 116.089Z" fill="black"/>
<path d="M293.536 176.74C289.942 176.74 287.088 175.459 286.968 175.386C285.984 174.943 285.536 173.761 285.984 172.777C286.426 171.792 287.603 171.35 288.588 171.792C288.64 171.818 291.004 172.85 293.786 172.777C297.281 172.678 299.911 170.907 301.609 167.459C302.103 166.475 303.286 166.079 304.27 166.573C305.254 167.068 305.645 168.245 305.156 169.23C302.129 175.36 297.254 176.714 293.734 176.761C293.687 176.74 293.609 176.74 293.536 176.74Z" fill="black"/>
<path d="M192.177 74.6406C187.848 82.8125 185.557 91.8958 185.51 101.125C185.484 104.771 191.145 104.771 191.145 101.125C191.171 92.8802 193.187 84.7813 197.052 77.4948C198.749 74.2708 193.88 71.4167 192.177 74.6406Z" fill="white"/>
<path d="M204.656 80.8444C203.426 80.1308 201.432 80.4746 200.796 81.8548C198.26 87.2923 196.781 93.0267 196.437 99.0111C196.218 102.652 201.874 102.626 202.072 99.0111C202.369 94.0631 203.577 89.1881 205.666 84.709C206.307 83.3288 206.036 81.6569 204.656 80.8444Z" fill="white"/>
<path d="M214.702 87.2192C213.468 86.4797 211.499 86.8495 210.838 88.2297C209.827 90.2974 209.26 92.438 209.234 94.7245C209.213 96.2505 210.541 97.5578 212.067 97.5578C213.619 97.5578 214.874 96.2505 214.895 94.7245C214.921 93.4692 215.166 92.214 215.708 91.0838C216.4 89.7036 216.103 88.0317 214.702 87.2192Z" fill="white"/>
<path d="M218.739 163.422C218.343 163.422 217.947 163.203 217.755 162.834C217.458 162.292 217.656 161.599 218.218 161.308C240.395 149.417 251.718 124.782 257.307 106.198C263.385 85.9378 264.171 68.292 264.197 68.1201C264.223 67.6514 264.541 67.2347 264.984 67.0837C265.426 66.9378 265.921 67.0837 266.218 67.4795C266.317 67.6253 277.416 81.8545 295.775 95.6878C312.687 108.412 339.39 123.375 370.702 122.49C371.343 122.464 371.833 122.959 371.859 123.599C371.885 124.214 371.39 124.73 370.749 124.756C356.624 125.146 342.223 122.464 327.973 116.756C316.598 112.203 305.281 105.703 294.348 97.4587C280.072 86.7035 270.13 75.6774 266.218 71.0993C265.723 76.9795 264.15 91.1306 259.447 106.813C255.827 118.87 251.077 129.506 245.369 138.365C238.182 149.49 229.395 157.912 219.281 163.323C219.083 163.375 218.911 163.422 218.739 163.422Z" fill="black"/>
<path d="M224.103 547C245.811 536.786 253.837 517.781 228.358 468.927C202.858 420.068 154.52 373.328 148.416 358.438C142.311 343.568 138.15 320.677 140.098 311.865C142.041 303.057 147.207 283.953 150.14 272.411C153.067 260.87 141.697 258.281 134.978 267.76C128.259 277.234 122.744 289.469 122.744 289.469C122.744 289.469 93.65 239.182 85.3791 225.771C77.1083 212.328 64.5354 217.328 68.8427 231.797C73.15 246.271 85.551 272.089 85.551 272.089C85.551 272.089 61.801 239.896 48.0146 226.286C34.2333 212.672 25.1031 223.703 33.7177 237.141C42.3323 250.578 61.2593 278.292 61.2593 278.292C61.2593 278.292 35.9573 253.333 26.8271 243.859C17.6916 234.385 7.18122 245.755 18.3843 259.88C29.5823 274.01 43.1708 293.802 43.1708 293.802C43.1708 293.802 28.3531 287.771 15.4521 282.771C2.55622 277.776 -4.53232 286.906 3.22289 294.661C10.9729 302.417 40.926 320.135 45.0614 323.583C49.1968 327.026 55.0562 342.536 66.775 353.708C78.4885 364.885 77.801 363.875 84.176 376.453C90.551 389.031 135.27 496.047 154.15 522.068C173.03 548.083 198.061 559.255 224.103 547Z" fill="#F89786"/>
<path d="M241.332 501.708C240.52 501.708 239.754 501.193 239.463 500.38C230.056 473.677 212.707 446.479 199.806 428.386C185.806 408.745 173.916 395.255 173.791 395.136C173.077 394.323 173.15 393.068 173.963 392.354C174.775 391.641 176.03 391.714 176.744 392.526C176.869 392.672 188.905 406.287 203.036 426.099C216.077 444.412 233.65 471.953 243.202 499.078C243.572 500.109 243.03 501.245 241.999 501.589C241.775 501.662 241.551 501.708 241.332 501.708Z" fill="#EA6060"/>
<path d="M327.749 207.875C327.161 215.333 324.307 221.979 316.895 224.661C310.15 227.12 304.27 224.609 299.369 220.057C293.364 214.469 288.885 205.807 286.176 199.479C284.187 194.854 283.15 191.458 283.15 191.458L322.161 177.453C322.161 177.453 323.593 181.021 325.02 186.214C326.666 192.245 328.317 200.464 327.749 207.875Z" fill="black"/>
<path d="M325.119 186.141C310.223 196.505 294.15 198.938 286.077 199.479C284.088 194.828 283.025 191.406 283.025 191.406L322.26 177.328C322.239 177.328 323.687 180.896 325.119 186.141Z" fill="white"/>
<path d="M327.874 207.902C327.281 215.407 324.4 222.079 316.947 224.782C310.15 227.245 304.244 224.735 299.322 220.157C302.765 214.594 311.505 204.355 327.874 207.902Z" fill="#EA6060"/>
</svg>
