<svg width="9904" height="1527" viewBox="0 0 9904 1527" fill="none" xmlns="http://www.w3.org/2000/svg">
<g filter="url(#filter0_d_408_315)">
<path d="M114.844 600H717.188C805.078 600 875.781 603.906 929.297 611.719C983.203 619.531 1024.02 633.008 1051.76 652.148C1079.49 671.289 1098.24 697.461 1108.01 730.664C1117.77 763.867 1122.66 805.859 1122.66 856.641V880.078C1122.66 926.953 1116.99 967.383 1105.66 1001.37C1094.73 1034.96 1073.44 1062.3 1041.8 1083.4C1010.16 1104.1 963.281 1118.75 901.172 1127.34L1096.88 1500H984.375L792.773 1135.55C784.961 1135.94 776.758 1136.13 768.164 1136.13C759.961 1136.13 751.367 1136.13 742.383 1136.13H227.344V1500H114.844V600ZM227.344 1038.87H724.805C791.602 1038.87 844.141 1036.72 882.422 1032.42C921.094 1027.73 949.414 1019.73 967.383 1008.4C985.742 997.07 997.461 981.055 1002.54 960.352C1007.62 939.648 1010.16 912.891 1010.16 880.078V856.641C1010.16 819.531 1006.64 790.234 999.609 768.75C992.578 747.266 978.516 731.445 957.422 721.289C936.328 711.133 904.883 704.688 863.086 701.953C821.289 698.828 765.43 697.266 695.508 697.266H227.344V1038.87ZM1260.94 1500L1785.94 600H1935.94L2460.94 1500H2329.69L2217.19 1293.75H1504.69L1392.19 1500H1260.94ZM1560.94 1200H2160.94L1860.94 675L1560.94 1200ZM2613.28 1500V600H3281.25C3369.14 600 3441.41 605.273 3498.05 615.82C3554.69 626.367 3598.83 646.875 3630.47 677.344C3662.5 707.422 3684.77 751.367 3697.27 809.18C3710.16 866.992 3716.6 943.359 3716.6 1038.28V1061.72C3716.6 1153.52 3710.16 1228.32 3697.27 1286.13C3684.77 1343.55 3662.5 1387.89 3630.47 1419.14C3598.83 1450 3554.69 1471.29 3498.05 1483.01C3441.41 1494.34 3369.14 1500 3281.25 1500H2613.28ZM2725.78 1402.73H3281.25C3351.17 1402.73 3407.42 1399.41 3450 1392.77C3492.58 1386.13 3525 1371.68 3547.27 1349.41C3569.53 1327.15 3584.57 1293.16 3592.38 1247.46C3600.2 1201.76 3604.1 1139.84 3604.1 1061.72V1038.28C3604.1 973.438 3601.76 919.922 3597.07 877.734C3592.38 835.547 3583.59 802.344 3570.7 778.125C3558.2 753.516 3539.84 735.547 3515.62 724.219C3491.8 712.5 3460.74 705.078 3422.46 701.953C3384.18 698.828 3337.11 697.266 3281.25 697.266H2725.78V1402.73ZM3904.69 1500V600H4017.19V1500H3904.69ZM4640.04 1518.75C4552.15 1518.75 4479.88 1512.7 4423.24 1500.59C4366.6 1488.87 4322.27 1466.99 4290.23 1434.96C4258.59 1402.93 4236.33 1356.84 4223.44 1296.68C4210.94 1236.52 4204.69 1158.2 4204.69 1061.72V1038.28C4204.69 958.594 4208.59 891.797 4216.41 837.891C4224.22 783.594 4237.7 739.453 4256.84 705.469C4275.98 671.484 4301.95 645.508 4334.77 627.539C4367.97 609.57 4409.57 597.461 4459.57 591.211C4509.57 584.57 4569.73 581.25 4640.04 581.25H4876.17C4946.48 581.25 5006.64 584.57 5056.64 591.211C5106.64 597.461 5148.05 609.57 5180.86 627.539C5214.06 645.508 5240.23 671.484 5259.38 705.469C5278.52 739.453 5291.99 783.594 5299.8 837.891C5307.62 891.797 5311.52 958.594 5311.52 1038.28V1061.72C5311.52 1158.2 5305.08 1236.52 5292.19 1296.68C5279.69 1356.84 5257.42 1402.93 5225.39 1434.96C5193.75 1466.99 5149.61 1488.87 5092.97 1500.59C5036.33 1512.7 4964.06 1518.75 4876.17 1518.75H4640.04ZM4640.04 1421.48H4876.17C4932.03 1421.48 4979.1 1419.53 5017.38 1415.62C5055.66 1411.72 5086.72 1403.32 5110.55 1390.43C5134.77 1377.54 5153.12 1358.01 5165.62 1331.84C5178.52 1305.66 5187.3 1270.7 5191.99 1226.95C5196.68 1183.2 5199.02 1128.12 5199.02 1061.72V1038.28C5199.02 969.531 5196.68 912.891 5191.99 868.359C5187.3 823.828 5178.52 788.672 5165.62 762.891C5153.12 737.109 5134.77 718.359 5110.55 706.641C5086.72 694.531 5055.66 686.914 5017.38 683.789C4979.1 680.273 4932.03 678.516 4876.17 678.516H4640.04C4584.18 678.516 4537.11 680.273 4498.83 683.789C4460.55 686.914 4429.3 694.531 4405.08 706.641C4381.25 718.359 4362.89 737.109 4350 762.891C4337.5 788.672 4328.91 823.828 4324.22 868.359C4319.53 912.891 4317.19 969.531 4317.19 1038.28V1061.72C4317.19 1128.12 4319.53 1183.2 4324.22 1226.95C4328.91 1270.7 4337.5 1305.66 4350 1331.84C4362.89 1358.01 4381.25 1377.54 4405.08 1390.43C4429.3 1403.32 4460.55 1411.72 4498.83 1415.62C4537.11 1419.53 4584.18 1421.48 4640.04 1421.48ZM5842.97 1500V600H6010.55L6554.88 1334.18L7091.02 600H7258.59V1500H7146.09V701.953L6608.79 1440.82H6506.84L5955.47 701.953V1500H5842.97ZM7410.94 1500L7935.94 600H8085.94L8610.94 1500H8479.69L8367.19 1293.75H7654.69L7542.19 1500H7410.94ZM7710.94 1200H8310.94L8010.94 675L7710.94 1200ZM9718.95 1239.84C9718.95 1205.08 9716.21 1177.73 9710.74 1157.81C9705.27 1137.89 9692.97 1123.24 9673.83 1113.87C9654.69 1104.1 9625 1097.85 9584.77 1095.12C9544.53 1091.99 9489.45 1089.84 9419.53 1088.67L9093.75 1083.98C9013.28 1082.81 8948.63 1077.93 8899.8 1069.34C8850.98 1060.74 8814.06 1047.27 8789.06 1028.91C8764.06 1010.16 8747.27 985.156 8738.67 953.906C8730.47 922.656 8726.37 883.594 8726.37 836.719C8726.37 785.547 8732.03 743.359 8743.36 710.156C8755.08 676.953 8775.98 650.977 8806.05 632.227C8836.52 613.477 8879.49 600.391 8934.96 592.969C8990.43 585.156 9062.11 581.25 9150 581.25H9400.78C9480.47 581.25 9546.88 583.789 9600 588.867C9653.12 593.945 9695.31 605.664 9726.56 624.023C9757.81 642.383 9780.08 670.898 9793.36 709.57C9807.03 748.242 9813.87 801.367 9813.87 868.945H9701.37C9701.37 816.602 9696.29 777.148 9686.13 750.586C9676.37 723.633 9659.96 705.273 9636.91 695.508C9614.26 685.742 9583.59 680.469 9544.92 679.688C9506.25 678.906 9458.2 678.516 9400.78 678.516H9155.86C9085.94 678.516 9029.88 679.883 8987.7 682.617C8945.9 685.352 8914.26 691.602 8892.77 701.367C8871.29 711.133 8856.84 726.758 8849.41 748.242C8842.38 769.727 8838.87 799.219 8838.87 836.719C8838.87 868.359 8841.41 893.75 8846.48 912.891C8851.56 932.031 8862.89 946.68 8880.47 956.836C8898.44 966.602 8925.98 973.438 8963.09 977.344C9000.2 980.859 9050.78 983.008 9114.84 983.789L9464.06 988.477C9546.09 989.648 9611.52 994.531 9660.35 1003.12C9709.57 1011.33 9746.29 1024.8 9770.51 1043.55C9795.12 1062.3 9811.33 1087.7 9819.14 1119.73C9827.34 1151.37 9831.45 1191.41 9831.45 1239.84C9831.45 1292.58 9826.37 1336.91 9816.21 1372.85C9806.45 1408.4 9787.3 1436.91 9758.79 1458.4C9730.27 1479.88 9689.06 1495.31 9635.16 1504.69C9581.25 1514.06 9510.35 1518.75 9422.46 1518.75H9148.24C9068.16 1518.75 9000.98 1515.23 8946.68 1508.2C8892.38 1501.17 8849.02 1487.11 8816.6 1466.02C8784.57 1444.53 8761.52 1412.7 8747.46 1370.51C8733.4 1328.32 8726.37 1272.07 8726.37 1201.76H8838.87C8838.87 1256.84 8843.36 1299.41 8852.34 1329.49C8861.33 1359.57 8876.95 1381.25 8899.22 1394.53C8921.88 1407.42 8953.32 1415.23 8993.55 1417.97C9034.18 1420.31 9085.74 1421.48 9148.24 1421.48H9416.6C9486.52 1421.48 9541.8 1419.34 9582.42 1415.04C9623.05 1410.35 9653.12 1401.76 9672.66 1389.26C9692.19 1376.37 9704.69 1358.01 9710.16 1334.18C9716.02 1310.35 9718.95 1278.91 9718.95 1239.84Z" fill="url(#paint0_linear_408_315)"/>
</g>
<defs>
<filter id="filter0_d_408_315" x="110.844" y="581.25" width="9724.6" height="945.5" filterUnits="userSpaceOnUse" color-interpolation-filters="sRGB">
<feFlood flood-opacity="0" result="BackgroundImageFix"/>
<feColorMatrix in="SourceAlpha" type="matrix" values="0 0 0 0 0 0 0 0 0 0 0 0 0 0 0 0 0 0 127 0" result="hardAlpha"/>
<feOffset dy="4"/>
<feGaussianBlur stdDeviation="2"/>
<feComposite in2="hardAlpha" operator="out"/>
<feColorMatrix type="matrix" values="0 0 0 0 0 0 0 0 0 0 0 0 0 0 0 0 0 0 0.25 0"/>
<feBlend mode="normal" in2="BackgroundImageFix" result="effect1_dropShadow_408_315"/>
<feBlend mode="normal" in="SourceGraphic" in2="effect1_dropShadow_408_315" result="shape"/>
</filter>
<linearGradient id="paint0_linear_408_315" x1="4952" y1="1500" x2="4952" y2="0" gradientUnits="userSpaceOnUse">
<stop stop-color="#F14B00"/>
<stop offset="0.333333" stop-color="#F87100"/>
<stop offset="0.666667" stop-color="#FE9700"/>
<stop offset="1" stop-color="#F45E00"/>
</linearGradient>
</defs>
</svg>
