<svg width="485" height="202" viewBox="0 0 485 202" fill="none" xmlns="http://www.w3.org/2000/svg">
<path fill-rule="evenodd" clip-rule="evenodd" d="M6.7901 9.9176L0 38.537H48.0157L10.2256 197.704L55.7758 197.178L92.5151 42.4231C93.0405 40.1562 95.1018 38.537 97.446 38.537H270.432L232.642 197.704L278.192 197.178L314.931 42.4231C315.457 40.1562 317.518 38.537 319.862 38.537H465.728C471.71 38.537 476.883 34.4485 478.257 28.6194L485.007 0H19.3194C13.3781 0 8.16429 4.08848 6.7901 9.9176Z" fill="white"/>
<path fill-rule="evenodd" clip-rule="evenodd" d="M200.19 66.6707L198.856 72.257C198.573 73.5119 196.956 73.8762 196.148 72.9047C188.348 63.4323 176.061 58.089 158.762 58.6557C125.984 59.6677 97.9342 84.1986 87.6682 129.617C77.6043 174.105 94.822 202.198 131.4 201.064C144.212 200.66 157.024 195.681 168.381 187.342C169.715 186.37 171.494 187.544 171.13 189.163L168.786 199.121L214.336 198.595L247.033 60.8821L207.02 61.3274C203.747 61.2869 200.917 63.5133 200.19 66.6707ZM182.042 96.3021L167.654 155.443C165.512 164.268 158.56 170.502 150.8 170.583L144.212 170.623C138.19 170.664 133.946 164.066 135.643 157.184L148.9 102.738C150.396 96.626 155.246 92.2946 160.621 92.2946H179.496C181.275 92.2946 182.527 94.2376 182.042 96.3021Z" fill="white"/>
<path fill-rule="evenodd" clip-rule="evenodd" d="M422.04 72.257C421.757 73.5119 420.14 73.8762 419.332 72.9047C411.531 63.4323 399.244 58.089 381.946 58.6557C349.167 59.6677 321.118 84.1986 310.852 129.617C300.788 174.105 318.006 202.198 354.583 201.064C367.396 200.66 380.208 195.681 391.565 187.342C392.899 186.37 394.677 187.544 394.313 189.163L391.969 199.121L437.519 198.595L470.217 60.8821L430.204 61.3274C426.971 61.3679 424.182 63.5943 423.414 66.7517L422.04 72.257ZM405.226 96.3021L390.838 155.443C388.695 164.268 381.744 170.502 373.984 170.583L367.396 170.623C361.373 170.664 357.13 164.066 358.827 157.184L372.084 102.738C373.579 96.626 378.429 92.2946 383.805 92.2946H402.68C404.499 92.2946 405.711 94.2376 405.226 96.3021Z" fill="white"/>
</svg>
