<svg width="778" height="204" viewBox="0 0 778 204" fill="none" xmlns="http://www.w3.org/2000/svg">
<path d="M0 0H63.6089L152.692 201H92.4364L0 0Z" fill="white"/>
<path d="M171.867 0H224.058L197.529 57.8994L171.867 0Z" fill="white"/>
<path d="M281.559 19H276.172V1.54545H281.797C283.49 1.54545 284.939 1.89489 286.144 2.59375C287.348 3.28693 288.272 4.28409 288.914 5.58523C289.556 6.88068 289.877 8.43182 289.877 10.2386C289.877 12.0568 289.553 13.6222 288.905 14.9347C288.257 16.2415 287.314 17.2472 286.076 17.9517C284.837 18.6506 283.331 19 281.559 19ZM278.286 17.125H281.422C282.865 17.125 284.061 16.8466 285.01 16.2898C285.959 15.733 286.667 14.9403 287.132 13.9119C287.598 12.8835 287.831 11.6591 287.831 10.2386C287.831 8.82955 287.601 7.61648 287.141 6.59943C286.681 5.5767 285.993 4.79261 285.078 4.24716C284.164 3.69602 283.025 3.42045 281.661 3.42045H278.286V17.125ZM293.422 19V1.54545H303.956V3.42045H295.536V9.31818H303.411V11.1932H295.536V17.125H304.093V19H293.422ZM317.311 5.90909C317.209 5.04545 316.794 4.375 316.067 3.89773C315.34 3.42045 314.448 3.18182 313.391 3.18182C312.618 3.18182 311.942 3.30682 311.363 3.55682C310.789 3.80682 310.34 4.15057 310.016 4.58807C309.698 5.02557 309.539 5.52273 309.539 6.07954C309.539 6.54545 309.65 6.94602 309.871 7.28125C310.098 7.6108 310.388 7.88636 310.74 8.10795C311.093 8.32386 311.462 8.50284 311.848 8.64489C312.235 8.78125 312.59 8.89205 312.914 8.97727L314.686 9.45455C315.141 9.57386 315.647 9.73864 316.203 9.94886C316.766 10.1591 317.303 10.446 317.814 10.8097C318.331 11.1676 318.757 11.6278 319.093 12.1903C319.428 12.7528 319.596 13.4432 319.596 14.2614C319.596 15.2045 319.348 16.0568 318.854 16.8182C318.365 17.5795 317.65 18.1847 316.706 18.6335C315.769 19.0824 314.63 19.3068 313.289 19.3068C312.039 19.3068 310.956 19.1051 310.042 18.7017C309.132 18.2983 308.417 17.7358 307.894 17.0142C307.377 16.2926 307.084 15.4545 307.016 14.5H309.198C309.255 15.1591 309.476 15.7045 309.863 16.1364C310.255 16.5625 310.749 16.8807 311.346 17.0909C311.948 17.2955 312.596 17.3977 313.289 17.3977C314.096 17.3977 314.82 17.267 315.462 17.0057C316.104 16.7386 316.613 16.3693 316.988 15.8977C317.363 15.4205 317.55 14.8636 317.55 14.2273C317.55 13.6477 317.388 13.1761 317.064 12.8125C316.74 12.4489 316.314 12.1534 315.786 11.9261C315.257 11.6989 314.686 11.5 314.073 11.3295L311.925 10.7159C310.561 10.3239 309.482 9.7642 308.686 9.03693C307.891 8.30966 307.493 7.35795 307.493 6.18182C307.493 5.20454 307.757 4.35227 308.286 3.625C308.82 2.89205 309.536 2.32386 310.434 1.92045C311.337 1.51136 312.346 1.30682 313.459 1.30682C314.584 1.30682 315.584 1.50852 316.459 1.91193C317.334 2.30966 318.027 2.85511 318.539 3.54829C319.056 4.24148 319.328 5.02841 319.357 5.90909H317.311ZM328.457 19H323.071V1.54545H328.696C330.389 1.54545 331.838 1.89489 333.042 2.59375C334.247 3.28693 335.17 4.28409 335.812 5.58523C336.454 6.88068 336.775 8.43182 336.775 10.2386C336.775 12.0568 336.451 13.6222 335.804 14.9347C335.156 16.2415 334.213 17.2472 332.974 17.9517C331.735 18.6506 330.23 19 328.457 19ZM325.184 17.125H328.321C329.764 17.125 330.96 16.8466 331.909 16.2898C332.858 15.733 333.565 14.9403 334.031 13.9119C334.497 12.8835 334.73 11.6591 334.73 10.2386C334.73 8.82955 334.5 7.61648 334.039 6.59943C333.579 5.5767 332.892 4.79261 331.977 4.24716C331.062 3.69602 329.923 3.42045 328.559 3.42045H325.184V17.125ZM340.321 19V1.54545H350.855V3.42045H342.434V9.31818H350.309V11.1932H342.434V17.125H350.991V19H340.321ZM361.108 19V17.4659L366.869 11.1591C367.545 10.4205 368.102 9.77841 368.539 9.23295C368.977 8.68182 369.301 8.16477 369.511 7.68182C369.727 7.19318 369.835 6.68182 369.835 6.14773C369.835 5.53409 369.687 5.00284 369.392 4.55398C369.102 4.10511 368.704 3.75852 368.199 3.5142C367.693 3.26989 367.125 3.14773 366.494 3.14773C365.824 3.14773 365.238 3.28693 364.738 3.56534C364.244 3.83807 363.86 4.22159 363.588 4.71591C363.321 5.21023 363.187 5.78977 363.187 6.45454H361.176C361.176 5.43182 361.412 4.53409 361.883 3.76136C362.355 2.98864 362.997 2.38636 363.809 1.95454C364.627 1.52273 365.545 1.30682 366.562 1.30682C367.585 1.30682 368.491 1.52273 369.281 1.95454C370.071 2.38636 370.69 2.96875 371.139 3.7017C371.588 4.43466 371.812 5.25 371.812 6.14773C371.812 6.78977 371.696 7.41761 371.463 8.03125C371.235 8.6392 370.838 9.31818 370.27 10.0682C369.707 10.8125 368.926 11.7216 367.926 12.7955L364.005 16.9886V17.125H372.119V19H361.108ZM381.332 19.2386C380.048 19.2386 378.954 18.8892 378.051 18.1903C377.147 17.4858 376.457 16.4659 375.98 15.1307C375.502 13.7898 375.264 12.1705 375.264 10.2727C375.264 8.38636 375.502 6.77557 375.98 5.44034C376.463 4.09943 377.156 3.0767 378.059 2.37216C378.968 1.66193 380.059 1.30682 381.332 1.30682C382.605 1.30682 383.693 1.66193 384.596 2.37216C385.505 3.0767 386.199 4.09943 386.676 5.44034C387.159 6.77557 387.4 8.38636 387.4 10.2727C387.4 12.1705 387.162 13.7898 386.684 15.1307C386.207 16.4659 385.517 17.4858 384.613 18.1903C383.71 18.8892 382.616 19.2386 381.332 19.2386ZM381.332 17.3636C382.605 17.3636 383.593 16.75 384.298 15.5227C385.002 14.2955 385.355 12.5455 385.355 10.2727C385.355 8.76136 385.193 7.47443 384.869 6.41193C384.551 5.34943 384.091 4.53977 383.488 3.98295C382.892 3.42614 382.173 3.14773 381.332 3.14773C380.071 3.14773 379.085 3.76989 378.375 5.0142C377.664 6.25284 377.309 8.00568 377.309 10.2727C377.309 11.7841 377.468 13.0682 377.787 14.125C378.105 15.1818 378.562 15.9858 379.159 16.5369C379.761 17.0881 380.485 17.3636 381.332 17.3636ZM396.332 19.2386C395.048 19.2386 393.954 18.8892 393.051 18.1903C392.147 17.4858 391.457 16.4659 390.98 15.1307C390.502 13.7898 390.264 12.1705 390.264 10.2727C390.264 8.38636 390.502 6.77557 390.98 5.44034C391.463 4.09943 392.156 3.0767 393.059 2.37216C393.968 1.66193 395.059 1.30682 396.332 1.30682C397.605 1.30682 398.693 1.66193 399.596 2.37216C400.505 3.0767 401.199 4.09943 401.676 5.44034C402.159 6.77557 402.4 8.38636 402.4 10.2727C402.4 12.1705 402.162 13.7898 401.684 15.1307C401.207 16.4659 400.517 17.4858 399.613 18.1903C398.71 18.8892 397.616 19.2386 396.332 19.2386ZM396.332 17.3636C397.605 17.3636 398.593 16.75 399.298 15.5227C400.002 14.2955 400.355 12.5455 400.355 10.2727C400.355 8.76136 400.193 7.47443 399.869 6.41193C399.551 5.34943 399.091 4.53977 398.488 3.98295C397.892 3.42614 397.173 3.14773 396.332 3.14773C395.071 3.14773 394.085 3.76989 393.375 5.0142C392.664 6.25284 392.309 8.00568 392.309 10.2727C392.309 11.7841 392.468 13.0682 392.787 14.125C393.105 15.1818 393.562 15.9858 394.159 16.5369C394.761 17.0881 395.485 17.3636 396.332 17.3636ZM411.537 19.2386C410.412 19.2386 409.409 19.0455 408.528 18.6591C407.653 18.2727 406.957 17.7358 406.44 17.0483C405.929 16.3551 405.65 15.5511 405.605 14.6364H407.752C407.798 15.1989 407.991 15.6847 408.332 16.0938C408.673 16.4972 409.119 16.8097 409.67 17.0312C410.221 17.2528 410.832 17.3636 411.502 17.3636C412.252 17.3636 412.917 17.233 413.497 16.9716C414.076 16.7102 414.531 16.3466 414.86 15.8807C415.19 15.4148 415.355 14.875 415.355 14.2614C415.355 13.6193 415.196 13.054 414.877 12.5653C414.559 12.071 414.093 11.6847 413.48 11.4062C412.866 11.1278 412.116 10.9886 411.23 10.9886H409.832V9.11364H411.23C411.923 9.11364 412.531 8.98864 413.054 8.73864C413.582 8.48864 413.994 8.13636 414.289 7.68182C414.591 7.22727 414.741 6.69318 414.741 6.07954C414.741 5.48864 414.61 4.97443 414.349 4.53693C414.088 4.09943 413.718 3.75852 413.241 3.5142C412.77 3.26989 412.213 3.14773 411.571 3.14773C410.968 3.14773 410.4 3.25852 409.866 3.48011C409.338 3.69602 408.906 4.01136 408.571 4.42614C408.235 4.83523 408.054 5.32955 408.025 5.90909H405.98C406.014 4.99432 406.289 4.19318 406.806 3.50568C407.324 2.8125 408 2.27273 408.835 1.88636C409.676 1.5 410.599 1.30682 411.605 1.30682C412.684 1.30682 413.61 1.52557 414.383 1.96307C415.156 2.39489 415.75 2.96591 416.164 3.67614C416.579 4.38636 416.787 5.15341 416.787 5.97727C416.787 6.96023 416.528 7.7983 416.011 8.49148C415.5 9.18466 414.804 9.66477 413.923 9.93182V10.0682C415.025 10.25 415.886 10.7187 416.505 11.4744C417.125 12.2244 417.434 13.1534 417.434 14.2614C417.434 15.2102 417.176 16.0625 416.659 16.8182C416.147 17.5682 415.449 18.1591 414.562 18.5909C413.676 19.0227 412.667 19.2386 411.537 19.2386Z" fill="white"/>
<path d="M292.74 58.1818L309.615 111.227H310.263L327.172 58.1818H343.536L319.468 128H300.445L276.343 58.1818H292.74ZM366.701 58.1818V128H351.939V58.1818H366.701ZM425.141 80.75C424.664 79.0909 423.993 77.625 423.13 76.3523C422.266 75.0568 421.209 73.9659 419.959 73.0795C418.732 72.1705 417.323 71.4773 415.732 71C414.164 70.5227 412.425 70.2841 410.516 70.2841C406.948 70.2841 403.811 71.1705 401.107 72.9432C398.425 74.7159 396.334 77.2955 394.834 80.6818C393.334 84.0455 392.584 88.1591 392.584 93.0227C392.584 97.8864 393.323 102.023 394.8 105.432C396.277 108.841 398.368 111.443 401.073 113.239C403.777 115.011 406.971 115.898 410.652 115.898C413.993 115.898 416.846 115.307 419.209 114.125C421.596 112.92 423.414 111.227 424.664 109.045C425.936 106.864 426.573 104.284 426.573 101.307L429.573 101.75H411.573V90.6364H440.789V99.4318C440.789 105.568 439.493 110.841 436.902 115.25C434.311 119.636 430.743 123.023 426.198 125.409C421.652 127.773 416.448 128.955 410.584 128.955C404.039 128.955 398.289 127.511 393.334 124.625C388.38 121.716 384.516 117.591 381.743 112.25C378.993 106.886 377.618 100.523 377.618 93.1591C377.618 87.5 378.436 82.4545 380.073 78.0227C381.732 73.5682 384.05 69.7955 387.027 66.7045C390.005 63.6136 393.471 61.2614 397.425 59.6477C401.38 58.0341 405.664 57.2273 410.277 57.2273C414.232 57.2273 417.914 57.8068 421.323 58.9659C424.732 60.1023 427.755 61.7159 430.391 63.8068C433.05 65.8977 435.221 68.3864 436.902 71.2727C438.584 74.1364 439.664 77.2955 440.141 80.75H425.141ZM451.877 128V58.1818H466.638V115.83H496.57V128H451.877ZM521.107 58.1818V128H506.346V58.1818H521.107ZM597.411 93.0909C597.411 100.705 595.968 107.182 593.081 112.523C590.218 117.864 586.309 121.943 581.354 124.761C576.422 127.557 570.877 128.955 564.718 128.955C558.513 128.955 552.945 127.545 548.013 124.727C543.081 121.909 539.184 117.83 536.32 112.489C533.456 107.148 532.025 100.682 532.025 93.0909C532.025 85.4773 533.456 79 536.32 73.6591C539.184 68.3182 543.081 64.25 548.013 61.4545C552.945 58.6364 558.513 57.2273 564.718 57.2273C570.877 57.2273 576.422 58.6364 581.354 61.4545C586.309 64.25 590.218 68.3182 593.081 73.6591C595.968 79 597.411 85.4773 597.411 93.0909ZM582.445 93.0909C582.445 88.1591 581.706 84 580.229 80.6136C578.775 77.2273 576.718 74.6591 574.059 72.9091C571.4 71.1591 568.286 70.2841 564.718 70.2841C561.15 70.2841 558.036 71.1591 555.377 72.9091C552.718 74.6591 550.65 77.2273 549.172 80.6136C547.718 84 546.99 88.1591 546.99 93.0909C546.99 98.0227 547.718 102.182 549.172 105.568C550.65 108.955 552.718 111.523 555.377 113.273C558.036 115.023 561.15 115.898 564.718 115.898C568.286 115.898 571.4 115.023 574.059 113.273C576.718 111.523 578.775 108.955 580.229 105.568C581.706 102.182 582.445 98.0227 582.445 93.0909ZM666.743 58.1818V128H653.993L623.618 84.0568H623.107V128H608.346V58.1818H621.3L651.436 102.091H652.05V58.1818H666.743ZM693.701 58.1818V128H678.939V58.1818H693.701Z" fill="white"/>
<path d="M297.99 169.818V196H294.922L280.655 175.443H280.4V196H277.229V169.818H280.297L294.615 190.426H294.871V169.818H297.99ZM312.158 196.409C310.266 196.409 308.634 195.991 307.262 195.156C305.898 194.312 304.846 193.136 304.104 191.628C303.371 190.111 303.005 188.347 303.005 186.335C303.005 184.324 303.371 182.551 304.104 181.017C304.846 179.474 305.877 178.273 307.198 177.412C308.528 176.543 310.079 176.108 311.852 176.108C312.874 176.108 313.884 176.278 314.881 176.619C315.879 176.96 316.786 177.514 317.604 178.281C318.423 179.04 319.075 180.045 319.56 181.298C320.046 182.551 320.289 184.094 320.289 185.926V187.205H305.153V184.597H317.221C317.221 183.489 316.999 182.5 316.556 181.631C316.121 180.761 315.499 180.075 314.69 179.572C313.888 179.07 312.942 178.818 311.852 178.818C310.65 178.818 309.61 179.116 308.732 179.713C307.863 180.301 307.194 181.068 306.725 182.014C306.256 182.96 306.022 183.974 306.022 185.057V186.795C306.022 188.278 306.278 189.536 306.789 190.567C307.309 191.589 308.029 192.369 308.95 192.906C309.87 193.435 310.94 193.699 312.158 193.699C312.951 193.699 313.667 193.588 314.306 193.366C314.954 193.136 315.512 192.795 315.981 192.344C316.45 191.884 316.812 191.312 317.067 190.631L319.982 191.449C319.675 192.438 319.16 193.307 318.435 194.057C317.711 194.798 316.816 195.378 315.751 195.795C314.685 196.205 313.488 196.409 312.158 196.409ZM332.805 203.773C331.347 203.773 330.094 203.585 329.046 203.21C327.998 202.844 327.124 202.358 326.425 201.753C325.735 201.156 325.185 200.517 324.776 199.835L327.18 198.148C327.452 198.506 327.798 198.915 328.215 199.375C328.633 199.844 329.204 200.249 329.928 200.589C330.661 200.939 331.62 201.114 332.805 201.114C334.39 201.114 335.698 200.73 336.729 199.963C337.761 199.196 338.276 197.994 338.276 196.358V192.369H338.021C337.799 192.727 337.484 193.17 337.075 193.699C336.674 194.219 336.094 194.683 335.336 195.092C334.586 195.493 333.572 195.693 332.293 195.693C330.708 195.693 329.285 195.318 328.023 194.568C326.771 193.818 325.778 192.727 325.045 191.295C324.32 189.864 323.958 188.125 323.958 186.08C323.958 184.068 324.312 182.317 325.019 180.825C325.727 179.325 326.711 178.166 327.972 177.348C329.234 176.521 330.691 176.108 332.344 176.108C333.623 176.108 334.637 176.321 335.387 176.747C336.146 177.165 336.725 177.642 337.126 178.179C337.535 178.707 337.85 179.142 338.072 179.483H338.379V176.364H341.293V196.562C341.293 198.25 340.91 199.622 340.143 200.679C339.384 201.744 338.362 202.524 337.075 203.018C335.796 203.521 334.373 203.773 332.805 203.773ZM332.702 192.983C333.913 192.983 334.935 192.706 335.771 192.152C336.606 191.598 337.241 190.801 337.675 189.761C338.11 188.722 338.327 187.477 338.327 186.028C338.327 184.614 338.114 183.365 337.688 182.283C337.262 181.2 336.631 180.352 335.796 179.739C334.961 179.125 333.93 178.818 332.702 178.818C331.424 178.818 330.359 179.142 329.506 179.79C328.663 180.437 328.028 181.307 327.602 182.398C327.184 183.489 326.975 184.699 326.975 186.028C326.975 187.392 327.188 188.598 327.614 189.646C328.049 190.686 328.688 191.504 329.532 192.101C330.384 192.689 331.441 192.983 332.702 192.983ZM354.793 196.409C353.021 196.409 351.465 195.987 350.127 195.143C348.798 194.3 347.758 193.119 347.008 191.602C346.266 190.085 345.896 188.312 345.896 186.284C345.896 184.239 346.266 182.453 347.008 180.928C347.758 179.402 348.798 178.217 350.127 177.374C351.465 176.53 353.021 176.108 354.793 176.108C356.566 176.108 358.117 176.53 359.447 177.374C360.785 178.217 361.825 179.402 362.566 180.928C363.316 182.453 363.691 184.239 363.691 186.284C363.691 188.312 363.316 190.085 362.566 191.602C361.825 193.119 360.785 194.3 359.447 195.143C358.117 195.987 356.566 196.409 354.793 196.409ZM354.793 193.699C356.14 193.699 357.248 193.354 358.117 192.663C358.987 191.973 359.63 191.065 360.048 189.94C360.465 188.815 360.674 187.597 360.674 186.284C360.674 184.972 360.465 183.749 360.048 182.615C359.63 181.482 358.987 180.565 358.117 179.866C357.248 179.168 356.14 178.818 354.793 178.818C353.447 178.818 352.339 179.168 351.469 179.866C350.6 180.565 349.957 181.482 349.539 182.615C349.121 183.749 348.913 184.972 348.913 186.284C348.913 187.597 349.121 188.815 349.539 189.94C349.957 191.065 350.6 191.973 351.469 192.663C352.339 193.354 353.447 193.699 354.793 193.699ZM376.274 196.409C374.433 196.409 372.848 195.974 371.518 195.105C370.189 194.236 369.166 193.038 368.45 191.513C367.734 189.987 367.376 188.244 367.376 186.284C367.376 184.29 367.743 182.53 368.475 181.004C369.217 179.47 370.248 178.273 371.569 177.412C372.899 176.543 374.45 176.108 376.223 176.108C377.603 176.108 378.848 176.364 379.956 176.875C381.064 177.386 381.971 178.102 382.679 179.023C383.386 179.943 383.825 181.017 383.995 182.244H380.978C380.748 181.349 380.237 180.557 379.444 179.866C378.66 179.168 377.603 178.818 376.274 178.818C375.098 178.818 374.066 179.125 373.18 179.739C372.302 180.344 371.616 181.2 371.122 182.308C370.636 183.408 370.393 184.699 370.393 186.182C370.393 187.699 370.632 189.02 371.109 190.145C371.595 191.27 372.277 192.143 373.154 192.766C374.041 193.388 375.081 193.699 376.274 193.699C377.058 193.699 377.77 193.562 378.409 193.29C379.048 193.017 379.589 192.625 380.032 192.114C380.475 191.602 380.791 190.989 380.978 190.273H383.995C383.825 191.432 383.403 192.476 382.73 193.405C382.065 194.325 381.183 195.058 380.083 195.604C378.993 196.141 377.723 196.409 376.274 196.409ZM388.406 196V176.364H391.423V196H388.406ZM389.94 173.091C389.352 173.091 388.845 172.891 388.419 172.49C388.001 172.089 387.792 171.608 387.792 171.045C387.792 170.483 388.001 170.001 388.419 169.601C388.845 169.2 389.352 169 389.94 169C390.528 169 391.031 169.2 391.449 169.601C391.875 170.001 392.088 170.483 392.088 171.045C392.088 171.608 391.875 172.089 391.449 172.49C391.031 172.891 390.528 173.091 389.94 173.091ZM404.926 196.409C403.153 196.409 401.598 195.987 400.26 195.143C398.93 194.3 397.891 193.119 397.141 191.602C396.399 190.085 396.028 188.312 396.028 186.284C396.028 184.239 396.399 182.453 397.141 180.928C397.891 179.402 398.93 178.217 400.26 177.374C401.598 176.53 403.153 176.108 404.926 176.108C406.699 176.108 408.25 176.53 409.58 177.374C410.918 178.217 411.957 179.402 412.699 180.928C413.449 182.453 413.824 184.239 413.824 186.284C413.824 188.312 413.449 190.085 412.699 191.602C411.957 193.119 410.918 194.3 409.58 195.143C408.25 195.987 406.699 196.409 404.926 196.409ZM404.926 193.699C406.273 193.699 407.381 193.354 408.25 192.663C409.119 191.973 409.763 191.065 410.18 189.94C410.598 188.815 410.807 187.597 410.807 186.284C410.807 184.972 410.598 183.749 410.18 182.615C409.763 181.482 409.119 180.565 408.25 179.866C407.381 179.168 406.273 178.818 404.926 178.818C403.58 178.818 402.472 179.168 401.602 179.866C400.733 180.565 400.089 181.482 399.672 182.615C399.254 183.749 399.045 184.972 399.045 186.284C399.045 187.597 399.254 188.815 399.672 189.94C400.089 191.065 400.733 191.973 401.602 192.663C402.472 193.354 403.58 193.699 404.926 193.699ZM432.338 180.761L429.628 181.528C429.458 181.077 429.206 180.638 428.874 180.212C428.55 179.777 428.107 179.419 427.544 179.138C426.982 178.857 426.262 178.716 425.384 178.716C424.182 178.716 423.181 178.993 422.38 179.547C421.587 180.092 421.191 180.787 421.191 181.631C421.191 182.381 421.463 182.973 422.009 183.408C422.554 183.842 423.407 184.205 424.566 184.494L427.48 185.21C429.236 185.636 430.544 186.288 431.405 187.166C432.266 188.036 432.696 189.156 432.696 190.528C432.696 191.653 432.373 192.659 431.725 193.545C431.086 194.432 430.191 195.131 429.04 195.642C427.89 196.153 426.551 196.409 425.026 196.409C423.023 196.409 421.365 195.974 420.053 195.105C418.74 194.236 417.909 192.966 417.56 191.295L420.424 190.58C420.696 191.636 421.212 192.429 421.971 192.957C422.738 193.486 423.739 193.75 424.975 193.75C426.381 193.75 427.498 193.452 428.324 192.855C429.159 192.25 429.577 191.526 429.577 190.682C429.577 190 429.338 189.429 428.861 188.969C428.384 188.5 427.651 188.151 426.662 187.92L423.39 187.153C421.591 186.727 420.27 186.067 419.426 185.172C418.591 184.268 418.174 183.139 418.174 181.784C418.174 180.676 418.485 179.696 419.107 178.844C419.738 177.991 420.594 177.322 421.676 176.837C422.767 176.351 424.003 176.108 425.384 176.108C427.327 176.108 428.853 176.534 429.961 177.386C431.077 178.239 431.87 179.364 432.338 180.761ZM447.363 196V176.364H450.278V179.33H450.482C450.84 178.358 451.488 177.57 452.425 176.964C453.363 176.359 454.42 176.057 455.596 176.057C455.817 176.057 456.094 176.061 456.427 176.07C456.759 176.078 457.011 176.091 457.181 176.108V179.176C457.079 179.151 456.844 179.112 456.478 179.061C456.12 179.001 455.741 178.972 455.34 178.972C454.386 178.972 453.533 179.172 452.783 179.572C452.042 179.964 451.454 180.51 451.019 181.209C450.593 181.899 450.38 182.687 450.38 183.574V196H447.363ZM473.132 187.972V176.364H476.15V196H473.132V192.676H472.928C472.468 193.673 471.752 194.521 470.78 195.22C469.809 195.911 468.581 196.256 467.098 196.256C465.871 196.256 464.78 195.987 463.826 195.45C462.871 194.905 462.121 194.087 461.576 192.996C461.03 191.896 460.757 190.511 460.757 188.841V176.364H463.775V188.636C463.775 190.068 464.175 191.21 464.976 192.062C465.786 192.915 466.817 193.341 468.07 193.341C468.82 193.341 469.583 193.149 470.358 192.766C471.142 192.382 471.799 191.794 472.327 191.001C472.864 190.209 473.132 189.199 473.132 187.972ZM481.675 196V176.364H484.59V179.33H484.795C485.153 178.358 485.8 177.57 486.738 176.964C487.675 176.359 488.732 176.057 489.908 176.057C490.13 176.057 490.407 176.061 490.739 176.07C491.072 176.078 491.323 176.091 491.494 176.108V179.176C491.391 179.151 491.157 179.112 490.79 179.061C490.433 179.001 490.053 178.972 489.653 178.972C488.698 178.972 487.846 179.172 487.096 179.572C486.354 179.964 485.766 180.51 485.332 181.209C484.906 181.899 484.692 182.687 484.692 183.574V196H481.675ZM500.848 196.46C499.604 196.46 498.475 196.226 497.461 195.757C496.446 195.28 495.641 194.594 495.044 193.699C494.448 192.795 494.15 191.705 494.15 190.426C494.15 189.301 494.371 188.389 494.814 187.69C495.257 186.983 495.85 186.429 496.591 186.028C497.333 185.628 498.151 185.33 499.046 185.134C499.949 184.929 500.857 184.767 501.769 184.648C502.962 184.494 503.929 184.379 504.671 184.303C505.421 184.217 505.966 184.077 506.307 183.881C506.657 183.685 506.831 183.344 506.831 182.858V182.756C506.831 181.494 506.486 180.514 505.796 179.815C505.114 179.116 504.078 178.767 502.689 178.767C501.249 178.767 500.12 179.082 499.301 179.713C498.483 180.344 497.908 181.017 497.576 181.733L494.712 180.71C495.223 179.517 495.905 178.588 496.757 177.923C497.618 177.25 498.556 176.781 499.57 176.517C500.593 176.244 501.598 176.108 502.587 176.108C503.218 176.108 503.942 176.185 504.76 176.338C505.587 176.483 506.384 176.786 507.151 177.246C507.926 177.706 508.57 178.401 509.081 179.33C509.593 180.259 509.848 181.503 509.848 183.062V196H506.831V193.341H506.678C506.473 193.767 506.132 194.223 505.655 194.709C505.178 195.195 504.543 195.608 503.75 195.949C502.958 196.29 501.99 196.46 500.848 196.46ZM501.309 193.75C502.502 193.75 503.507 193.516 504.326 193.047C505.152 192.578 505.775 191.973 506.192 191.232C506.618 190.49 506.831 189.71 506.831 188.892V186.131C506.703 186.284 506.422 186.425 505.988 186.553C505.561 186.672 505.067 186.778 504.505 186.872C503.951 186.957 503.409 187.034 502.881 187.102C502.361 187.162 501.939 187.213 501.615 187.256C500.831 187.358 500.098 187.524 499.417 187.754C498.743 187.976 498.198 188.312 497.78 188.764C497.371 189.207 497.167 189.812 497.167 190.58C497.167 191.628 497.554 192.42 498.33 192.957C499.114 193.486 500.107 193.75 501.309 193.75ZM518.372 169.818V196H515.355V169.818H518.372ZM532.131 196.409C530.239 196.409 528.607 195.991 527.235 195.156C525.871 194.312 524.819 193.136 524.077 191.628C523.344 190.111 522.978 188.347 522.978 186.335C522.978 184.324 523.344 182.551 524.077 181.017C524.819 179.474 525.85 178.273 527.171 177.412C528.5 176.543 530.051 176.108 531.824 176.108C532.847 176.108 533.857 176.278 534.854 176.619C535.851 176.96 536.759 177.514 537.577 178.281C538.395 179.04 539.047 180.045 539.533 181.298C540.019 182.551 540.262 184.094 540.262 185.926V187.205H525.125V184.597H537.194C537.194 183.489 536.972 182.5 536.529 181.631C536.094 180.761 535.472 180.075 534.662 179.572C533.861 179.07 532.915 178.818 531.824 178.818C530.623 178.818 529.583 179.116 528.705 179.713C527.836 180.301 527.167 181.068 526.698 182.014C526.229 182.96 525.995 183.974 525.995 185.057V186.795C525.995 188.278 526.25 189.536 526.762 190.567C527.282 191.589 528.002 192.369 528.922 192.906C529.843 193.435 530.912 193.699 532.131 193.699C532.924 193.699 533.64 193.588 534.279 193.366C534.926 193.136 535.485 192.795 535.953 192.344C536.422 191.884 536.784 191.312 537.04 190.631L539.955 191.449C539.648 192.438 539.132 193.307 538.408 194.057C537.684 194.798 536.789 195.378 535.723 195.795C534.658 196.205 533.461 196.409 532.131 196.409ZM558.76 180.761L556.05 181.528C555.88 181.077 555.628 180.638 555.296 180.212C554.972 179.777 554.529 179.419 553.966 179.138C553.404 178.857 552.684 178.716 551.806 178.716C550.604 178.716 549.603 178.993 548.801 179.547C548.009 180.092 547.613 180.787 547.613 181.631C547.613 182.381 547.885 182.973 548.431 183.408C548.976 183.842 549.828 184.205 550.988 184.494L553.902 185.21C555.658 185.636 556.966 186.288 557.827 187.166C558.688 188.036 559.118 189.156 559.118 190.528C559.118 191.653 558.794 192.659 558.147 193.545C557.507 194.432 556.613 195.131 555.462 195.642C554.311 196.153 552.973 196.409 551.448 196.409C549.445 196.409 547.787 195.974 546.475 195.105C545.162 194.236 544.331 192.966 543.982 191.295L546.846 190.58C547.118 191.636 547.634 192.429 548.392 192.957C549.159 193.486 550.161 193.75 551.397 193.75C552.803 193.75 553.919 193.452 554.746 192.855C555.581 192.25 555.999 191.526 555.999 190.682C555.999 190 555.76 189.429 555.283 188.969C554.806 188.5 554.073 188.151 553.084 187.92L549.811 187.153C548.013 186.727 546.692 186.067 545.848 185.172C545.013 184.268 544.596 183.139 544.596 181.784C544.596 180.676 544.907 179.696 545.529 178.844C546.159 177.991 547.016 177.322 548.098 176.837C549.189 176.351 550.425 176.108 551.806 176.108C553.749 176.108 555.275 176.534 556.382 177.386C557.499 178.239 558.292 179.364 558.76 180.761ZM581.2 196.358C579.478 196.358 577.995 196.043 576.751 195.412C575.506 194.781 574.548 193.916 573.874 192.817C573.201 191.717 572.864 190.46 572.864 189.045C572.864 187.955 573.094 186.987 573.555 186.143C574.023 185.291 574.667 184.503 575.485 183.778C576.312 183.045 577.262 182.312 578.336 181.58L582.12 178.767C582.862 178.281 583.454 177.761 583.897 177.207C584.349 176.653 584.575 175.929 584.575 175.034C584.575 174.369 584.281 173.726 583.692 173.104C583.113 172.482 582.35 172.17 581.404 172.17C580.739 172.17 580.151 172.341 579.64 172.682C579.137 173.014 578.741 173.44 578.451 173.96C578.17 174.472 578.029 175 578.029 175.545C578.029 176.159 578.195 176.781 578.528 177.412C578.869 178.034 579.299 178.673 579.819 179.33C580.347 179.977 580.893 180.642 581.455 181.324L593.472 196H589.842L579.921 184.034C579.001 182.926 578.165 181.92 577.415 181.017C576.665 180.114 576.069 179.223 575.626 178.345C575.183 177.467 574.961 176.517 574.961 175.494C574.961 174.318 575.221 173.287 575.741 172.401C576.269 171.506 577.006 170.811 577.952 170.317C578.907 169.814 580.023 169.562 581.302 169.562C582.614 169.562 583.744 169.818 584.69 170.33C585.636 170.832 586.364 171.501 586.876 172.337C587.387 173.163 587.643 174.062 587.643 175.034C587.643 176.287 587.332 177.374 586.71 178.294C586.087 179.214 585.239 180.071 584.165 180.864L578.95 184.75C577.773 185.619 576.977 186.463 576.559 187.281C576.141 188.099 575.933 188.687 575.933 189.045C575.933 189.864 576.146 190.626 576.572 191.334C576.998 192.041 577.599 192.612 578.374 193.047C579.15 193.482 580.058 193.699 581.097 193.699C582.086 193.699 583.049 193.49 583.987 193.072C584.924 192.646 585.772 192.033 586.531 191.232C587.298 190.43 587.903 189.467 588.346 188.342C588.798 187.217 589.023 185.952 589.023 184.545H591.938C591.938 186.284 591.738 187.703 591.337 188.803C590.937 189.902 590.485 190.763 589.982 191.385C589.479 192.007 589.075 192.472 588.768 192.778C588.665 192.906 588.572 193.034 588.487 193.162C588.401 193.29 588.308 193.418 588.205 193.545C587.362 194.491 586.296 195.199 585.009 195.668C583.722 196.128 582.452 196.358 581.2 196.358ZM619.312 187.972V176.364H622.329V196H619.312V192.676H619.108C618.647 193.673 617.931 194.521 616.96 195.22C615.988 195.911 614.761 196.256 613.278 196.256C612.051 196.256 610.96 195.987 610.005 195.45C609.051 194.905 608.301 194.087 607.755 192.996C607.21 191.896 606.937 190.511 606.937 188.841V176.364H609.954V188.636C609.954 190.068 610.355 191.21 611.156 192.062C611.966 192.915 612.997 193.341 614.25 193.341C615 193.341 615.762 193.149 616.538 192.766C617.322 192.382 617.978 191.794 618.507 191.001C619.044 190.209 619.312 189.199 619.312 187.972ZM627.855 196V176.364H630.77V179.33H630.974C631.332 178.358 631.98 177.57 632.918 176.964C633.855 176.359 634.912 176.057 636.088 176.057C636.31 176.057 636.587 176.061 636.919 176.07C637.251 176.078 637.503 176.091 637.673 176.108V179.176C637.571 179.151 637.337 179.112 636.97 179.061C636.612 179.001 636.233 178.972 635.832 178.972C634.878 178.972 634.026 179.172 633.276 179.572C632.534 179.964 631.946 180.51 631.511 181.209C631.085 181.899 630.872 182.687 630.872 183.574V196H627.855ZM641.659 196V169.818H644.676V179.483H644.931C645.153 179.142 645.46 178.707 645.852 178.179C646.252 177.642 646.824 177.165 647.565 176.747C648.315 176.321 649.329 176.108 650.608 176.108C652.261 176.108 653.718 176.521 654.98 177.348C656.241 178.175 657.225 179.347 657.933 180.864C658.64 182.381 658.994 184.17 658.994 186.233C658.994 188.312 658.64 190.115 657.933 191.641C657.225 193.158 656.245 194.334 654.993 195.169C653.74 195.996 652.295 196.409 650.659 196.409C649.397 196.409 648.387 196.2 647.629 195.783C646.87 195.357 646.287 194.875 645.877 194.338C645.468 193.793 645.153 193.341 644.931 192.983H644.574V196H641.659ZM644.625 186.182C644.625 187.665 644.842 188.973 645.277 190.107C645.711 191.232 646.346 192.114 647.181 192.753C648.017 193.384 649.039 193.699 650.25 193.699C651.511 193.699 652.564 193.366 653.407 192.702C654.26 192.028 654.899 191.125 655.325 189.991C655.76 188.849 655.977 187.58 655.977 186.182C655.977 184.801 655.764 183.557 655.338 182.449C654.92 181.332 654.285 180.45 653.433 179.803C652.589 179.146 651.528 178.818 650.25 178.818C649.022 178.818 647.991 179.129 647.156 179.751C646.321 180.365 645.69 181.226 645.264 182.334C644.838 183.433 644.625 184.716 644.625 186.182ZM669.387 196.46C668.143 196.46 667.014 196.226 666 195.757C664.985 195.28 664.18 194.594 663.583 193.699C662.987 192.795 662.689 191.705 662.689 190.426C662.689 189.301 662.91 188.389 663.353 187.69C663.797 186.983 664.389 186.429 665.13 186.028C665.872 185.628 666.69 185.33 667.585 185.134C668.488 184.929 669.396 184.767 670.308 184.648C671.501 184.494 672.468 184.379 673.21 184.303C673.96 184.217 674.505 184.077 674.846 183.881C675.196 183.685 675.37 183.344 675.37 182.858V182.756C675.37 181.494 675.025 180.514 674.335 179.815C673.653 179.116 672.618 178.767 671.228 178.767C669.788 178.767 668.659 179.082 667.841 179.713C667.022 180.344 666.447 181.017 666.115 181.733L663.251 180.71C663.762 179.517 664.444 178.588 665.297 177.923C666.157 177.25 667.095 176.781 668.109 176.517C669.132 176.244 670.137 176.108 671.126 176.108C671.757 176.108 672.481 176.185 673.299 176.338C674.126 176.483 674.923 176.786 675.69 177.246C676.466 177.706 677.109 178.401 677.62 179.33C678.132 180.259 678.387 181.503 678.387 183.062V196H675.37V193.341H675.217C675.012 193.767 674.672 194.223 674.194 194.709C673.717 195.195 673.082 195.608 672.289 195.949C671.497 196.29 670.529 196.46 669.387 196.46ZM669.848 193.75C671.041 193.75 672.047 193.516 672.865 193.047C673.691 192.578 674.314 191.973 674.731 191.232C675.157 190.49 675.37 189.71 675.37 188.892V186.131C675.243 186.284 674.961 186.425 674.527 186.553C674.1 186.672 673.606 186.778 673.044 186.872C672.49 186.957 671.949 187.034 671.42 187.102C670.9 187.162 670.478 187.213 670.154 187.256C669.37 187.358 668.637 187.524 667.956 187.754C667.282 187.976 666.737 188.312 666.319 188.764C665.91 189.207 665.706 189.812 665.706 190.58C665.706 191.628 666.093 192.42 666.869 192.957C667.653 193.486 668.646 193.75 669.848 193.75ZM686.911 184.188V196H683.894V176.364H686.809V179.432H687.065C687.525 178.435 688.224 177.634 689.161 177.028C690.099 176.415 691.309 176.108 692.792 176.108C694.121 176.108 695.285 176.381 696.282 176.926C697.279 177.463 698.055 178.281 698.609 179.381C699.163 180.472 699.44 181.852 699.44 183.523V196H696.423V183.727C696.423 182.185 696.022 180.983 695.221 180.122C694.42 179.253 693.32 178.818 691.923 178.818C690.96 178.818 690.099 179.027 689.34 179.445C688.59 179.862 687.998 180.472 687.563 181.273C687.129 182.074 686.911 183.045 686.911 184.188ZM712.93 196.409C711.157 196.409 709.602 195.987 708.264 195.143C706.934 194.3 705.895 193.119 705.145 191.602C704.403 190.085 704.032 188.312 704.032 186.284C704.032 184.239 704.403 182.453 705.145 180.928C705.895 179.402 706.934 178.217 708.264 177.374C709.602 176.53 711.157 176.108 712.93 176.108C714.703 176.108 716.254 176.53 717.583 177.374C718.922 178.217 719.961 179.402 720.703 180.928C721.453 182.453 721.828 184.239 721.828 186.284C721.828 188.312 721.453 190.085 720.703 191.602C719.961 193.119 718.922 194.3 717.583 195.143C716.254 195.987 714.703 196.409 712.93 196.409ZM712.93 193.699C714.277 193.699 715.385 193.354 716.254 192.663C717.123 191.973 717.767 191.065 718.184 189.94C718.602 188.815 718.811 187.597 718.811 186.284C718.811 184.972 718.602 183.749 718.184 182.615C717.767 181.482 717.123 180.565 716.254 179.866C715.385 179.168 714.277 178.818 712.93 178.818C711.583 178.818 710.475 179.168 709.606 179.866C708.737 180.565 708.093 181.482 707.676 182.615C707.258 183.749 707.049 184.972 707.049 186.284C707.049 187.597 707.258 188.815 707.676 189.94C708.093 191.065 708.737 191.973 709.606 192.663C710.475 193.354 711.583 193.699 712.93 193.699ZM740.342 180.761L737.632 181.528C737.462 181.077 737.21 180.638 736.878 180.212C736.554 179.777 736.111 179.419 735.548 179.138C734.986 178.857 734.266 178.716 733.388 178.716C732.186 178.716 731.185 178.993 730.384 179.547C729.591 180.092 729.195 180.787 729.195 181.631C729.195 182.381 729.467 182.973 730.013 183.408C730.558 183.842 731.411 184.205 732.57 184.494L735.484 185.21C737.24 185.636 738.548 186.288 739.409 187.166C740.27 188.036 740.7 189.156 740.7 190.528C740.7 191.653 740.376 192.659 739.729 193.545C739.089 194.432 738.195 195.131 737.044 195.642C735.893 196.153 734.555 196.409 733.03 196.409C731.027 196.409 729.369 195.974 728.057 195.105C726.744 194.236 725.913 192.966 725.564 191.295L728.428 190.58C728.7 191.636 729.216 192.429 729.974 192.957C730.741 193.486 731.743 193.75 732.979 193.75C734.385 193.75 735.501 193.452 736.328 192.855C737.163 192.25 737.581 191.526 737.581 190.682C737.581 190 737.342 189.429 736.865 188.969C736.388 188.5 735.655 188.151 734.666 187.92L731.393 187.153C729.595 186.727 728.274 186.067 727.43 185.172C726.595 184.268 726.178 183.139 726.178 181.784C726.178 180.676 726.489 179.696 727.111 178.844C727.741 177.991 728.598 177.322 729.68 176.837C730.771 176.351 732.007 176.108 733.388 176.108C735.331 176.108 736.857 176.534 737.964 177.386C739.081 178.239 739.874 179.364 740.342 180.761Z" fill="white"/>
</svg>
